<svg width="139" height="43" viewBox="0 0 139 43" fill="none" xmlns="http://www.w3.org/2000/svg">
<g clip-path="url(#clip0_0_913)">
<g clip-path="url(#clip1_0_913)">
<g clip-path="url(#clip2_0_913)">
<path d="M133.863 42.4401H5.59933C2.77755 42.4401 0.46875 40.1276 0.46875 37.3011V6.46629C0.46875 3.63975 2.7775 1.32715 5.59933 1.32715H133.863C136.685 1.32715 138.995 3.63975 138.995 6.46629V37.301C138.995 40.1276 136.685 42.4401 133.863 42.4401Z" fill="black"/>
<path d="M133.863 1.32715H5.59933C2.77755 1.32715 0.46875 3.63975 0.46875 6.46629V37.301C0.46875 40.1276 2.7775 42.4401 5.59933 42.4401H133.863C136.685 42.4401 138.995 40.1276 138.995 37.3011V6.46629C138.995 3.63975 136.685 1.32715 133.863 1.32715ZM133.863 2.14938C136.24 2.14938 138.173 4.08626 138.173 6.46629V37.301C138.173 39.6815 136.24 41.6184 133.863 41.6184H5.59933C3.22329 41.6184 1.28965 39.6814 1.28965 37.3011V6.46629C1.28965 4.08626 3.22324 2.14943 5.59933 2.14943L133.863 2.14938Z" fill="#A6A6A6"/>
<path d="M28.288 21.7272C28.3 20.7865 28.548 19.8642 29.0089 19.0461C29.4697 18.2279 30.1283 17.5405 30.9236 17.0478C30.4184 16.3207 29.7519 15.7223 28.977 15.3002C28.2022 14.878 27.3403 14.6437 26.4598 14.6159C24.5818 14.4173 22.761 15.7485 21.8039 15.7485C20.8284 15.7485 19.3548 14.6357 17.768 14.6686C16.7417 14.7021 15.7414 15.0028 14.8648 15.5416C13.9881 16.0805 13.2648 16.8388 12.7655 17.743C10.6024 21.5168 12.2159 27.0628 14.2879 30.1134C15.3244 31.607 16.536 33.2755 18.1214 33.2163C19.6727 33.1514 20.2521 32.2194 22.1246 32.2194C23.9799 32.2194 24.5235 33.2163 26.1409 33.1787C27.8056 33.1514 28.8544 31.6784 29.8547 30.1705C30.5996 29.1061 31.1728 27.9298 31.5529 26.6851C30.5858 26.2729 29.7606 25.583 29.18 24.7014C28.5994 23.8197 28.2892 22.7853 28.288 21.7272ZM25.2329 12.6099C26.1405 11.5119 26.5877 10.1006 26.4793 8.67578C25.0927 8.82256 23.8119 9.49042 22.892 10.5463C22.4422 11.0621 22.0978 11.6621 21.8782 12.3122C21.6588 12.9622 21.5685 13.6495 21.6127 14.3346C22.3064 14.3418 22.9926 14.1903 23.6197 13.8915C24.2467 13.5928 24.7982 13.1546 25.2329 12.6099ZM46.9 29.5849H41.8091L40.5866 33.2226H38.4302L43.2523 19.7641H45.4926L50.3146 33.2226H48.1216L46.9 29.5849ZM42.3364 27.9063H46.3717L44.3825 22.0028H44.3268L42.3364 27.9063ZM60.7284 28.3171C60.7284 31.3662 59.1088 33.3252 56.6647 33.3252C56.0456 33.3579 55.4299 33.2142 54.8881 32.9105C54.3462 32.6069 53.9002 32.1557 53.6011 31.6085H53.5548V36.4686H51.556V23.4103H53.4906V25.0424H53.5275C53.8404 24.4979 54.294 24.0489 54.8399 23.7435C55.3859 23.4381 56.0038 23.2874 56.628 23.3078C59.0993 23.3078 60.7284 25.2765 60.7284 28.3171ZM58.674 28.3171C58.674 26.3305 57.6551 25.0244 56.1007 25.0244C54.5735 25.0244 53.5463 26.3579 53.5463 28.3169C53.5463 30.2941 54.5735 31.6182 56.1007 31.6182C57.6551 31.6182 58.674 30.3217 58.674 28.3171ZM71.4463 28.3171C71.4463 31.3662 69.8262 33.3252 67.3821 33.3252C66.763 33.3579 66.1473 33.2142 65.6055 32.9105C65.0636 32.6069 64.6176 32.1557 64.3183 31.6085H64.2722V36.4686H62.2734V23.4103H64.208V25.0424H64.2449C64.5578 24.4979 65.0114 24.0489 65.5573 23.7435C66.1033 23.4381 66.7212 23.2874 67.3453 23.3078C69.8168 23.3078 71.4463 25.2765 71.4463 28.3171ZM69.3914 28.3171C69.3914 26.3305 68.3725 25.0244 66.8181 25.0244C65.2909 25.0244 64.2637 26.3579 64.2637 28.3169C64.2637 30.2941 65.2909 31.6182 66.8181 31.6182C68.3725 31.6182 69.3914 30.3217 69.3914 28.3171ZM78.5286 29.4727C78.6767 30.8073 79.9633 31.6837 81.7215 31.6837C83.4062 31.6837 84.6182 30.8073 84.6182 29.604C84.6182 28.5592 83.8873 27.9339 82.1564 27.5052L80.4255 27.085C77.973 26.4881 76.8344 25.3323 76.8344 23.4568C76.8344 21.1348 78.8427 19.5398 81.6932 19.5398C84.5165 19.5398 86.4511 21.1348 86.5163 23.4568H84.4986C84.3779 22.1138 83.2759 21.303 81.6659 21.303C80.0557 21.303 78.954 22.1234 78.954 23.3171C78.954 24.2687 79.6576 24.8285 81.3791 25.2571L82.8506 25.6213C85.5909 26.2743 86.7283 27.3835 86.7283 29.352C86.7283 31.8699 84.7391 33.4469 81.5734 33.4469C78.6114 33.4469 76.6117 31.9069 76.4825 29.4727H78.5286ZM91.0441 21.0884V23.4103H92.8959V25.0054H91.0441V30.4147C91.0441 31.255 91.4148 31.6466 92.2288 31.6466C92.4487 31.6428 92.6681 31.6272 92.8863 31.6001V33.1856C92.5203 33.2545 92.1484 33.2856 91.7762 33.2786C89.8048 33.2786 89.0359 32.5325 89.0359 30.6296V25.0054H87.62V23.4103H89.0359V21.0884H91.0441ZM93.9671 28.3171C93.9671 25.2297 95.7716 23.2897 98.5855 23.2897C101.409 23.2897 103.205 25.2297 103.205 28.3171C103.205 31.4128 101.418 33.3442 98.5853 33.3442C95.7537 33.3442 93.9671 31.4128 93.9671 28.3171ZM101.168 28.3171C101.168 26.1992 100.205 24.9491 98.5853 24.9491C96.9658 24.9491 96.0026 26.2086 96.0026 28.3171C96.0026 30.4434 96.9658 31.6837 98.5853 31.6837C100.205 31.6837 101.168 30.4434 101.168 28.3171ZM104.852 23.4103H106.759V25.0805H106.805C106.934 24.5588 107.237 24.0978 107.664 23.775C108.09 23.4522 108.614 23.2871 109.147 23.3078C109.378 23.3069 109.607 23.3321 109.832 23.3829V25.2668C109.541 25.1773 109.238 25.1361 108.934 25.145C108.644 25.1331 108.354 25.1848 108.085 25.2962C107.817 25.4078 107.575 25.5765 107.377 25.791C107.179 26.0055 107.03 26.2605 106.939 26.5387C106.848 26.817 106.818 27.1115 106.851 27.4025V33.2226H104.852V23.4103ZM119.048 30.3406C118.779 32.1219 117.057 33.3442 114.855 33.3442C112.022 33.3442 110.264 31.4319 110.264 28.3635C110.264 25.2858 112.031 23.2897 114.771 23.2897C117.465 23.2897 119.159 25.1546 119.159 28.1296V28.8197H112.281V28.9414C112.25 29.3025 112.294 29.6663 112.413 30.0087C112.532 30.3509 112.721 30.664 112.969 30.9268C113.216 31.1897 113.517 31.3964 113.85 31.5334C114.183 31.6702 114.541 31.7341 114.901 31.7208C115.373 31.7653 115.847 31.6552 116.252 31.4065C116.658 31.1577 116.972 30.784 117.15 30.3406H119.048ZM112.291 27.4121H117.159C117.177 27.0874 117.128 26.7624 117.016 26.4576C116.903 26.1529 116.729 25.8749 116.505 25.641C116.281 25.4072 116.011 25.2225 115.712 25.0987C115.414 24.975 115.093 24.9147 114.771 24.9217C114.445 24.9197 114.123 24.9827 113.821 25.1071C113.52 25.2315 113.246 25.4147 113.016 25.6463C112.785 25.8777 112.603 26.153 112.478 26.4561C112.354 26.7592 112.29 27.0841 112.291 27.4121ZM42.0864 9.63394C42.5055 9.60365 42.926 9.66743 43.3176 9.82071C43.7092 9.974 44.0622 10.213 44.351 10.5204C44.6399 10.8278 44.8575 11.1959 44.988 11.5983C45.1186 12.0007 45.1589 12.4273 45.106 12.8472C45.106 14.9132 43.9979 16.1007 42.0864 16.1007H39.7683V9.63384L42.0864 9.63394ZM40.7651 15.1862H41.9751C42.2745 15.2042 42.5742 15.1547 42.8522 15.0413C43.1303 14.928 43.3797 14.7535 43.5824 14.5308C43.7852 14.3079 43.936 14.0424 44.024 13.7534C44.1121 13.4645 44.1351 13.1593 44.0914 12.8604C44.1319 12.5625 44.1067 12.2593 44.0173 11.9725C43.9279 11.6856 43.7766 11.4223 43.5743 11.2013C43.372 10.9802 43.1238 10.807 42.8473 10.6941C42.5709 10.5811 42.273 10.5311 41.9751 10.5478H40.7651V15.1862ZM46.232 13.6584C46.2015 13.3377 46.2379 13.0142 46.3388 12.7085C46.4398 12.4028 46.603 12.1217 46.818 11.8833C47.0331 11.6449 47.2952 11.4544 47.5876 11.324C47.88 11.1937 48.1962 11.1263 48.5159 11.1263C48.8356 11.1263 49.1518 11.1937 49.4442 11.324C49.7366 11.4544 49.9986 11.6449 50.2137 11.8833C50.4287 12.1217 50.5919 12.4028 50.6928 12.7085C50.7938 13.0142 50.8302 13.3377 50.7997 13.6584C50.8308 13.9795 50.795 14.3037 50.6943 14.61C50.5937 14.9161 50.4306 15.1978 50.2155 15.4368C50.0004 15.6757 49.7381 15.8667 49.4453 15.9973C49.1527 16.128 48.8361 16.1956 48.5159 16.1956C48.1957 16.1956 47.8791 16.128 47.5864 15.9973C47.2936 15.8667 47.0313 15.6757 46.8162 15.4368C46.6011 15.1978 46.438 14.9161 46.3374 14.61C46.2368 14.3037 46.2008 13.9795 46.232 13.6584ZM49.8167 13.6584C49.8167 12.6006 49.3451 11.982 48.5175 11.982C47.6866 11.982 47.2193 12.6006 47.2193 13.6584C47.2193 14.7248 47.6868 15.3387 48.5175 15.3387C49.3451 15.3387 49.8167 14.7205 49.8167 13.6584ZM56.8717 16.1006H55.88L54.8791 12.5064H54.8035L53.8069 16.1006H52.8249L51.4899 11.2204H52.4593L53.3269 14.9443H53.3983L54.3941 11.2204H55.3109L56.3067 14.9443H56.3822L57.2456 11.2204H58.2014L56.8717 16.1006ZM59.3241 11.2205H60.2442V11.9957H60.3156C60.4368 11.7173 60.6412 11.4838 60.9001 11.328C61.1593 11.1721 61.4602 11.1016 61.7609 11.1262C61.9965 11.1084 62.2332 11.1442 62.4532 11.231C62.6732 11.3178 62.8711 11.4534 63.0321 11.6277C63.1931 11.802 63.3131 12.0106 63.3833 12.238C63.4534 12.4654 63.4717 12.7058 63.4372 12.9413V16.1006H62.4813V13.1832C62.4813 12.399 62.1432 12.009 61.4363 12.009C61.2763 12.0015 61.1167 12.0289 60.9681 12.0894C60.8197 12.1499 60.6859 12.2421 60.5761 12.3595C60.4662 12.477 60.3829 12.617 60.3318 12.7699C60.2807 12.9229 60.263 13.0852 60.2799 13.2457V16.1006H59.3241V11.2205ZM64.9601 9.31532H65.9158V16.1006H64.9601V9.31532ZM67.2445 13.6584C67.2141 13.3377 67.2505 13.0141 67.3514 12.7083C67.4524 12.4026 67.6156 12.1215 67.8307 11.883C68.0457 11.6446 68.3079 11.4541 68.6003 11.3237C68.8928 11.1933 69.2089 11.126 69.5287 11.126C69.8485 11.126 70.1648 11.1933 70.4572 11.3237C70.7495 11.4541 71.0117 11.6446 71.2268 11.883C71.4418 12.1215 71.605 12.4026 71.706 12.7083C71.807 13.0141 71.8434 13.3377 71.8129 13.6584C71.8439 13.9795 71.8078 14.3035 71.7072 14.6097C71.6064 14.9159 71.4432 15.1974 71.2281 15.4363C71.013 15.6751 70.7507 15.866 70.458 15.9966C70.1654 16.1271 69.8488 16.1947 69.5287 16.1947C69.2086 16.1947 68.892 16.1271 68.5994 15.9966C68.3067 15.866 68.0444 15.6751 67.8293 15.4363C67.6142 15.1974 67.451 14.9159 67.3504 14.6097C67.2496 14.3035 67.2135 13.9795 67.2445 13.6584ZM70.8292 13.6584C70.8292 12.6006 70.3577 11.982 69.53 11.982C68.6992 11.982 68.2319 12.6006 68.2319 13.6584C68.2319 14.7248 68.6994 15.3387 69.53 15.3387C70.3577 15.3387 70.8292 14.7205 70.8292 13.6584ZM72.8191 14.7205C72.8191 13.8421 73.4682 13.3356 74.6204 13.2636L75.9321 13.1874V12.7662C75.9321 12.2507 75.594 11.9597 74.9407 11.9597C74.4072 11.9597 74.0374 12.1571 73.9314 12.5022H73.0061C73.1036 11.6639 73.8862 11.1263 74.9848 11.1263C76.199 11.1263 76.8838 11.7354 76.8838 12.7662V16.1006H75.9636V15.4148H75.888C75.7346 15.6608 75.519 15.8614 75.2635 15.996C75.0079 16.1306 74.7215 16.1945 74.4335 16.1811C74.2301 16.2024 74.0246 16.1806 73.8302 16.1169C73.6358 16.0533 73.4568 15.9494 73.3047 15.8118C73.1526 15.6741 73.0308 15.5059 72.9471 15.318C72.8635 15.1301 72.8199 14.9266 72.8191 14.7205ZM75.9321 14.3035V13.8955L74.7496 13.9716C74.0825 14.0166 73.7801 14.2454 73.7801 14.6755C73.7801 15.1148 74.1582 15.3705 74.6782 15.3705C74.8304 15.386 74.9843 15.3705 75.1306 15.3248C75.277 15.2792 75.4126 15.2044 75.5296 15.1048C75.6466 15.0054 75.7425 14.8831 75.8116 14.7454C75.8809 14.6078 75.9218 14.4574 75.9321 14.3035ZM78.1399 13.6584C78.1399 12.1164 78.9266 11.1395 80.1502 11.1395C80.4529 11.1255 80.7534 11.1985 81.0163 11.3501C81.2794 11.5018 81.4941 11.7257 81.6354 11.9957H81.7068V9.31521H82.6625V16.1006H81.7467V15.3294H81.6711C81.5188 15.5977 81.2967 15.8188 81.0285 15.9689C80.7605 16.119 80.4568 16.1923 80.1503 16.1809C78.9183 16.1809 78.1399 15.2042 78.1399 13.6584ZM79.1273 13.6584C79.1273 14.6935 79.6115 15.3164 80.4212 15.3164C81.2267 15.3164 81.7246 14.6846 81.7246 13.6626C81.7246 12.6456 81.2216 12.0047 80.4212 12.0047C79.6167 12.0047 79.1273 12.6318 79.1273 13.6584ZM86.617 13.6584C86.5865 13.3377 86.623 13.0142 86.7239 12.7085C86.8249 12.4028 86.9881 12.1217 87.2031 11.8833C87.4181 11.6449 87.6802 11.4544 87.9726 11.324C88.265 11.1937 88.5811 11.1263 88.9009 11.1263C89.2206 11.1263 89.5369 11.1937 89.8291 11.324C90.1215 11.4544 90.3837 11.6449 90.5987 11.8833C90.8138 12.1217 90.977 12.4028 91.0779 12.7085C91.1789 13.0142 91.2152 13.3377 91.1847 13.6584C91.2159 13.9795 91.18 14.3037 91.0794 14.61C90.9787 14.9161 90.8156 15.1978 90.6006 15.4368C90.3855 15.6757 90.1231 15.8667 89.8304 15.9973C89.5376 16.128 89.221 16.1956 88.9009 16.1956C88.5807 16.1956 88.2641 16.128 87.9714 15.9973C87.6787 15.8667 87.4164 15.6757 87.2013 15.4368C86.9862 15.1978 86.8231 14.9161 86.7225 14.61C86.6219 14.3037 86.5859 13.9795 86.617 13.6584ZM90.2017 13.6584C90.2017 12.6006 89.7302 11.982 88.9025 11.982C88.0717 11.982 87.6044 12.6006 87.6044 13.6584C87.6044 14.7248 88.0718 15.3387 88.9025 15.3387C89.7302 15.3387 90.2017 14.7205 90.2017 13.6584ZM92.4672 11.2205H93.3873V11.9957H93.4587C93.5799 11.7173 93.7843 11.4838 94.0434 11.328C94.3024 11.1721 94.6033 11.1016 94.904 11.1262C95.1396 11.1084 95.3763 11.1442 95.5964 11.231C95.8163 11.3178 96.0142 11.4534 96.1752 11.6277C96.3362 11.802 96.4562 12.0106 96.5264 12.238C96.5965 12.4654 96.6148 12.7058 96.5803 12.9413V16.1006H95.6246V13.1832C95.6246 12.399 95.2863 12.009 94.5794 12.009C94.4194 12.0015 94.2598 12.0289 94.1112 12.0894C93.9628 12.1499 93.829 12.2421 93.7192 12.3595C93.6094 12.477 93.526 12.617 93.4749 12.7699C93.4238 12.9229 93.4061 13.0852 93.423 13.2457V16.1006H92.4673L92.4672 11.2205ZM101.981 10.0055V11.2427H103.03V12.0539H101.981V14.5633C101.981 15.0745 102.19 15.2984 102.666 15.2984C102.788 15.298 102.909 15.2905 103.03 15.2761V16.0784C102.859 16.1094 102.685 16.1259 102.51 16.1276C101.448 16.1276 101.024 15.7508 101.024 14.81V12.0539H100.255V11.2426H101.024V10.0056L101.981 10.0055ZM104.336 9.31532H105.283V12.0047H105.359C105.486 11.7237 105.696 11.4889 105.96 11.3325C106.224 11.176 106.53 11.1055 106.836 11.1304C107.07 11.1176 107.304 11.157 107.522 11.2459C107.739 11.3349 107.935 11.4711 108.094 11.6448C108.253 11.8186 108.373 12.0257 108.444 12.2513C108.514 12.4769 108.535 12.7154 108.503 12.9499V16.1006H107.547V13.1874C107.547 12.4079 107.186 12.0132 106.511 12.0132C106.347 11.9996 106.182 12.0224 106.027 12.0799C105.872 12.1374 105.732 12.2282 105.616 12.3461C105.5 12.4639 105.41 12.6059 105.354 12.7621C105.298 12.9183 105.277 13.085 105.292 13.2504V16.1006H104.336V9.31532ZM114.077 14.7829C113.947 15.2289 113.665 15.6148 113.282 15.8729C112.898 16.131 112.437 16.245 111.978 16.1948C111.659 16.2034 111.342 16.1418 111.049 16.0144C110.756 15.887 110.493 15.6969 110.281 15.4572C110.068 15.2176 109.909 14.9341 109.816 14.6265C109.723 14.3188 109.697 13.9946 109.741 13.6759C109.698 13.3564 109.724 13.0312 109.817 12.7227C109.91 12.4142 110.068 12.1294 110.28 11.8876C110.492 11.6458 110.752 11.4527 111.045 11.3214C111.337 11.19 111.654 11.1234 111.974 11.1262C113.321 11.1262 114.134 12.0539 114.134 13.5864V13.9225H110.714V13.9765C110.699 14.1555 110.722 14.3358 110.78 14.5056C110.838 14.6755 110.931 14.8313 111.052 14.9629C111.174 15.0945 111.321 15.1992 111.485 15.2701C111.649 15.3409 111.826 15.3766 112.004 15.3745C112.233 15.4022 112.464 15.3608 112.67 15.2553C112.875 15.15 113.044 14.9855 113.156 14.7829H114.077ZM110.714 13.2102H113.161C113.173 13.0464 113.15 12.8819 113.096 12.7272C113.041 12.5726 112.955 12.4312 112.842 12.3121C112.73 12.193 112.594 12.099 112.444 12.0359C112.293 11.9729 112.131 11.9422 111.968 11.946C111.803 11.9439 111.639 11.9752 111.486 12.0379C111.333 12.1007 111.194 12.1938 111.077 12.3116C110.96 12.4294 110.868 12.5697 110.805 12.724C110.743 12.8783 110.712 13.0436 110.714 13.2102Z" fill="white"/>
</g>
</g>
</g>
<defs>
<clipPath id="clip0_0_913">
<rect width="139" height="42.08" fill="white" transform="translate(0 0.360352)"/>
</clipPath>
<clipPath id="clip1_0_913">
<rect width="139" height="42.08" fill="white" transform="translate(0 0.360352)"/>
</clipPath>
<clipPath id="clip2_0_913">
<rect width="138.992" height="42.08" fill="white" transform="translate(0.00390625 0.360352)"/>
</clipPath>
</defs>
</svg>
