<svg width="45" height="46" viewBox="0 0 45 46" fill="none" xmlns="http://www.w3.org/2000/svg">
<g clip-path="url(#clip0_0_1145)">
<g clip-path="url(#clip1_0_1145)">
<g clip-path="url(#clip2_0_1145)">
<path d="M19.9313 12.4588C19.6949 12.4588 19.4601 12.3592 19.2951 12.1647C18.9957 11.813 19.0385 11.2856 19.3898 10.9871L20.6898 9.88083C21.0408 9.58187 21.5681 9.62423 21.8674 9.97563C22.166 10.3274 22.1232 10.8539 21.7726 11.1528L20.4719 12.2591C20.3153 12.3935 20.123 12.4588 19.9313 12.4588Z" fill="#222222"/>
<path d="M32.8083 18.0843C32.5763 18.0843 32.3467 17.9891 32.1817 17.8018L31.0504 16.5217C30.7458 16.1755 30.7786 15.6474 31.1239 15.3424C31.47 15.0366 31.9969 15.0693 32.3032 15.4154L33.4341 16.6959C33.7394 17.0416 33.7072 17.5694 33.361 17.8752C33.202 18.0152 33.0043 18.0843 32.8083 18.0843Z" fill="#222222"/>
<path d="M10.8358 19.3091C10.5682 19.3091 10.3055 19.1808 10.1438 18.9428C9.88519 18.5607 9.98487 18.0415 10.3665 17.7821L11.7803 16.8238C12.1627 16.5644 12.6823 16.6649 12.941 17.047C13.1995 17.4291 13.0999 17.9483 12.7178 18.2073L11.3041 19.1654C11.1604 19.2623 10.9972 19.3091 10.8358 19.3091Z" fill="#222222"/>
<path d="M28.0521 30.0501C27.8165 30.0501 27.5809 29.9497 27.4159 29.7556C27.1169 29.405 27.1597 28.8764 27.5107 28.5786L28.8118 27.4724C29.1624 27.1734 29.6901 27.2166 29.9887 27.5668C30.288 27.9186 30.2453 28.4459 29.8943 28.7444L28.5932 29.8507C28.4366 29.9855 28.2445 30.0501 28.0521 30.0501Z" fill="#222222"/>
<path d="M33.0291 25.5273C32.7528 25.5273 32.4812 25.3898 32.3227 25.1376L31.4109 23.6952C31.164 23.3051 31.2802 22.7895 31.6711 22.5434C32.0612 22.2974 32.5777 22.4123 32.8225 22.8032L33.7347 24.2469C33.9809 24.6366 33.8643 25.1518 33.4753 25.3987C33.3369 25.4854 33.1824 25.5273 33.0291 25.5273Z" fill="#222222"/>
<path d="M25.6568 14.7695C25.2553 14.7695 24.9007 14.4795 24.8337 14.0707C24.7579 13.6153 25.0665 13.1856 25.5208 13.1102L27.2053 12.8318C27.6608 12.756 28.0912 13.0642 28.1655 13.5197C28.2414 13.9752 27.9331 14.4048 27.4788 14.4803L25.7937 14.7587C25.7468 14.7659 25.7019 14.7695 25.6568 14.7695Z" fill="#222222"/>
<path d="M13.6481 14.5054C13.4156 14.5054 13.1845 14.4086 13.0191 14.2198L11.8942 12.9344C11.5904 12.5874 11.6255 12.0594 11.9729 11.756C12.3199 11.4514 12.8476 11.4869 13.1518 11.8347L14.2762 13.12C14.5801 13.467 14.5453 13.9951 14.1976 14.2989C14.039 14.4372 13.8433 14.5054 13.6481 14.5054Z" fill="#222222"/>
<path d="M15.4425 33.8724C15.2098 33.8724 14.9781 33.7752 14.8136 33.5867L13.6891 32.301C13.3853 31.954 13.4205 31.426 13.7678 31.1234C14.1147 30.8188 14.6429 30.8539 14.9466 31.2016L16.0711 32.4874C16.3749 32.8344 16.3398 33.3625 15.9924 33.6663C15.8339 33.8047 15.6378 33.8724 15.4425 33.8724Z" fill="#222222"/>
<path d="M21.6667 34.0948C21.5542 34.0948 21.4388 34.071 21.329 34.0226C20.9071 33.8362 20.717 33.3424 20.9039 32.9212L21.5957 31.3594C21.7826 30.9374 22.276 30.745 22.6988 30.9342C23.1204 31.1205 23.3109 31.6144 23.1233 32.0356L22.4313 33.5974C22.2934 33.9093 21.987 34.0948 21.6667 34.0948Z" fill="#222222"/>
<path d="M12.7645 26.6954C12.6338 26.7769 12.4792 26.8241 12.3147 26.8221L10.606 26.8056C10.1449 26.8007 9.77411 26.4231 9.77935 25.9623C9.78341 25.5008 10.1618 25.13 10.623 25.1348L12.3312 25.1518C12.7923 25.1566 13.1623 25.5335 13.1578 25.995C13.155 26.2903 12.9985 26.5494 12.7645 26.6954Z" fill="#222222"/>
<path d="M6.77195 17.7144C6.31122 17.7144 5.93682 17.3412 5.93642 16.8801L5.93359 14.3989C5.93319 13.9378 6.30638 13.5629 6.76792 13.5625C7.22865 13.5625 7.60387 13.9361 7.60428 14.3969L7.6071 16.878C7.6075 17.3392 7.2335 17.7136 6.77195 17.7144Z" fill="#222222"/>
<path d="M24.4165 8.00048C23.9627 8.00048 23.591 7.63737 23.5822 7.18227C23.5725 6.72114 23.9392 6.33987 24.4003 6.33019L26.8824 6.28016C27.3568 6.25878 27.7253 6.63762 27.7344 7.09836C27.7434 7.5595 27.3775 7.94117 26.9154 7.95044L24.4335 8.00048H24.4165Z" fill="#222222"/>
<path d="M9.14974 34.0568C9.11948 34.0568 9.08922 34.0548 9.05816 34.052C8.59943 34.0019 8.26779 33.5896 8.31742 33.1309L8.58409 30.6642C8.63331 30.2051 9.04483 29.8742 9.50477 29.9227C9.96305 29.9734 10.2948 30.385 10.2455 30.8437L9.97841 33.3105C9.93282 33.7381 9.57054 34.0568 9.14974 34.0568Z" fill="#222222"/>
<path d="M37.2984 23.8117C36.8374 23.8117 36.4633 23.4381 36.4629 22.9766L36.4609 20.4957C36.4609 20.0345 36.8341 19.6602 37.2961 19.6602C37.7568 19.6602 38.1324 20.0334 38.1324 20.4953L38.1341 22.9762C38.1341 23.4368 37.7595 23.8117 37.2984 23.8117C37.2988 23.8117 37.2988 23.8117 37.2984 23.8117Z" fill="#222222"/>
<path d="M35.0294 13.029C34.991 13.029 34.9519 13.0267 34.9124 13.0206L32.4554 12.6744C31.9979 12.6102 31.6807 12.1878 31.7445 11.7308C31.8087 11.274 32.2303 10.9561 32.6882 11.0199L35.1452 11.3661C35.6026 11.4301 35.9206 11.8526 35.856 12.3097C35.7967 12.7272 35.4393 13.029 35.0294 13.029Z" fill="#222222"/>
<path d="M14.8034 9.921C14.6577 9.921 14.5093 9.88227 14.3753 9.80199C13.9792 9.56476 13.8505 9.05157 14.0877 8.65575L15.363 6.52595C15.6003 6.12936 16.1135 6.00106 16.5093 6.23788C16.9055 6.47511 17.0337 6.98829 16.7969 7.38412L15.5216 9.51392C15.3646 9.77577 15.0878 9.921 14.8034 9.921Z" fill="#222222"/>
<path d="M4.28876 23.9425C3.83326 23.9425 3.46008 23.5762 3.45322 23.1187C3.44636 22.6576 3.81472 22.2779 4.27585 22.2711L6.7591 22.2344C7.21821 22.2376 7.60028 22.5954 7.60674 23.057C7.6136 23.518 7.24524 23.8977 6.78369 23.9049L4.30086 23.9421C4.29723 23.9425 4.29279 23.9425 4.28876 23.9425Z" fill="#222222"/>
<path d="M25.2583 36.5566C24.8028 36.5566 24.4308 36.1906 24.4239 35.734C24.4167 35.2728 24.7855 34.8931 25.247 34.8867L27.7294 34.8496C28.1974 34.8677 28.571 35.2107 28.577 35.6722C28.5839 36.1334 28.2156 36.5129 27.754 36.5203L25.2712 36.5566H25.2583Z" fill="#222222"/>
<path d="M33.5245 33.9414C33.2151 33.9414 32.9169 33.7682 32.7717 33.4693L31.6929 31.2338C31.492 30.8178 31.6659 30.3195 32.0819 30.119C32.4969 29.9177 32.9961 30.0912 33.197 30.5067L34.2766 32.743C34.4775 33.1578 34.304 33.6572 33.888 33.8578C33.7706 33.9147 33.6463 33.9414 33.5245 33.9414Z" fill="#222222"/>
<path d="M16.2765 38.9593C15.9194 38.9593 15.5894 38.7281 15.4789 38.3699C15.3425 37.9285 15.5898 37.4617 16.0308 37.3258L18.4027 36.5931C18.8441 36.4596 19.3108 36.704 19.4468 37.1454C19.5832 37.5868 19.3359 38.0536 18.8949 38.1895L16.523 38.9222C16.4411 38.9472 16.358 38.9593 16.2765 38.9593Z" fill="#222222"/>
<path d="M21.1093 16.1816C17.7989 16.1816 15.1055 18.8755 15.1055 22.1858C15.1055 25.4962 17.7985 28.1887 21.1093 28.1887C24.4192 28.1887 27.1122 25.4958 27.1122 22.1858C27.1118 18.8751 24.4192 16.1816 21.1093 16.1816ZM21.1093 26.5193C18.72 26.5193 16.7762 24.5751 16.7762 22.1862C16.7762 19.7974 18.72 17.8532 21.1093 17.8532C23.4981 17.8532 25.4415 19.7974 25.4415 22.1862C25.4411 24.5751 23.4981 26.5193 21.1093 26.5193Z" fill="#222222"/>
<path d="M43.0769 24.9377V24.9332L43.0616 24.9142C43.0184 24.8557 42.97 24.8005 42.9248 24.7425L42.1497 23.7737C42.1905 23.2492 42.2179 22.7212 42.2179 22.1862C42.2171 10.5471 32.7486 1.07812 21.1089 1.07812C18.3287 1.07812 15.6753 1.62359 13.242 2.60476C12.3476 2.27272 11.4079 2.07422 10.4445 2.02379C7.9253 1.89388 5.4998 2.75081 3.62252 4.44124C1.74566 6.13168 0.639799 8.45194 0.50832 10.9739C0.442154 12.248 0.627333 13.4979 1.05903 14.6885C1.103 14.81 1.17804 14.9072 1.26398 14.9919C0.446586 17.2383 0 19.6615 0 22.1866C0 33.8267 9.46902 43.2957 21.109 43.2957C21.6634 43.2957 22.2117 43.2662 22.7559 43.2239L23.3163 43.6774C24.2814 44.5984 25.5587 45.0999 26.8643 45.0999C27.1899 45.0999 27.5179 45.0684 27.8423 45.0055C29.2596 44.7274 30.4796 43.8706 31.2235 42.659C32.6062 42.9906 34.0751 42.7373 35.2746 41.9356C36.4467 41.1529 37.2362 39.9199 37.4735 38.5429C38.8484 38.3098 40.0835 37.5234 40.8689 36.3542C41.6758 35.1563 41.9324 33.6879 41.6011 32.3048C42.8143 31.5633 43.6741 30.3452 43.9548 28.9287C44.2332 27.5291 43.904 26.0832 43.0769 24.9377ZM4.74122 5.68255C6.28644 4.29061 8.2827 3.5826 10.3572 3.69228C10.5279 3.70117 10.6966 3.71932 10.8656 3.73908C7.18045 5.7935 4.17397 8.91895 2.2652 12.6921C2.18047 12.1571 2.1486 11.612 2.17765 11.061C2.28577 8.98403 3.19604 7.07398 4.74122 5.68255ZM30.0363 41.3236C29.5869 42.381 28.646 43.1456 27.5197 43.3662C26.6695 43.5316 25.7937 43.3634 25.0623 42.9179C26.8088 42.5855 28.4803 42.0389 30.0469 41.3026C30.0448 41.3102 30.0399 41.3163 30.0363 41.3236ZM39.4819 35.4227C38.8595 36.3502 37.8149 36.9199 36.6909 36.9445C36.2459 36.9546 35.8864 37.3124 35.8752 37.7582C35.8456 38.8838 35.274 39.9259 34.3453 40.5468C33.392 41.1844 32.1857 41.3086 31.1185 40.8757C31.0742 40.8575 31.0282 40.8458 30.9826 40.8357C34.7181 38.8503 37.7885 35.7762 39.7701 32.0372C39.7802 32.0917 39.7956 32.1462 39.8169 32.1987C40.2486 33.2657 40.1235 34.4706 39.4819 35.4227ZM21.1088 41.625C10.3901 41.625 1.67092 32.9048 1.67092 22.187C1.67092 11.4693 10.3907 2.7491 21.1088 2.7491C31.8276 2.7491 40.5478 11.4693 40.5478 22.187C40.5474 32.9048 31.8276 41.625 21.1088 41.625ZM42.316 28.604C42.0925 29.7304 41.3259 30.6685 40.2677 31.1159C40.25 31.1235 40.2355 31.134 40.2177 31.1429C40.9633 29.5602 41.5144 27.8709 41.8476 26.1034C42.3115 26.8425 42.4887 27.7358 42.316 28.604Z" fill="#222222"/>
</g>
</g>
</g>
<defs>
<clipPath id="clip0_0_1145">
<rect width="45" height="45" fill="white" transform="translate(0 0.589844)"/>
</clipPath>
<clipPath id="clip1_0_1145">
<rect width="45" height="45" fill="white" transform="translate(0 0.589844)"/>
</clipPath>
<clipPath id="clip2_0_1145">
<rect width="45" height="44.0217" fill="white" transform="translate(0 1.07812)"/>
</clipPath>
</defs>
</svg>
