<svg width="26" height="26" viewBox="0 0 26 26" fill="none" xmlns="http://www.w3.org/2000/svg">
<g clip-path="url(#clip0_0_6778)">
<g clip-path="url(#clip1_0_6778)">
<g clip-path="url(#clip2_0_6778)">
<path fill-rule="evenodd" clip-rule="evenodd" d="M25.4268 10.293C25.4268 11.1084 24.7627 11.7725 23.9473 11.7725H16.7842C16.4326 11.7725 16.1152 11.6406 15.8613 11.4355C15.7865 11.4518 15.7116 11.46 15.6367 11.46H14.1768V17.0361C14.1768 18.1152 13.293 18.9941 12.2139 18.9941H2.53613C1.45703 18.9941 0.578125 18.1152 0.578125 17.0361V7.91016C0.578125 7.74414 0.709961 7.60742 0.875977 7.60742H13.874C14.04 7.60742 14.1719 7.74414 14.1719 7.91016V9.13086H15.6367C15.7116 9.13086 15.7865 9.13737 15.8613 9.15039C16.1152 8.94531 16.4326 8.81836 16.7842 8.81836H23.9473C24.7627 8.81836 25.4268 9.48242 25.4268 10.293ZM13.5713 8.21289H1.17871V17.0361C1.17871 17.7832 1.78906 18.3936 2.53613 18.3936H12.2139C12.9609 18.3936 13.5713 17.7832 13.5713 17.0361V8.21289ZM14.1768 10.8545H15.4219C15.3486 10.6836 15.3096 10.4932 15.3096 10.293C15.3096 10.0928 15.3486 9.90723 15.4219 9.73145H14.1768V10.8545ZM24.8213 10.293C24.8213 9.80957 24.4307 9.41895 23.9473 9.41895H16.7842C16.3008 9.41895 15.9102 9.80957 15.9102 10.293C15.9102 10.7715 16.3008 11.167 16.7842 11.167H23.9473C24.4307 11.167 24.8213 10.7715 24.8213 10.293Z" fill="black"/>
</g>
</g>
</g>
<defs>
<clipPath id="clip0_0_6778">
<rect width="25" height="25" fill="white" transform="translate(0.5 0.800781)"/>
</clipPath>
<clipPath id="clip1_0_6778">
<rect width="25" height="25" fill="white" transform="translate(0.5 0.800781)"/>
</clipPath>
<clipPath id="clip2_0_6778">
<rect width="25" height="25" fill="white" transform="translate(0.5 0.800781)"/>
</clipPath>
</defs>
</svg>
