<svg width="25" height="26" viewBox="0 0 25 26" fill="none" xmlns="http://www.w3.org/2000/svg">
<g clip-path="url(#clip0_0_241)">
<g clip-path="url(#clip1_0_241)">
<g clip-path="url(#clip2_0_241)">
<path d="M19.09 25.1133H4.86015C3.59306 25.1133 2.54897 24.097 2.52101 22.8298L1.18445 15.7704V15.645C0.79472 14.5034 0.599609 13.3199 0.599609 12.0945C0.599609 5.92653 5.69558 0.900391 11.9752 0.900391C18.2406 0.900391 23.3508 5.92666 23.3508 12.0945C23.3508 13.3059 23.156 14.5034 22.7659 15.645V15.7704L21.4294 22.8298C21.3877 24.097 20.3571 25.1133 19.09 25.1133ZM2.29856 15.6731L3.6351 22.7183V22.774C3.6351 23.4564 4.17822 23.9992 4.86027 23.9992H19.0901C19.7724 23.9992 20.3154 23.4561 20.3154 22.774V22.7183L21.6519 15.6731V15.6315L21.6379 15.506L21.6796 15.3946C22.0556 14.3503 22.2364 13.2366 22.2364 12.1086C22.2364 6.55323 17.6419 2.02829 11.9752 2.02829C6.32239 2.02829 1.71405 6.55341 1.71405 12.1086C1.71405 13.2364 1.89516 14.3364 2.27091 15.3946L2.31263 15.506L2.29864 15.6315L2.29856 15.6731Z" fill="#222222"/>
<path d="M7.3811 10.243C6.25336 10.243 5.33429 9.32415 5.33429 8.19623C5.33429 7.06848 6.25317 6.14942 7.3811 6.14942C8.50885 6.14942 9.42791 7.0683 9.42791 8.19623C9.42791 9.32396 8.50903 10.243 7.3811 10.243ZM7.3811 7.27734C7.0478 7.27734 6.73981 7.45533 6.57317 7.74401C6.40653 8.03246 6.40653 8.38821 6.57317 8.67684C6.73983 8.96528 7.0478 9.14327 7.3811 9.14327C7.71416 9.14327 8.02215 8.96528 8.18879 8.67684C8.35543 8.38817 8.35543 8.0324 8.18879 7.74401C8.02214 7.45533 7.71416 7.27734 7.3811 7.27734ZM12.5742 13.2227C11.8642 13.2227 11.2794 12.6379 11.2794 11.9279C11.2794 11.2178 11.8642 10.633 12.5742 10.633C12.8805 10.633 13.1311 10.8836 13.1311 11.1898C13.1311 11.4961 12.8805 11.7467 12.5742 11.7467C12.4768 11.7467 12.3931 11.8302 12.3931 11.9278C12.3931 12.0253 12.4766 12.109 12.5742 12.109C12.8805 12.109 13.1311 12.3595 13.1311 12.6658C13.1311 12.9721 12.8805 13.2227 12.5742 13.2227ZM13.0199 3.26776C12.3099 3.26776 11.7251 2.68292 11.7251 1.97288C11.7251 1.66659 11.9756 1.41602 12.2819 1.41602C12.5883 1.41602 12.8387 1.66659 12.8387 1.97288C12.8387 2.07031 12.9222 2.154 13.0199 2.154C13.3262 2.154 13.5768 2.40458 13.5768 2.71087C13.5768 3.01715 13.3262 3.26776 13.0199 3.26776ZM21.9309 18.625C20.6501 18.625 19.9954 17.7198 19.4804 16.9959C18.9652 16.2719 18.6172 15.8264 17.9349 15.8264C17.2527 15.8264 16.9046 16.2719 16.3896 16.9959C15.8743 17.7198 15.2201 18.625 13.939 18.625C12.6581 18.625 12.0036 17.7198 11.4885 16.9959C10.9733 16.2719 10.6253 15.8264 9.94306 15.8264C9.26077 15.8264 8.91274 16.2719 8.39765 16.9959C7.88249 17.7198 7.22822 18.625 5.94711 18.625C4.66626 18.625 4.01168 17.7198 3.49659 16.9959C2.98145 16.2719 2.63346 15.8264 1.95117 15.8264V14.7125C3.23203 14.7125 3.8866 15.6176 4.4017 16.3416C4.91679 17.0657 5.26483 17.511 5.94711 17.511C6.62941 17.511 6.97743 17.0656 7.49253 16.3416C8.00764 15.6176 8.66196 14.7125 9.94306 14.7125C11.2239 14.7125 11.8785 15.6176 12.3936 16.3416C12.9086 17.0657 13.2567 17.511 13.939 17.511C14.6212 17.511 14.9693 17.0656 15.4845 16.3416C15.9996 15.6176 16.6539 14.7125 17.9349 14.7125C19.2158 14.7125 19.8704 15.6176 20.3855 16.3416C20.9005 17.0657 21.2486 17.511 21.9309 17.511V18.625Z" fill="#222222"/>
</g>
</g>
</g>
<defs>
<clipPath id="clip0_0_241">
<rect width="25" height="25" fill="white" transform="translate(0 0.5)"/>
</clipPath>
<clipPath id="clip1_0_241">
<rect width="25" height="25" fill="white" transform="translate(0 0.5)"/>
</clipPath>
<clipPath id="clip2_0_241">
<rect width="23.8095" height="25" fill="white" transform="translate(0.595703 0.5)"/>
</clipPath>
</defs>
</svg>
