<svg width="45" height="46" viewBox="0 0 45 46" fill="none" xmlns="http://www.w3.org/2000/svg">
<g clip-path="url(#clip0_0_1122)">
<g clip-path="url(#clip1_0_1122)">
<path d="M12.6153 43.8261C11.9348 43.8261 11.2648 43.6535 10.6693 43.3236C9.78282 42.8249 9.10809 42.02 8.77202 41.0602C8.43538 40.1001 8.46048 39.0501 8.84241 38.1073C8.93603 37.9066 8.86562 37.6674 8.67798 37.5498C7.88318 37.0163 7.2963 36.2258 7.01505 35.3115C6.73243 34.3961 6.77777 33.4108 7.14286 32.525C7.22967 32.3248 7.1554 32.0908 6.96925 31.977C6.17782 31.4407 5.59423 30.6498 5.31508 29.7355C5.03584 28.8216 5.0778 27.8391 5.43469 26.9522C5.53114 26.7497 5.45543 26.5066 5.26107 26.3947C4.46531 25.8647 3.88026 25.0728 3.60729 24.1565C3.33431 23.256 3.37579 22.2896 3.72592 21.4157C3.81997 21.2151 3.74907 20.9763 3.56147 20.8587C2.75221 20.3248 2.1551 19.5251 1.87299 18.5973C1.59134 17.6698 1.64246 16.673 2.01768 15.7789C2.10448 15.5788 2.03021 15.3448 1.84406 15.231C1.06035 14.7087 0.477322 13.9356 0.19027 13.038C-0.136229 12.0059 -0.0397791 10.8861 0.45842 9.92543C0.957097 8.96424 1.81701 8.2404 2.84904 7.91284C3.84206 7.60854 4.91508 7.70691 5.83624 8.18727C6.00937 8.27553 6.22158 8.22055 6.3296 8.05898C6.84469 7.11709 7.70647 6.41247 8.73233 6.09517C9.68479 5.8087 10.7082 5.86995 11.6193 6.26879C11.8237 6.37633 12.0769 6.29869 12.1859 6.09517C12.7347 5.21984 13.5923 4.58225 14.5886 4.30829C15.5846 4.03435 16.6475 4.14384 17.5667 4.61502C17.7413 4.69653 17.9492 4.62852 18.0417 4.45973C18.5463 3.52749 19.4008 2.83396 20.4175 2.5321C21.4336 2.23067 22.528 2.34546 23.4597 2.85184C24.3461 3.35052 25.0209 4.15549 25.357 5.11517C25.6936 6.07538 25.6685 7.12528 25.2866 8.06816C25.193 8.26879 25.2634 8.50801 25.451 8.62568C26.2463 9.15859 26.8331 9.94908 27.1129 10.8649C27.3926 11.7803 27.3478 12.7641 26.9861 13.6505C26.895 13.8507 26.9697 14.087 27.1597 14.1984C27.9506 14.7347 28.5348 15.5256 28.8139 16.4399C29.0931 17.3539 29.0512 18.3363 28.6943 19.2232C28.6007 19.4239 28.6711 19.6631 28.8588 19.7807C29.6535 20.3117 30.24 21.1011 30.5197 22.0152C30.7994 22.9291 30.755 23.9114 30.3938 24.7959C30.3056 24.9995 30.3793 25.2362 30.5674 25.3535C31.3594 25.8873 31.9435 26.6778 32.2207 27.5917C32.4971 28.4713 32.4648 29.4191 32.1296 30.2775C32.0621 30.4459 32.119 30.6388 32.2666 30.7434C33.1043 31.3496 33.6994 32.2336 33.9454 33.2377C34.1914 34.2418 34.0722 35.3004 33.6097 36.2249C33.1 37.2314 32.2029 37.9867 31.1246 38.317C30.1721 38.6035 29.1491 38.5423 28.2376 38.1433C28.0326 38.0412 27.7833 38.1173 27.6714 38.317C27.1505 39.1543 26.3475 39.7768 25.4076 40.0735C24.4676 40.3701 23.4524 40.3209 22.5457 39.9342C22.3413 39.8319 22.0919 39.9081 21.9795 40.1077C21.4302 40.9831 20.5731 41.6207 19.5768 41.8947C18.5804 42.1686 17.5179 42.0591 16.5982 41.5879C16.4208 41.5098 16.2134 41.5768 16.1141 41.7432C15.7706 42.3696 15.2662 42.8934 14.6527 43.2594C14.0393 43.6255 13.339 43.8213 12.6242 43.8261H12.6153ZM4.00041 9.53913C3.79014 9.5425 3.58131 9.57337 3.37875 9.63077C2.81255 9.81885 2.3433 10.2225 2.07325 10.7545C1.80319 11.2865 1.7535 11.9038 1.93531 12.4718C2.08193 12.984 2.40602 13.4278 2.84922 13.7234C3.28376 14.0133 3.60592 14.4439 3.76073 14.9431C3.91506 15.4423 3.89336 15.9795 3.69851 16.4641C3.49982 16.9609 3.47666 17.5107 3.63293 18.0223C3.7887 18.5341 4.1152 18.9773 4.55746 19.2783C4.99247 19.5676 5.31415 19.9983 5.46896 20.4974C5.62377 20.9966 5.60207 21.5338 5.40723 22.019C5.20033 22.5119 5.17429 23.0617 5.33392 23.5719C5.48681 24.0812 5.80946 24.523 6.24784 24.8234C6.68237 25.1133 7.00309 25.5445 7.15645 26.0441C7.30982 26.5438 7.2857 27.0805 7.08797 27.5642C6.88975 28.0595 6.86708 28.6078 7.02334 29.1181C7.1796 29.6284 7.50514 30.0696 7.94691 30.3692C8.38192 30.6591 8.7036 31.0896 8.85838 31.5883C9.01324 32.0875 8.99153 32.6248 8.79668 33.11C8.58978 33.6057 8.56422 34.1589 8.72337 34.672C8.87629 35.1813 9.19844 35.623 9.63732 35.9235C10.0743 36.211 10.3978 36.6421 10.5512 37.1428C10.7045 37.6429 10.6785 38.1811 10.4774 38.6643C10.2739 39.1615 10.2513 39.7147 10.4138 40.2268C10.5768 40.8673 11.0012 41.4108 11.5828 41.7248C12.0969 42.008 12.7031 42.0706 13.264 41.8985C13.8041 41.7344 14.2575 41.3631 14.5247 40.8664C14.7962 40.3672 15.251 39.9929 15.7931 39.8227C16.3346 39.6524 16.9216 39.6988 17.4299 39.9524C17.9647 40.2327 18.5878 40.292 19.1657 40.1169C19.6961 39.951 20.15 39.6013 20.4446 39.1302C20.7273 38.6594 21.1714 38.3079 21.6937 38.1396C22.2165 37.9717 22.7822 37.9993 23.2861 38.2168C23.7959 38.441 24.3694 38.4767 24.9033 38.3171C25.4343 38.169 25.8949 37.8352 26.2006 37.3761C26.4847 36.905 26.9303 36.5524 27.454 36.3846C27.9783 36.2167 28.5454 36.2442 29.0509 36.4626C29.5578 36.6879 30.1297 36.7207 30.6588 36.5539C31.2649 36.372 31.7704 35.9496 32.0563 35.3848C32.3563 34.7998 32.4156 34.1212 32.2208 33.4933C32.0689 32.9715 31.7472 32.5153 31.3074 32.1959C30.9061 31.9066 30.6124 31.4918 30.4721 31.0177C30.3318 30.5432 30.3525 30.0354 30.5309 29.5744C30.706 29.081 30.7108 28.5433 30.5454 28.0465C30.3799 27.5503 30.0529 27.1229 29.617 26.8336C29.1825 26.5437 28.8603 26.1131 28.7059 25.6138C28.5512 25.1147 28.5729 24.5774 28.7677 24.0928C28.9756 23.5918 29.0011 23.0332 28.8391 22.5158C28.677 21.9979 28.338 21.5537 27.8813 21.2604C27.4453 20.9721 27.1231 20.5409 26.9697 20.0407C26.8169 19.5411 26.842 19.0033 27.0407 18.5197C27.2404 18.0249 27.2625 17.4765 27.1048 16.9668C26.9548 16.4561 26.6317 16.0138 26.1914 15.7153C25.7569 15.4254 25.4357 14.9942 25.2822 14.4946C25.1294 13.9949 25.1535 13.4582 25.3508 12.9745C25.5495 12.4777 25.5731 11.9279 25.4168 11.4163C25.2605 10.9046 24.9341 10.4614 24.4918 10.1604C24.0573 9.87103 23.7351 9.44037 23.5804 8.94121C23.426 8.44204 23.4477 7.9048 23.6426 7.41964C23.8489 6.92675 23.875 6.37697 23.7154 5.86673C23.5369 5.28462 23.1409 4.79414 22.6099 4.49653C22.0963 4.21295 21.4896 4.15025 20.9288 4.32292C20.3891 4.48689 19.9358 4.85824 19.6681 5.355C19.3931 5.85319 18.937 6.226 18.394 6.39575C17.8514 6.56599 17.2639 6.52066 16.7538 6.26892C16.2228 5.98776 15.602 5.92892 15.0273 6.10447C14.4967 6.26988 14.0434 6.62003 13.7483 7.09073C13.4569 7.55419 13.0084 7.89709 12.4852 8.05673C11.9615 8.21589 11.3981 8.18116 10.8981 7.95883C10.3922 7.73022 9.82024 7.69454 9.29029 7.85852C8.71828 8.02587 8.23166 8.40494 7.92883 8.91808C7.65393 9.4182 7.19576 9.79292 6.65074 9.96317C6.10624 10.1334 5.51642 10.0861 5.00522 9.8315C4.70042 9.65162 4.3544 9.55071 4.00041 9.53913Z" fill="#222222"/>
<path d="M9.28127 15.6508H9.09845L8.92489 15.5959L8.76959 15.5138C8.71798 15.4815 8.67168 15.4415 8.63261 15.3952C8.54725 15.3117 8.47877 15.2124 8.43151 15.103C8.38762 14.9925 8.36592 14.8744 8.36737 14.7557C8.36496 14.6337 8.38666 14.5126 8.43151 14.3993C8.47877 14.2898 8.54725 14.1904 8.63261 14.1071C8.67168 14.0603 8.71798 14.0202 8.76959 13.9884L8.92489 13.9064L9.09845 13.8606C9.21572 13.8336 9.33774 13.8331 9.45492 13.8601L9.62848 13.9059L9.75633 13.9518C9.80601 13.986 9.8518 14.026 9.89327 14.0704C9.97869 14.1538 10.0472 14.2532 10.0944 14.3627C10.1393 14.476 10.161 14.597 10.1581 14.7191C10.1595 14.8377 10.1378 14.9559 10.0944 15.0663C10.0472 15.1758 9.97869 15.2751 9.89327 15.3585C9.8518 15.4029 9.80601 15.4429 9.75633 15.4772L9.60104 15.5592L9.42739 15.6141L9.28127 15.6508Z" fill="#222222"/>
<path d="M14.0858 14.1796C13.9633 14.1776 13.8427 14.1526 13.7294 14.1068C13.6127 14.0798 13.5032 14.0267 13.4096 13.9515C13.3633 13.912 13.3234 13.8661 13.291 13.8145L13.209 13.6592L13.154 13.4856C13.1492 13.4277 13.1492 13.3699 13.154 13.312C13.156 13.1895 13.181 13.0689 13.2268 12.9556C13.2712 12.8441 13.3397 12.7444 13.428 12.6634C13.5139 12.5809 13.6127 12.5128 13.7202 12.4622C13.8886 12.3947 14.0727 12.3788 14.2503 12.4164L14.4239 12.4622C14.4784 12.4873 14.5304 12.5181 14.5792 12.5533C14.6307 12.5823 14.6771 12.619 14.7161 12.6634C14.8015 12.7467 14.8699 12.8461 14.9172 12.9556C14.9606 13.0694 14.9824 13.1899 14.9809 13.312C14.98 13.5517 14.8849 13.7812 14.7161 13.9515C14.6771 13.9978 14.6307 14.0378 14.5792 14.0701C14.5324 14.1063 14.4799 14.1342 14.4239 14.1526C14.3689 14.1786 14.3105 14.1974 14.2503 14.2071L14.0858 14.1796Z" fill="#222222"/>
<path d="M18.8916 12.7095H18.718C18.6578 12.7013 18.5989 12.683 18.5444 12.6551C18.4884 12.6367 18.4359 12.6087 18.3891 12.5726L18.2522 12.4631C18.0775 12.2923 17.9792 12.0584 17.9782 11.8144C17.9734 11.7537 17.9734 11.6924 17.9782 11.6316L18.0332 11.4672L18.1151 11.3027L18.2338 11.1657C18.2733 11.1223 18.3197 11.0852 18.3707 11.0563C18.4176 11.0201 18.4701 10.9921 18.526 10.9738C18.5806 10.9463 18.6394 10.9275 18.6997 10.9193C18.8781 10.8846 19.0623 10.9034 19.2297 10.9738C19.3387 11.0187 19.438 11.0838 19.5219 11.1657L19.6406 11.3027L19.7226 11.4672C19.7264 11.5221 19.7269 11.5771 19.7231 11.6316C19.7322 11.6924 19.7322 11.7537 19.7231 11.8144C19.7245 12.0575 19.6291 12.2909 19.4583 12.4631C19.3739 12.545 19.2745 12.6102 19.1656 12.6551C19.0773 12.6859 18.9852 12.7047 18.8916 12.7095Z" fill="#222222"/>
<path d="M11.2348 22.0549C10.9903 22.054 10.7569 21.9556 10.5862 21.781C10.5423 21.7414 10.5056 21.6951 10.4762 21.644C10.44 21.5972 10.4125 21.5447 10.3942 21.4887C10.3663 21.4342 10.3479 21.3753 10.3392 21.3151C10.3349 21.2572 10.3349 21.1993 10.3392 21.1414C10.3426 20.8998 10.4371 20.6679 10.6045 20.4928C10.8201 20.2791 11.1282 20.1866 11.4262 20.2464C11.4837 20.2705 11.5363 20.3047 11.5815 20.3467C11.638 20.365 11.6906 20.3929 11.7374 20.4291C11.7884 20.4581 11.8348 20.4952 11.8743 20.5386C11.9645 20.6211 12.0335 20.7248 12.0749 20.84C12.1217 20.95 12.1468 21.0677 12.1483 21.1873C12.1448 21.4279 12.0464 21.658 11.8743 21.8268C11.8348 21.8731 11.7884 21.9131 11.7374 21.9454C11.6905 21.9816 11.638 22.0096 11.5815 22.0279C11.5275 22.0554 11.4687 22.0742 11.4084 22.0824L11.2348 22.0549Z" fill="#222222"/>
<path d="M16.041 20.5859H15.8582C15.8008 20.5758 15.7453 20.5574 15.6937 20.531C15.6354 20.5107 15.5804 20.4831 15.5293 20.4485C15.4815 20.4147 15.4357 20.3785 15.3923 20.339C15.3074 20.2531 15.2423 20.1504 15.2004 20.0375C15.1025 19.8162 15.1025 19.5644 15.2004 19.343C15.2438 19.2312 15.3088 19.1285 15.3923 19.0416L15.5293 18.9321L15.6937 18.8502C15.7453 18.8241 15.8008 18.8048 15.8582 18.7952C16.1563 18.7354 16.4645 18.828 16.6805 19.0416C16.8546 19.2128 16.9535 19.4463 16.9544 19.6903C16.9544 19.9329 16.8584 20.1649 16.6867 20.3366C16.5156 20.5078 16.2831 20.6038 16.041 20.6038V20.5859Z" fill="#222222"/>
<path d="M20.8467 19.1126C20.6037 19.1141 20.3703 19.0185 20.1981 18.8474C20.0269 18.6752 19.9319 18.4417 19.9333 18.1987C19.9285 18.1413 19.9285 18.083 19.9333 18.0251C19.9415 17.9648 19.9603 17.906 19.9879 17.852C20.0061 17.7955 20.0341 17.743 20.0703 17.6962C20.1017 17.6441 20.1383 17.5954 20.1798 17.55L20.3167 17.4405C20.3689 17.4078 20.4238 17.3803 20.4812 17.3586C20.5347 17.3359 20.5897 17.3176 20.6457 17.3036C20.9177 17.2482 21.2003 17.319 21.4135 17.497C21.6267 17.6745 21.7476 17.9397 21.7419 18.217C21.7399 18.3396 21.7149 18.4601 21.6691 18.5735C21.6247 18.6848 21.5562 18.7847 21.4679 18.8657C21.2997 19.0234 21.0772 19.1116 20.8467 19.1126Z" fill="#222222"/>
<path d="M13.1902 28.4593C13.0705 28.4623 12.9514 28.4371 12.8434 28.386C12.7344 28.3416 12.635 28.2765 12.5507 28.1941C12.4605 28.1116 12.3915 28.0079 12.35 27.8926C12.3032 27.7827 12.2782 27.665 12.2767 27.5454C12.2724 27.488 12.2724 27.4296 12.2767 27.3718C12.2897 27.3125 12.3081 27.2546 12.3317 27.1982C12.3534 27.1437 12.3809 27.0916 12.4137 27.0429C12.4484 26.9903 12.4879 26.9416 12.5328 26.8968C12.6167 26.8147 12.7161 26.7497 12.8251 26.7053C13.0498 26.6113 13.3035 26.6113 13.5282 26.7053C13.6372 26.7497 13.7365 26.8147 13.821 26.8968C13.8654 26.9392 13.902 26.9889 13.9305 27.0429C13.9657 27.0916 13.9965 27.1437 14.0216 27.1982C14.0269 27.2561 14.0269 27.3144 14.0216 27.3718C14.0308 27.4296 14.0308 27.488 14.0216 27.5454C14.023 27.6645 14.0013 27.7822 13.9579 27.8926C13.9116 28.0055 13.8431 28.1083 13.7568 28.1941C13.6049 28.3465 13.4042 28.44 13.1902 28.4593Z" fill="#222222"/>
<path d="M17.9764 26.9897C17.9186 26.9984 17.8601 26.9984 17.8028 26.9897H17.6291C17.5746 26.9642 17.5226 26.9337 17.4739 26.8981C17.4208 26.8721 17.3741 26.8349 17.3369 26.7886C17.2487 26.7076 17.1797 26.6078 17.1358 26.4964C17.0899 26.383 17.0649 26.2624 17.0625 26.14C17.0664 25.8988 17.1648 25.6692 17.3369 25.5004C17.376 25.4541 17.4222 25.4142 17.4739 25.3818L17.6291 25.2998C17.6851 25.2762 17.7435 25.2574 17.8028 25.2448C18.1023 25.1875 18.4109 25.2834 18.6251 25.5004C18.7939 25.6707 18.8889 25.9002 18.8899 26.14C18.8908 26.2615 18.8691 26.3825 18.8257 26.4964C18.7784 26.6059 18.7105 26.7052 18.6251 26.7886C18.4428 26.9367 18.2102 27.0085 17.9764 26.9897Z" fill="#222222"/>
<path d="M22.8013 25.5279H22.6277L22.4541 25.4729L22.2988 25.391L22.1527 25.2723C22.0702 25.1884 22.0051 25.0886 21.9607 24.9796C21.8257 24.6444 21.9009 24.2615 22.1527 24.002L22.2988 23.8834L22.4541 23.8013L22.6277 23.7464C22.9301 23.6856 23.2431 23.7821 23.4591 24.002C23.5412 24.0884 23.6091 24.1867 23.6598 24.2947C23.7046 24.4076 23.7268 24.5291 23.7239 24.6507C23.7254 24.7698 23.7037 24.8875 23.6598 24.9979C23.6091 25.1054 23.5412 25.2044 23.4591 25.2901C23.2798 25.4536 23.0435 25.539 22.8013 25.5279Z" fill="#222222"/>
<path d="M15.1557 34.863C14.6512 34.863 14.2423 34.454 14.2423 33.9495C14.2408 33.8304 14.2625 33.7128 14.3064 33.6023C14.3537 33.4924 14.4216 33.393 14.507 33.3095L14.644 33.1909L14.7993 33.109L14.9729 33.0539C15.1513 33.0192 15.3356 33.0386 15.503 33.109C15.7224 33.2068 15.8984 33.3824 15.9963 33.6023C16.0431 33.7118 16.0682 33.8299 16.0696 33.9495C16.0686 34.1936 15.9698 34.427 15.7952 34.5977C15.7117 34.6835 15.6124 34.7516 15.503 34.7988C15.3925 34.8427 15.2748 34.8644 15.1557 34.863Z" fill="#222222"/>
<path d="M19.9604 33.4022C19.7164 33.4012 19.4829 33.3024 19.3117 33.1282C19.2263 33.0448 19.1584 32.9454 19.1111 32.8355C19.0672 32.725 19.0455 32.6073 19.0469 32.4887C19.0455 32.2456 19.141 32.0123 19.3117 31.84L19.4487 31.7306L19.604 31.6395H19.7776C20.0757 31.5797 20.3843 31.6718 20.5999 31.8854C20.6443 31.9269 20.6842 31.9727 20.719 32.0223C20.7518 32.0716 20.7793 32.1232 20.801 32.1782C20.8275 32.2326 20.8458 32.2914 20.8559 32.3513C20.8603 32.4125 20.8603 32.4733 20.8559 32.5341C20.8559 32.7767 20.7595 33.0091 20.5883 33.1803C20.4171 33.3515 20.1846 33.4479 19.9425 33.4479L19.9604 33.4022Z" fill="#222222"/>
<path d="M24.7656 31.9315C24.5211 31.9306 24.2876 31.8316 24.1169 31.6576C23.9481 31.4874 23.8526 31.2578 23.8516 31.018C23.8502 30.8989 23.8719 30.7813 23.9158 30.6708C23.9621 30.558 24.0301 30.4553 24.1169 30.3694C24.4728 30.0149 25.0486 30.0149 25.4051 30.3694C25.4953 30.4518 25.5643 30.5556 25.6057 30.6708C25.6525 30.7808 25.6776 30.8985 25.6791 31.018C25.6791 31.2601 25.5826 31.4926 25.4114 31.6638C25.2402 31.835 25.0077 31.9315 24.7656 31.9315Z" fill="#222222"/>
<path d="M32.1647 43.8174C31.7751 43.8164 31.3878 43.7615 31.0136 43.6529C30.0158 43.3476 29.179 42.6619 28.6837 41.7436C28.5882 41.5782 28.3862 41.5082 28.2086 41.5791C27.2889 42.0552 26.2232 42.1671 25.2243 41.8931C24.2255 41.6187 23.3665 40.9782 22.8188 40.0991C22.7946 40.0522 22.7604 40.0117 22.7179 39.9804C22.6422 39.9225 22.5482 39.8931 22.4532 39.8984C22.39 39.8859 22.3244 39.8859 22.2612 39.8984L21.914 40.0354C21.6435 40.1236 21.3474 40.0812 21.1125 39.9201C20.8776 39.759 20.7315 39.4971 20.7174 39.2131C20.7016 38.7911 20.9774 38.413 21.3844 38.2997L21.5581 38.2264C21.845 38.0961 22.1566 38.0306 22.4715 38.0344C22.9475 38.0108 23.4177 38.1497 23.8055 38.4275C24.0669 38.6011 24.2854 38.8326 24.445 39.1036C24.7344 39.5714 25.1867 39.9163 25.7148 40.0716C26.2912 40.2505 26.9147 40.1946 27.4506 39.9163C27.9594 39.6674 28.5449 39.6231 29.0855 39.7933C29.6261 39.9636 30.0809 40.3344 30.3558 40.8302C30.6293 41.326 31.0846 41.6959 31.6256 41.8623C32.1938 42.0176 32.7999 41.9423 33.3131 41.6529C33.8258 41.364 34.2044 40.8846 34.3664 40.3184C34.528 39.8062 34.5054 39.2535 34.3022 38.7564C34.105 38.2726 34.081 37.7354 34.2343 37.2363C34.3871 36.7366 34.7084 36.3055 35.1429 36.0156C35.5788 35.7084 35.9005 35.2648 36.0564 34.7549C36.2107 34.2438 36.1851 33.6959 35.9835 33.2016C35.7853 32.7173 35.7617 32.1786 35.9165 31.679C36.0718 31.1789 36.3954 30.7482 36.8333 30.4608C37.2678 30.1555 37.588 29.7137 37.7419 29.2049C37.8962 28.6966 37.875 28.1511 37.6825 27.6563C37.4844 27.1735 37.4588 26.6373 37.6103 26.1376C37.7617 25.6384 38.0809 25.2068 38.514 24.9155C38.9616 24.6237 39.2867 24.1785 39.4275 23.6634C39.59 23.1513 39.5673 22.5986 39.3638 22.1014C39.1656 21.6171 39.1419 21.0785 39.2967 20.5789C39.452 20.0788 39.7757 19.6481 40.2136 19.3606C40.6491 19.0573 40.9707 18.6164 41.127 18.1091C41.2789 17.5974 41.25 17.0485 41.0446 16.5561C40.8506 16.07 40.8304 15.5323 40.9867 15.0331C41.1434 14.5334 41.467 14.1037 41.9035 13.8154C42.3452 13.5178 42.6684 13.0751 42.8169 12.5633C43.0059 11.9759 42.95 11.3369 42.6616 10.791C42.3872 10.2831 41.9247 9.90312 41.3734 9.73143C40.8366 9.56455 40.2549 9.61713 39.7562 9.87755C39.2441 10.1327 38.6533 10.1799 38.1069 10.0097C37.5605 9.83945 37.1009 9.46472 36.824 8.96412C36.5404 8.43987 36.0606 8.04875 35.49 7.87706C34.9566 7.71309 34.3817 7.74876 33.8729 7.97737C33.3737 8.19536 32.8128 8.22767 32.2919 8.06852C31.7706 7.90937 31.324 7.56936 31.0317 7.10928C30.7366 6.6077 30.262 6.23731 29.7035 6.07286C29.1455 5.9084 28.5456 5.96194 28.0256 6.22333C27.5135 6.47123 26.9266 6.51464 26.3835 6.34488C25.8404 6.17511 25.3823 5.8052 25.102 5.30943C24.8349 4.81268 24.3815 4.44132 23.8413 4.27735C23.4425 4.15388 23.0162 4.15388 22.6173 4.27735C22.1331 4.41865 21.6257 4.14037 21.4845 3.65617C21.3431 3.17148 21.6214 2.66462 22.1057 2.5233C22.8474 2.29952 23.6388 2.29952 24.3805 2.5233C25.3764 2.831 26.2127 3.51632 26.7099 4.43266C26.8064 4.6029 27.0147 4.67331 27.1942 4.59711C28.1452 4.09555 29.2563 3.9933 30.2822 4.31401C31.242 4.60048 32.0638 5.22745 32.5938 6.07719C32.7091 6.27348 32.9574 6.34535 33.16 6.24164C34.1106 5.82833 35.1812 5.78734 36.1607 6.12542C37.1403 6.46398 37.9573 7.15701 38.4502 8.06848C38.5548 8.2286 38.7637 8.28406 38.9343 8.19677C39.8671 7.71111 40.9546 7.61563 41.9582 7.93056C42.9618 8.24597 43.7995 8.94576 44.2877 9.87757C44.8104 10.847 44.9257 11.9841 44.6073 13.0385C44.3272 13.9538 43.7441 14.7463 42.9541 15.2859C42.7592 15.3978 42.6835 15.6409 42.7804 15.8434C43.1311 16.7163 43.1764 17.6824 42.9083 18.5841C42.6247 19.5 42.0382 20.2924 41.2453 20.8316C41.0544 20.9464 40.9825 21.1884 41.0809 21.3891C41.4219 22.2644 41.4638 23.2281 41.1995 24.1298C40.9227 25.0514 40.3309 25.8467 39.528 26.3773C39.3461 26.4906 39.2762 26.7206 39.3635 26.9159C39.731 27.8014 39.7734 28.7886 39.4821 29.7025C39.2082 30.6179 38.6275 31.4117 37.8376 31.9499C37.6433 32.0618 37.5676 32.3044 37.664 32.507C38.0218 33.3789 38.0667 34.3468 37.7923 35.2477C37.5087 36.1616 36.9222 36.9511 36.1293 37.4864C35.9417 37.6036 35.868 37.8404 35.9558 38.0435C36.4771 39.3138 36.3343 40.7601 35.5748 41.9046C34.8152 43.0485 33.5376 43.7411 32.1646 43.7537L32.1647 43.8174Z" fill="#222222"/>
<path d="M35.5195 15.6524H35.3368L35.1723 15.5975L35.0078 15.5155L34.8709 15.3968C34.7884 15.3105 34.7204 15.2121 34.6698 15.1046C34.6259 14.9941 34.6042 14.876 34.6057 14.7573C34.6032 14.6352 34.6249 14.5142 34.6698 14.4009C34.7204 14.2933 34.7884 14.1945 34.8709 14.1087L35.0078 13.99L35.1723 13.908L35.3368 13.8622C35.5138 13.8246 35.6985 13.84 35.8668 13.9076L36.0221 13.9895C36.0736 14.0214 36.1195 14.0619 36.159 14.1087C36.2473 14.1897 36.3157 14.2895 36.3601 14.4009C36.4079 14.5138 36.433 14.6348 36.433 14.7573C36.4315 14.8764 36.4069 14.9946 36.3601 15.1046C36.3157 15.2155 36.2473 15.3158 36.159 15.3968C36.1195 15.4431 36.0737 15.4831 36.0221 15.5155L35.8668 15.5975C35.7554 15.638 35.6377 15.6568 35.5195 15.6524Z" fill="#222222"/>
<path d="M30.7127 14.1799C30.2078 14.1799 29.7988 13.7709 29.7988 13.2664C29.7973 13.0238 29.8929 12.7904 30.0641 12.6177C30.2353 12.4446 30.4692 12.3477 30.7127 12.3477C30.9563 12.3477 31.1897 12.4446 31.3614 12.6177C31.4434 12.7021 31.5085 12.801 31.5529 12.91C31.6011 13.0228 31.6257 13.1439 31.6262 13.2664C31.6247 13.386 31.5996 13.5037 31.5529 13.6137C31.5066 13.724 31.442 13.8263 31.3614 13.9151C31.1863 14.0819 30.9544 14.1764 30.7127 14.1799Z" fill="#222222"/>
<path d="M33.5632 22.0551H33.3804C33.3215 22.041 33.2632 22.0228 33.2068 22.0005C33.1523 21.9784 33.1002 21.9509 33.0515 21.9181L32.9145 21.8086C32.74 21.6379 32.6416 21.404 32.6406 21.1599C32.6416 20.9159 32.74 20.682 32.9145 20.5113C32.9493 20.4481 32.9956 20.3922 33.0515 20.3468C33.0983 20.3107 33.1509 20.2827 33.2068 20.2649C33.2618 20.2383 33.3201 20.2195 33.3804 20.2099C33.6524 20.1544 33.935 20.2253 34.1482 20.4033C34.3614 20.5807 34.4825 20.846 34.4766 21.1233C34.4757 21.3674 34.3768 21.6013 34.2027 21.772C34.0354 21.9475 33.8053 22.0492 33.5632 22.0551Z" fill="#222222"/>
</g>
</g>
<defs>
<clipPath id="clip0_0_1122">
<rect width="45" height="45" fill="white" transform="translate(0 0.589844)"/>
</clipPath>
<clipPath id="clip1_0_1122">
<rect width="45" height="41.4706" fill="white" transform="translate(0 2.35547)"/>
</clipPath>
</defs>
</svg>
