<svg width="26" height="26" viewBox="0 0 26 26" fill="none" xmlns="http://www.w3.org/2000/svg">
<g clip-path="url(#clip0_0_6749)">
<g clip-path="url(#clip1_0_6749)">
<g clip-path="url(#clip2_0_6749)">
<path fill-rule="evenodd" clip-rule="evenodd" d="M25.4023 24.1113C25.4658 24.1699 25.5 24.248 25.5 24.3311C25.5 24.4141 25.4658 24.4922 25.4023 24.5459C25.3389 24.5996 25.2559 24.6289 25.1777 24.6191H0.719727C0.573242 24.5996 0.46582 24.4775 0.46582 24.3311C0.46582 24.1846 0.573242 24.0625 0.719727 24.043H2.26758V2.31445C2.26758 2.1582 2.39453 2.03125 2.55078 2.03125H3.77637C3.85449 2.03125 3.92773 2.06055 3.98145 2.11914C4.03516 2.17285 4.06445 2.25098 4.05957 2.3291V4.50195H5.32422V4.32129C5.32422 4.04297 5.43652 3.76953 5.63672 3.57422C5.8418 3.37891 6.11523 3.2666 6.39355 3.27148H7.31152C7.58984 3.27637 7.8584 3.38379 8.05371 3.58398C8.24902 3.7793 8.36133 4.04297 8.36133 4.32129V4.47266H21.833V2.31445C21.833 2.1582 21.9648 2.03125 22.1211 2.03125H23.3418C23.4199 2.03125 23.4932 2.06055 23.5469 2.11914C23.6006 2.17285 23.6348 2.25098 23.6299 2.3291V24.043H25.1729C25.2559 24.0332 25.3389 24.0576 25.4023 24.1113ZM4.05957 11.1768V15.5078H5.32422V15.332C5.32422 15.0488 5.43652 14.7803 5.63672 14.5801C5.8418 14.3848 6.11523 14.2773 6.39355 14.2822H7.31152C7.58984 14.2822 7.8584 14.3945 8.05371 14.5898C8.24902 14.7852 8.36133 15.0537 8.36133 15.332V15.4736H15.1094V14.5557C15.1061 14.5459 15.1061 14.5361 15.1094 14.5264V11.1768H4.05957ZM15.7002 11.1768V11.8262H19.9971V11.1768H15.7002ZM20.5684 11.1768V15.4932H21.8281V11.1768H20.5684ZM4.05957 21.6064H10.1973V16.0693H4.05957V21.6064ZM7.73145 15.3271C7.73145 15.2051 7.68262 15.0879 7.59473 15.0049C7.50684 14.917 7.39453 14.8682 7.27246 14.8682H6.35449C6.10059 14.8682 5.89551 15.0732 5.89551 15.3271V15.4932H7.77051L7.73145 15.3271ZM10.7881 21.6064H21.833V16.0645H10.7881V21.6064ZM15.7002 14.2627H20.0166V13.6182H15.7002V14.2627ZM20.0166 12.3975H15.7002V13.0322H19.9971L20.0166 12.3975ZM15.7051 15.4932H20.0166V14.8389H15.7051V15.4932ZM4.06445 24.043H21.833V22.1729H4.08398L4.06445 24.043ZM10.7881 10.6006H21.833V5.06348H10.7881V10.6006ZM5.89551 4.50195H7.73145V4.32129C7.73145 4.19922 7.68262 4.08203 7.59473 3.99902C7.51172 3.91113 7.39453 3.8623 7.27246 3.8623H6.35449C6.10059 3.8623 5.89551 4.06738 5.89551 4.32129V4.50195ZM4.06445 5.06348V10.6006H10.1973V5.06348H4.06445ZM2.86328 24.043H3.5127V2.61719H2.86328V24.043ZM22.4287 24.043H23.0439V2.61719H22.4287V24.043Z" fill="black"/>
</g>
</g>
</g>
<defs>
<clipPath id="clip0_0_6749">
<rect width="25" height="25" fill="white" transform="translate(0.5 0.800781)"/>
</clipPath>
<clipPath id="clip1_0_6749">
<rect width="25" height="25" fill="white" transform="translate(0.5 0.800781)"/>
</clipPath>
<clipPath id="clip2_0_6749">
<rect width="25" height="25" fill="white" transform="translate(0.5 0.800781)"/>
</clipPath>
</defs>
</svg>
