<svg width="45" height="26" viewBox="0 0 45 26" fill="none" xmlns="http://www.w3.org/2000/svg">
<g clip-path="url(#clip0_0_1219)">
<rect width="45" height="25" transform="translate(0 0.380859)" fill="white"/>
<g clip-path="url(#clip1_0_1219)">
<path d="M31.7583 11.0972C32.0916 10.6126 32.2872 10.0258 32.2872 9.39318C32.2872 7.73055 30.9394 6.38281 29.2768 6.38281H15.8068C14.1442 6.38276 12.7965 7.73055 12.7965 9.39318C12.7965 10.0186 12.9872 10.5993 13.3137 11.0807C11.8191 11.4047 10.6992 12.7341 10.6992 14.3258C10.6992 15.3897 11.2 16.3361 11.9781 16.9439L11.9668 16.9092L11.9672 16.3887C11.9672 15.2252 12.9103 14.2821 14.0738 14.2821C15.2372 14.2821 16.1803 15.2253 16.1803 16.3887C16.1803 15.2252 17.1234 14.2821 18.2868 14.2821C19.4502 14.2821 20.3933 15.2253 20.3933 16.3887C20.3933 15.2252 21.3364 14.2821 22.4999 14.2821C23.6633 14.2821 24.6064 15.2253 24.6064 16.3887C24.6064 15.2252 25.5495 14.2821 26.7129 14.2821C27.8763 14.2821 28.8195 15.2253 28.8195 16.3887C28.8195 15.2252 29.7625 14.2821 30.926 14.2821C32.0894 14.2821 33.0325 15.2253 33.0325 16.3887L33.0329 16.9092L33.0216 16.9439C33.7997 16.3361 34.3006 15.3897 34.3006 14.3258C34.301 12.7597 33.2168 11.4477 31.7583 11.0972Z" fill="#F4D098"/>
<path d="M32.7447 10.7128C32.9039 10.2949 32.9862 9.84954 32.9862 9.39412C32.9862 7.34868 31.3221 5.68458 29.2766 5.68458H22.4999C21.5362 5.68458 20.7522 4.90056 20.7522 3.93689C20.7522 2.97322 21.5362 2.1892 22.4999 2.1892C23.4635 2.1892 24.2475 2.97322 24.2475 3.93689C24.2475 4.32293 24.5605 4.63596 24.9466 4.63596C25.3326 4.63596 25.6457 4.32293 25.6457 3.93689C25.6457 2.20223 24.2345 0.791016 22.4998 0.791016C20.7652 0.791016 19.3539 2.20223 19.3539 3.93689C19.3539 4.58318 19.55 5.18439 19.8855 5.68458H15.8067C13.7613 5.68458 12.0972 7.34868 12.0972 9.39412C12.0972 9.83801 12.1754 10.2727 12.3267 10.6815C10.9392 11.3307 10 12.7487 10 14.3267C10 15.4938 10.4952 16.5813 11.3665 17.3458L13.4751 24.4711C13.563 24.768 13.8357 24.9717 14.1454 24.9717H30.8545C31.1695 24.9717 31.4455 24.7611 31.5288 24.4574L32.7053 20.1597C32.8073 19.7873 32.588 19.4028 32.2157 19.3008C31.843 19.199 31.4587 19.418 31.3567 19.7904L30.3211 23.5737H14.6676L12.6659 16.8092L12.6662 16.3897C12.6662 15.6136 13.2976 14.9822 14.0737 14.9822C14.8498 14.9822 15.4812 15.6136 15.4812 16.3897C15.4812 16.7757 15.7942 17.0887 16.1803 17.0887C16.5663 17.0887 16.8793 16.7757 16.8793 16.3897C16.8793 15.6136 17.5107 14.9822 18.2868 14.9822C19.0629 14.9822 19.6943 15.6136 19.6943 16.3897V19.6953C19.6943 20.0814 20.0073 20.3945 20.3934 20.3945C20.7794 20.3945 21.0924 20.0814 21.0924 19.6953V16.3897C21.0924 15.6136 21.7238 14.9822 22.4999 14.9822C23.276 14.9822 23.9074 15.6136 23.9074 16.3897C23.9074 16.7757 24.2204 17.0887 24.6064 17.0887C24.9925 17.0887 25.3055 16.7757 25.3055 16.3897C25.3055 15.6136 25.9368 14.9822 26.713 14.9822C26.7615 14.9822 26.8095 14.9847 26.8567 14.9895C27.5505 15.0601 28.0952 15.6372 28.1182 16.3438C28.1172 16.359 28.1159 16.3742 28.1159 16.3897V19.6953C28.1159 20.0814 28.4289 20.3945 28.8149 20.3945C29.201 20.3945 29.514 20.0814 29.514 19.6953V16.4684C29.517 16.4425 29.5187 16.4162 29.5187 16.3897C29.5187 15.6621 30.0736 15.0617 30.7824 14.9895C30.8297 14.9847 30.8776 14.9822 30.9262 14.9822C31.7023 14.9822 32.3336 15.6136 32.3336 16.3902L32.3339 16.82C32.2858 17.0855 32.395 17.359 32.6205 17.5172C32.7413 17.6017 32.8816 17.6439 33.0217 17.6439C33.174 17.6439 33.3261 17.5942 33.4522 17.4958C34.4357 16.7274 34.9999 15.5724 34.9999 14.3267C34.9998 12.7589 34.1059 11.3736 32.7447 10.7128ZM28.8197 14.5384C28.3051 13.9536 27.5515 13.584 26.7132 13.584C25.8747 13.584 25.1211 13.9536 24.6065 14.5384C24.092 13.9536 23.3383 13.584 22.5 13.584C21.6616 13.584 20.908 13.9536 20.3934 14.5384C19.8789 13.9536 19.1252 13.584 18.2868 13.584C17.4485 13.584 16.6949 13.9536 16.1803 14.5384C15.6657 13.9536 14.9121 13.584 14.0737 13.584C14.0115 13.584 13.9501 13.5869 13.8889 13.5909C13.8725 13.5919 13.8561 13.5933 13.8398 13.5946C13.7876 13.5989 13.7358 13.6045 13.6845 13.6117C13.6752 13.613 13.6658 13.6139 13.6566 13.6153C13.5975 13.624 13.5392 13.6351 13.4814 13.6476C13.4665 13.6508 13.4518 13.6544 13.437 13.6578C13.3901 13.6687 13.3436 13.6808 13.2976 13.6941C13.2846 13.6978 13.2716 13.7012 13.2588 13.7051C13.2031 13.7221 13.1481 13.7407 13.0939 13.761C13.0818 13.7654 13.0698 13.7705 13.0576 13.7753C13.0135 13.7926 12.9698 13.8108 12.9268 13.8302C12.9128 13.8365 12.8988 13.8427 12.8849 13.8491C12.8328 13.8736 12.7814 13.8994 12.7311 13.9269C12.7236 13.931 12.7163 13.9354 12.7089 13.9397C12.6652 13.964 12.6224 13.9897 12.5802 14.0164C12.5665 14.0251 12.5529 14.0337 12.5394 14.0425C12.4938 14.0724 12.4489 14.1033 12.4053 14.1357C12.4025 14.1377 12.3996 14.1395 12.397 14.1415C12.3512 14.1757 12.3068 14.2117 12.2633 14.2487C12.2511 14.259 12.239 14.2696 12.227 14.2801C12.191 14.3116 12.1558 14.3441 12.1214 14.3774C12.1138 14.3848 12.1058 14.392 12.0983 14.3995C12.0581 14.4394 12.0192 14.4807 11.9815 14.5229C11.9716 14.534 11.962 14.5454 11.9523 14.5566C11.9222 14.5914 11.8929 14.627 11.8645 14.6632C11.856 14.674 11.8472 14.6849 11.8388 14.6959C11.8044 14.7411 11.7713 14.7874 11.7397 14.8347C11.7329 14.8449 11.7266 14.8552 11.72 14.8654C11.6942 14.9051 11.6694 14.9454 11.6456 14.9864C11.638 14.9997 11.6303 15.0127 11.6228 15.0261C11.5947 15.0764 11.5677 15.1275 11.5427 15.1797L11.5408 15.1833C11.4472 14.9119 11.3981 14.6232 11.3981 14.3266C11.3981 13.1241 12.2343 12.0646 13.3956 11.7807H23.3738C23.7598 11.7807 24.0728 11.4676 24.0728 11.0816C24.0728 10.6956 23.7598 10.3825 23.3738 10.3825H13.7171C13.5716 10.0756 13.4954 9.73954 13.4954 9.39418C13.4954 8.11976 14.5323 7.08282 15.8068 7.08282H29.2767C30.5511 7.08282 31.588 8.11967 31.588 9.39418C31.588 9.8638 31.4477 10.316 31.1823 10.7019C31.0517 10.8917 31.0229 11.1335 31.1054 11.3485C31.1879 11.5635 31.371 11.7241 31.5948 11.7779C32.7765 12.062 33.6017 13.1101 33.6017 14.3267C33.6017 14.6233 33.5526 14.912 33.4591 15.1835L33.457 15.1795C33.4321 15.1276 33.4053 15.0767 33.3773 15.0267C33.3697 15.013 33.3617 14.9995 33.3538 14.986C33.3303 14.9454 33.3059 14.9057 33.2803 14.8664C33.2735 14.8559 33.267 14.8451 33.2599 14.8347C33.2285 14.7875 33.1954 14.7415 33.1613 14.6964C33.1526 14.685 33.1436 14.6739 33.1348 14.6627C33.1066 14.6269 33.0777 14.5917 33.0479 14.5573C33.038 14.5458 33.0283 14.5341 33.018 14.5228C32.9804 14.4807 32.9417 14.4397 32.9017 14.3999C32.8938 14.3921 32.8855 14.3846 32.8776 14.3769C32.8436 14.3439 32.8088 14.312 32.7733 14.2807C32.761 14.27 32.7487 14.2591 32.7362 14.2485C32.6927 14.2119 32.6486 14.1759 32.603 14.1419C32.5998 14.1395 32.5964 14.1373 32.5934 14.1349C32.5501 14.1028 32.5058 14.0724 32.4608 14.0429C32.447 14.0339 32.4333 14.0251 32.4193 14.0163C32.3775 13.9899 32.335 13.9645 32.2917 13.9403C32.2839 13.9359 32.2763 13.9312 32.2685 13.9269C32.2184 13.8995 32.1672 13.8739 32.1152 13.8495C32.1012 13.8428 32.0868 13.8365 32.0726 13.8302C32.0299 13.811 31.9865 13.7927 31.9426 13.7757C31.9303 13.7708 31.9182 13.7658 31.9059 13.7611C31.8517 13.7409 31.7968 13.7223 31.7413 13.7053C31.7284 13.7014 31.7152 13.698 31.7022 13.6942C31.6563 13.681 31.6099 13.669 31.5632 13.658C31.5483 13.6545 31.5335 13.6509 31.5185 13.6476C31.4607 13.6352 31.4024 13.6242 31.3434 13.6153C31.3341 13.6139 31.3248 13.613 31.3154 13.6119C31.2641 13.6047 31.2123 13.599 31.16 13.5947C31.1437 13.5933 31.1274 13.592 31.111 13.5909C31.0498 13.587 30.9884 13.5841 30.9262 13.5841C30.0878 13.584 29.3341 13.9536 28.8197 14.5384Z" fill="#D99F46"/>
</g>
</g>
<defs>
<clipPath id="clip0_0_1219">
<rect width="45" height="25" fill="white" transform="translate(0 0.380859)"/>
</clipPath>
<clipPath id="clip1_0_1219">
<rect width="45" height="25" fill="white" transform="translate(0 0.380859)"/>
</clipPath>
</defs>
</svg>
