<svg width="25" height="26" viewBox="0 0 25 26" fill="none" xmlns="http://www.w3.org/2000/svg">
<g clip-path="url(#clip0_0_226)">
<g clip-path="url(#clip1_0_226)">
<path d="M15.197 6.55273H9.80217C4.88289 6.55273 0.880859 10.5547 0.880859 15.474V15.874C0.880859 17.8445 2.48411 19.4473 4.45413 19.4473H20.5456C22.5156 19.4473 24.1188 17.8443 24.1188 15.874V15.474C24.1188 10.5548 20.1167 6.55273 15.197 6.55273ZM23.2215 15.8737C23.2215 17.3494 22.0211 18.5497 20.5455 18.5497H4.45402C2.97835 18.5497 1.77801 17.3494 1.77801 15.8737V15.4737C1.77801 11.5733 4.57648 8.31781 8.26985 7.60031V9.45491C8.26985 9.70281 8.47048 9.90365 8.71859 9.90365C8.9665 9.90365 9.16733 9.70302 9.16733 9.45491V7.48211C9.37754 7.4655 9.58794 7.44974 9.80223 7.44974H11.8594V9.45487C11.8594 9.70277 12.06 9.90361 12.3081 9.90361C12.556 9.90361 12.7568 9.70298 12.7568 9.45487V7.44974H15.1977C15.2825 7.44974 15.3647 7.45975 15.4486 7.4623V9.45489C15.4486 9.7028 15.6493 9.90363 15.8974 9.90363C16.1453 9.90363 16.3461 9.70301 16.3461 9.45489V7.54153C20.2263 8.10184 23.2218 11.4404 23.2218 15.4738L23.2215 15.8737Z" fill="#222222"/>
<path d="M18.5667 17.082H13.1831C12.9352 17.082 12.7344 17.2826 12.7344 17.5307C12.7344 17.7786 12.935 17.9795 13.1831 17.9795H18.5667C18.8146 17.9795 19.0154 17.7789 19.0154 17.5307C19.0154 17.2826 18.8148 17.082 18.5667 17.082Z" fill="#222222"/>
</g>
</g>
<defs>
<clipPath id="clip0_0_226">
<rect width="25" height="25" fill="white" transform="translate(0 0.5)"/>
</clipPath>
<clipPath id="clip1_0_226">
<rect width="25" height="13" fill="white" transform="translate(0 6.5)"/>
</clipPath>
</defs>
</svg>
