<svg width="45" height="46" viewBox="0 0 45 46" fill="none" xmlns="http://www.w3.org/2000/svg">
<g clip-path="url(#clip0_0_1114)">
<g clip-path="url(#clip1_0_1114)">
<path d="M31.3008 14.2832H13.5935C6.09798 14.2832 0 20.3812 0 27.8767V30.187C0 31.5266 1.08992 32.6166 2.42955 32.6166H42.4647C43.8043 32.6166 44.8943 31.5266 44.8943 30.187V27.8767C44.8942 20.3812 38.7962 14.2832 31.3008 14.2832ZM43.1057 30.1869C43.1057 30.5404 42.8182 30.8279 42.4647 30.8279H2.42955C2.07609 30.8279 1.78858 30.5404 1.78858 30.1869V27.8766C1.78858 21.3674 7.08426 16.0717 13.5934 16.0717H14.3088V18.3969C14.3088 18.8907 14.7092 19.2912 15.2031 19.2912C15.697 19.2912 16.0974 18.8907 16.0974 18.3969V16.0717H21.5527V21.8847C21.5527 22.3786 21.953 22.779 22.4469 22.779C22.9408 22.779 23.3412 22.3786 23.3412 21.8847V16.0717H28.7965V21.8847C28.7965 22.3786 29.1968 22.779 29.6907 22.779C30.1847 22.779 30.5851 22.3786 30.5851 21.8847V16.0717H31.3005C37.8097 16.0717 43.1054 21.3674 43.1054 27.8766L43.1057 30.1869Z" fill="#222222"/>
<path d="M15.2028 20.3633C14.7089 20.3633 14.3086 20.7637 14.3086 21.2576V21.8835C14.3086 22.3774 14.7089 22.7779 15.2028 22.7779C15.6968 22.7779 16.0972 22.3774 16.0972 21.8835V21.2576C16.0973 20.7637 15.6968 20.3633 15.2028 20.3633Z" fill="#222222"/>
</g>
</g>
<defs>
<clipPath id="clip0_0_1114">
<rect width="45" height="45" fill="white" transform="translate(0 0.589844)"/>
</clipPath>
<clipPath id="clip1_0_1114">
<rect width="45" height="19.1667" fill="white" transform="translate(0 13.5059)"/>
</clipPath>
</defs>
</svg>
