<svg width="45" height="46" viewBox="0 0 45 46" fill="none" xmlns="http://www.w3.org/2000/svg">
<g clip-path="url(#clip0_0_1073)">
<g clip-path="url(#clip1_0_1073)">
<path d="M44.9987 16.0461C44.9981 16.0269 44.9974 16.0078 44.9957 15.9886C44.9944 15.9738 44.9924 15.9593 44.9904 15.9448C44.9883 15.9296 44.9862 15.9143 44.9835 15.8993C44.9804 15.8824 44.9764 15.8657 44.9724 15.8491C44.9694 15.8366 44.9664 15.8241 44.9627 15.8117C44.9577 15.7942 44.952 15.7771 44.946 15.7602C44.9419 15.7484 44.9379 15.7368 44.9332 15.7252C44.9269 15.7088 44.9199 15.6931 44.9125 15.6772C44.9068 15.6648 44.901 15.6527 44.8948 15.6406C44.8876 15.6267 44.8799 15.6131 44.8721 15.5994C44.8643 15.5859 44.8563 15.5727 44.8479 15.5595C44.8404 15.5481 44.8325 15.5369 44.8246 15.5258C44.8145 15.5117 44.8044 15.4978 44.7934 15.4842C44.7855 15.4744 44.7775 15.465 44.7692 15.4556C44.7574 15.4419 44.7455 15.4286 44.7329 15.4156C44.7239 15.4063 44.7145 15.3975 44.705 15.3885C44.6926 15.3767 44.6802 15.365 44.667 15.3539C44.6552 15.3439 44.6431 15.3346 44.6309 15.3253C44.6193 15.3163 44.6077 15.3074 44.5956 15.2988C44.5799 15.2878 44.5635 15.2777 44.5469 15.2676C44.5395 15.2631 44.5326 15.2579 44.5249 15.2536L26.6217 5.01262C26.3021 4.82977 25.9054 4.84958 25.6055 5.06327L22.4892 7.2845C22.0445 4.84769 19.9075 2.99414 17.3442 2.99414H16.3665C15.8454 2.99414 15.423 3.41654 15.423 3.93762C15.423 4.4587 15.8454 4.88109 16.3665 4.88109H17.3442C18.8987 4.88109 20.2089 5.94721 20.582 7.38677C18.476 7.81105 16.8184 9.48543 16.4172 11.5996L0.396543 22.9962C0.385693 23.004 0.375692 23.0124 0.365313 23.0206C0.356256 23.0277 0.34701 23.0343 0.338236 23.0417C0.320404 23.0566 0.303422 23.0722 0.28691 23.0883C0.283137 23.0919 0.278986 23.0954 0.275211 23.0991C0.25455 23.1198 0.23502 23.1413 0.216621 23.1636C0.213415 23.1675 0.210678 23.1717 0.207565 23.1755C0.193035 23.1937 0.178977 23.2123 0.165863 23.2313C0.159731 23.2402 0.154258 23.2494 0.148409 23.2584C0.139162 23.273 0.130011 23.2876 0.121614 23.3026C0.115198 23.3138 0.109255 23.3255 0.103311 23.3372C0.0965175 23.3505 0.0900075 23.3639 0.083875 23.3775C0.0780254 23.3903 0.0725533 23.4033 0.0672697 23.4164C0.0619863 23.4298 0.0571746 23.4433 0.0525515 23.4567C0.0479285 23.4701 0.0432111 23.4834 0.0391542 23.4971C0.0344369 23.5131 0.0305686 23.5294 0.0267003 23.5457C0.0239643 23.5569 0.0207565 23.5681 0.0184921 23.5796C0.0129256 23.6072 0.00877432 23.6352 0.00566085 23.6633C0.00481172 23.6713 0.00462303 23.6793 0.00396259 23.6872C0.00207565 23.7094 0.000849127 23.7316 0.000566085 23.7538C0.000566085 23.7576 0 23.7612 0 23.7649V42.2419C0 42.5181 0.120954 42.7804 0.331065 42.9597C0.503061 43.1063 0.720533 43.1854 0.943475 43.1854C0.992725 43.1854 1.04245 43.1815 1.09179 43.1736L44.2048 36.3089C44.6629 36.236 45 35.8411 45 35.3773V16.0725C45 16.0636 44.9988 16.0549 44.9987 16.0461ZM21.6321 9.169C23.5191 9.169 25.0544 10.7042 25.0544 12.5913C25.0544 14.4783 23.5191 16.0136 21.6321 16.0136C19.745 16.0136 18.2098 14.4783 18.2098 12.5913C18.2098 10.7042 19.745 9.169 21.6321 9.169ZM1.88695 38.3937L36.9973 32.1938C37.5104 32.1033 37.8529 31.6138 37.7623 31.1008C37.6717 30.5876 37.1823 30.2451 36.6692 30.3357L1.88695 36.4775V33.2813L36.9973 27.0815C37.5104 26.991 37.8529 26.5014 37.7623 25.9884C37.6717 25.4752 37.1823 25.1327 36.6692 25.2233L1.88695 31.3651V28.3312L39.439 21.6309V35.1571L1.88695 41.1364V38.3937ZM41.326 34.8568V20.5043C41.326 20.2251 41.2022 19.9602 40.9881 19.7809C40.7741 19.6017 40.4914 19.5263 40.2167 19.5754L1.88695 26.4146V24.5601L37.6911 18.4087C38.2047 18.3206 38.5495 17.8327 38.4613 17.3191C38.373 16.8056 37.8854 16.4604 37.3716 16.5491L4.86352 22.1342L16.4796 13.8707C17.0539 16.1821 19.1457 17.9004 21.6321 17.9004C24.5596 17.9004 26.9413 15.5188 26.9413 12.5913C26.9413 10.7328 25.9806 9.09532 24.5308 8.14646L26.2089 6.95032L43.113 16.6198V34.5722L41.326 34.8568Z" fill="#222222"/>
</g>
</g>
<defs>
<clipPath id="clip0_0_1073">
<rect width="45" height="45" fill="white" transform="translate(0 0.589844)"/>
</clipPath>
<clipPath id="clip1_0_1073">
<rect width="45" height="40.7143" fill="white" transform="translate(0 2.73242)"/>
</clipPath>
</defs>
</svg>
