<svg width="140" height="43" viewBox="0 0 140 43" fill="none" xmlns="http://www.w3.org/2000/svg">
<g clip-path="url(#clip0_0_1947)">
<g clip-path="url(#clip1_0_1947)">
<g clip-path="url(#clip2_0_1947)">
<path d="M133.899 42.0544H5.63449C2.8127 42.0544 0.503906 39.7417 0.503906 36.9152V6.08055C0.503906 3.25401 2.81266 0.941406 5.63449 0.941406H133.899C136.721 0.941406 139.03 3.25401 139.03 6.08055V36.9152C139.03 39.7417 136.721 42.0544 133.899 42.0544Z" fill="black"/>
<path d="M133.899 0.941406H5.63449C2.8127 0.941406 0.503906 3.25401 0.503906 6.08055V36.9152C0.503906 39.7417 2.81266 42.0544 5.63449 42.0544H133.899C136.721 42.0544 139.03 39.7417 139.03 36.9152V6.08055C139.03 3.25401 136.721 0.941406 133.899 0.941406ZM133.899 1.76364C136.276 1.76364 138.209 3.70051 138.209 6.08055V36.9152C138.209 39.2957 136.276 41.2325 133.899 41.2325H5.63449C3.25844 41.2325 1.32481 39.2957 1.32481 36.9152V6.08055C1.32481 3.70051 3.2584 1.76369 5.63449 1.76369L133.899 1.76364Z" fill="#A6A6A6"/>
<path d="M49.1605 11.4699C49.1605 12.331 48.9058 13.0167 48.396 13.5283C47.8168 14.1365 47.0619 14.4409 46.134 14.4409C45.2455 14.4409 44.4898 14.1326 43.8686 13.515C43.2462 12.898 42.9355 12.1327 42.9355 11.2197C42.9355 10.3063 43.2462 9.54149 43.8686 8.9239C44.4898 8.30685 45.2455 7.99805 46.134 7.99805C46.575 7.99805 46.9972 8.08443 47.3979 8.25669C47.7987 8.42935 48.1202 8.65856 48.3607 8.9456L47.8195 9.488C47.412 9.0002 46.8508 8.75649 46.134 8.75649C45.486 8.75649 44.9255 8.98459 44.4526 9.44107C43.9796 9.89801 43.7431 10.4906 43.7431 11.2197C43.7431 11.9488 43.9796 12.5414 44.4526 12.9983C44.9255 13.4548 45.486 13.6828 46.134 13.6828C46.8216 13.6828 47.3948 13.4536 47.8537 12.9944C48.1516 12.6951 48.3237 12.2793 48.3699 11.7452H46.134V11.0045H49.1175C49.1463 11.1655 49.1605 11.3201 49.1605 11.4699Z" fill="white"/>
<path d="M49.1595 11.4701H49.0568C49.056 12.3116 48.8107 12.9652 48.3225 13.4558L48.3213 13.4567C47.7605 14.044 47.0393 14.3371 46.133 14.3383C45.2682 14.3371 44.5443 14.0416 43.9398 13.4425C43.3366 12.8423 43.0384 12.1096 43.0372 11.2199C43.0384 10.3298 43.3366 9.59748 43.9398 8.99767C44.5443 8.39822 45.2682 8.10231 46.133 8.10106C46.5608 8.10106 46.9681 8.18468 47.3564 8.35125C47.7452 8.51911 48.0524 8.73909 48.2811 9.01217L48.3597 8.94584L48.2873 8.87318L47.7461 9.41595L47.8185 9.48824L47.8976 9.42246C47.471 8.9105 46.8723 8.65243 46.1331 8.65394C45.461 8.65311 44.8697 8.89368 44.3807 9.36749C43.887 9.84282 43.6388 10.4687 43.6396 11.2199C43.6388 11.9712 43.887 12.597 44.3807 13.0724C44.8697 13.5462 45.461 13.7867 46.133 13.7859C46.8434 13.7871 47.4487 13.5458 47.9252 13.0673C48.2435 12.7476 48.424 12.3048 48.4711 11.7543L48.4807 11.6427H46.2357V11.1075H49.1165V11.0047L49.0155 11.0228C49.0435 11.1786 49.0568 11.3267 49.0568 11.4701H49.262C49.262 11.3139 49.2476 11.1533 49.2175 10.9863L49.2023 10.9019H46.0305V11.8482H48.3689V11.7455L48.2667 11.7366C48.2215 12.2538 48.0571 12.6433 47.7801 12.9219C47.3393 13.3619 46.7981 13.5791 46.1331 13.5804C45.5091 13.5795 44.9796 13.3642 44.523 12.9247C44.071 12.4866 43.846 11.9274 43.8449 11.2199C43.846 10.5125 44.071 9.95322 44.523 9.51517C44.9796 9.07555 45.5091 8.86034 46.1331 8.85951C46.827 8.86117 47.3509 9.0908 47.7401 9.55452L47.8123 9.64044L48.4324 9.01855L48.4988 8.95193L48.4384 8.87996C48.1861 8.57893 47.8503 8.33998 47.4375 8.16259C47.0238 7.98465 46.5874 7.89551 46.1331 7.89551C45.2209 7.89472 44.4336 8.2159 43.7952 8.85152C43.1543 9.48588 42.8311 10.2833 42.832 11.2199C42.8311 12.1562 43.1543 12.954 43.7955 13.5888C44.4336 14.2239 45.2209 14.5448 46.1331 14.5439C47.0831 14.5448 47.8712 14.2287 48.4692 13.5995L48.395 13.5285L48.4676 13.6012C48.999 13.0692 49.2626 12.3505 49.262 11.4701H49.1595ZM53.8891 8.89406H51.0853V10.8494H53.6138V11.5904H51.0853V13.5458H53.8891V14.3034H50.295V8.13645H53.8891V8.89406Z" fill="white"/>
<path d="M53.8902 8.89458V8.7918H50.9837V10.9527H53.5122V11.4879L50.9837 11.4882V13.6491H53.7875V14.2011H50.3985V8.23975H53.7875V8.89458H53.8902H53.9927V8.03418H50.1934V14.4066H53.9927V13.4435H51.1889V11.6937H53.7174V10.7471H51.1889V8.99735H53.9927V8.89458H53.8902ZM57.2262 14.304H56.4346V8.89452H54.715V8.13692H58.9457V8.89452H57.2262V14.304Z" fill="white"/>
<path d="M57.2271 14.304V14.2011H56.538V8.7918H54.8185V8.23979H58.844V8.7918H57.1244V14.3039L57.2271 14.304L57.3297 14.3039V8.99735H59.0493V8.03418H54.6133V8.9973H56.3328V14.4066H57.3297V14.3039L57.2271 14.304ZM62.0078 14.304V8.13692H62.7986V14.3039L62.0078 14.304Z" fill="white"/>
<path d="M62.0068 14.304H62.1095V8.23975H62.695V14.2011H62.0068V14.304V14.4066H62.9003V8.03418H61.9043V14.4066H62.0068V14.304ZM66.3069 14.304H65.5153V8.89452H63.7957V8.13692H68.0264V8.89452H66.3069V14.304Z" fill="white"/>
<path d="M66.307 14.3032V14.2004H65.6181V8.79104H63.8985V8.23904H67.9241V8.79104H66.2045V14.3032H66.307H66.4097V8.99661H68.1292V8.03343H63.6934V8.99655H65.4128V14.4058H66.4097V14.3032H66.307ZM72.1054 12.9899C72.5611 13.452 73.1188 13.6828 73.7782 13.6828C74.4375 13.6828 74.9954 13.452 75.4504 12.9899C75.9065 12.5278 76.135 11.9371 76.135 11.2197C76.135 10.5023 75.9065 9.91159 75.4504 9.44948C74.9954 8.98736 74.4375 8.75649 73.7782 8.75649C73.1188 8.75649 72.5611 8.98736 72.1054 9.44948C71.6504 9.91159 71.4221 10.5023 71.4221 11.2197C71.4221 11.9371 71.6504 12.5278 72.1054 12.9899ZM76.0356 13.5062C75.4302 14.1297 74.6775 14.4409 73.7782 14.4409C72.8778 14.4409 72.1254 14.1297 71.5215 13.5062C70.9158 12.8834 70.6144 12.1211 70.6144 11.2197C70.6144 10.3183 70.9158 9.55581 71.5215 8.93318C72.1254 8.30958 72.8778 7.99805 73.7782 7.99805C74.6728 7.99805 75.4235 8.31124 76.0316 8.9372C76.6388 9.56312 76.9427 10.3239 76.9427 11.2197C76.9427 12.1211 76.6396 12.8834 76.0356 13.5062Z" fill="white"/>
<path d="M72.1054 12.9902L72.0323 13.0624C72.505 13.543 73.0947 13.7871 73.778 13.7859C74.461 13.7871 75.0514 13.543 75.5232 13.0624C75.999 12.5814 76.2382 11.9591 76.2374 11.2199C76.2382 10.4808 75.999 9.85848 75.5232 9.37743C75.0514 8.89684 74.461 8.65275 73.778 8.65395C73.0947 8.65275 72.505 8.89684 72.0323 9.37743C71.5579 9.85848 71.3181 10.4808 71.3193 11.2199C71.3181 11.959 71.5579 12.5814 72.0323 13.0624L72.1054 12.9902L72.1783 12.9179C71.743 12.4742 71.5253 11.9161 71.5246 11.2199C71.5253 10.5238 71.743 9.96569 72.1783 9.52197C72.6175 9.07837 73.1422 8.86076 73.778 8.85955C74.4133 8.86076 74.9392 9.07837 75.3773 9.52197C75.8134 9.96569 76.0311 10.5238 76.0318 11.2199C76.0311 11.9161 75.8134 12.4742 75.3773 12.9179C74.9392 13.3616 74.4133 13.5791 73.778 13.5803C73.1422 13.5791 72.6175 13.3616 72.1783 12.9179L72.1054 12.9902ZM76.0354 13.5064L75.9621 13.435C75.3737 14.0388 74.6542 14.3372 73.778 14.3383C72.9014 14.3372 72.1819 14.0388 71.5946 13.435C71.0075 12.8291 70.7178 12.0984 70.7169 11.2199C70.7178 10.3414 71.0075 9.61074 71.5946 9.00488C72.1819 8.40099 72.9014 8.10231 73.778 8.10112C74.6486 8.10231 75.3663 8.40224 75.958 9.00927C76.5473 9.61795 76.8386 10.3475 76.8399 11.2199C76.8386 12.0984 76.548 12.8291 75.9621 13.435L76.0354 13.5064L76.1093 13.5778C76.7313 12.938 77.0459 12.1441 77.0451 11.2199C77.0459 10.301 76.73 9.50879 76.1052 8.86603C75.4798 8.22071 74.6966 7.8944 73.778 7.89551C72.8546 7.8944 72.0689 8.21918 71.4476 8.862C70.8244 9.50238 70.5108 10.2957 70.5117 11.2199C70.5108 12.1441 70.8244 12.938 71.4476 13.5782C72.0689 14.221 72.8546 14.5448 73.778 14.5439C74.7011 14.5448 75.4867 14.2206 76.1093 13.5778L76.0354 13.5064ZM78.0527 14.3034V8.1364H79.0156L82.0077 12.9339H82.0418L82.0077 11.7454V8.1364H82.7993V14.3034H81.9737L78.8432 9.2734H78.8091L78.8432 10.4623V14.3034H78.0527Z" fill="white"/>
<path d="M78.0526 14.304H78.1553V8.23975H78.9585L81.9506 13.0372H82.147L82.1102 11.7444V8.23979H82.6966V14.2011H82.0305L78.9 9.17118H78.7036L78.7404 10.4645V14.2011H78.0526V14.304V14.4066H78.9456V10.4612L78.9116 9.27118L78.809 9.27396V9.37674H78.8431V9.27396L78.756 9.3286L81.9166 14.4066H82.9019V8.03418H81.905V11.7472L81.939 12.9371L82.0417 12.9345V12.8317H82.0076V12.9345L82.0946 12.8799L79.0722 8.03418H77.9501V14.4066H78.0526V14.304ZM110.232 31.7769H112.147V18.9279H110.232V31.7769ZM127.478 23.5565L125.283 29.1271H125.218L122.94 23.5564H120.877L124.293 31.3424L122.346 35.6735H124.343L129.608 23.5564L127.478 23.5565ZM116.62 30.3176C115.992 30.3176 115.118 30.0035 115.118 29.2263C115.118 28.2345 116.207 27.8544 117.147 27.8544C117.99 27.8544 118.385 28.0362 118.897 28.2844C118.748 29.4743 117.725 30.3176 116.62 30.3176ZM116.851 23.2753C115.464 23.2753 114.029 23.8871 113.435 25.2426L115.134 25.9533C115.497 25.2426 116.173 25.0109 116.884 25.0109C117.874 25.0109 118.88 25.6064 118.897 26.6643V26.7964C118.55 26.5981 117.808 26.3006 116.9 26.3006C115.068 26.3006 113.203 27.3086 113.203 29.1933C113.203 30.9126 114.705 32.0202 116.388 32.0202C117.676 32.0202 118.385 31.4416 118.831 30.764H118.897V31.7557H120.745V26.8293C120.745 24.5484 119.046 23.2753 116.851 23.2753ZM105.017 25.1205H102.294V20.7162H105.017C106.449 20.7162 107.262 21.9034 107.262 22.9183C107.262 23.914 106.449 25.1205 105.017 25.1205ZM104.968 18.9279H100.381V31.7769H102.294V26.9089H104.968C107.09 26.9089 109.176 25.3699 109.176 22.9183C109.176 20.4669 107.09 18.9279 104.968 18.9279ZM79.9506 30.3199C78.6277 30.3199 77.5203 29.2106 77.5203 27.687C77.5203 26.1472 78.6277 25.021 79.9506 25.021C81.2564 25.021 82.2814 26.1472 82.2814 27.687C82.2814 29.2106 81.2564 30.3199 79.9506 30.3199ZM82.149 24.2759H82.083C81.6533 23.7627 80.8263 23.299 79.785 23.299C77.6029 23.299 75.6028 25.2198 75.6028 27.687C75.6028 30.1377 77.6029 32.042 79.785 32.042C80.8263 32.042 81.6533 31.5782 82.083 31.0486H82.149V31.6778C82.149 33.3504 81.2564 34.2445 79.8183 34.2445C78.6446 34.2445 77.9172 33.3998 77.6193 32.6878L75.95 33.3833C76.4294 34.5424 77.7023 35.9665 79.8183 35.9665C82.0665 35.9665 83.9677 34.6416 83.9677 31.4128V23.564H82.149V24.2759ZM85.29 31.7769H87.2076V18.9274H85.29V31.7769ZM90.0345 27.538C89.9849 25.8488 91.3405 24.9881 92.3157 24.9881C93.0766 24.9881 93.7211 25.3687 93.9355 25.9156L90.0345 27.538ZM95.9857 26.0809C95.6224 25.1036 94.5142 23.299 92.2495 23.299C90.0013 23.299 88.1335 25.0707 88.1335 27.6705C88.1335 30.1212 89.9849 32.042 92.4644 32.042C94.465 32.042 95.6224 30.8166 96.1016 30.1046L94.6138 29.1109C94.1181 29.8397 93.4399 30.3199 92.4644 30.3199C91.4892 30.3199 90.795 29.8727 90.3484 28.9953L96.1838 26.5776L95.9857 26.0809ZM49.4942 24.6404V26.4948H53.9245C53.7922 27.538 53.445 28.2997 52.9159 28.8295C52.2715 29.4755 51.263 30.1874 49.4942 30.1874C46.7664 30.1874 44.6341 27.9852 44.6341 25.2529C44.6341 22.5209 46.7664 20.3184 49.4942 20.3184C50.9656 20.3184 52.0398 20.898 52.8333 21.6431L54.1393 20.3352C53.0319 19.2752 51.5605 18.4638 49.4942 18.4638C45.758 18.4638 42.6172 21.5108 42.6172 25.2529C42.6172 28.9953 45.758 32.042 49.4942 32.042C51.5111 32.042 53.0319 31.3799 54.222 30.1377C55.4452 28.9122 55.8256 27.1903 55.8256 25.7995C55.8256 25.3687 55.7927 24.9716 55.7263 24.6404H49.4942ZM60.8624 30.3199C59.5397 30.3199 58.399 29.227 58.399 27.6705C58.399 26.0973 59.5397 25.021 60.8624 25.021C62.1846 25.021 63.3254 26.0973 63.3254 27.6705C63.3254 29.2271 62.1846 30.3199 60.8624 30.3199ZM60.8624 23.299C58.4486 23.299 56.4813 25.1369 56.4813 27.6705C56.4813 30.1874 58.4486 32.042 60.8624 32.042C63.2758 32.042 65.243 30.1874 65.243 27.6705C65.243 25.1369 63.2758 23.299 60.8624 23.299ZM70.4188 30.3199C69.0966 30.3199 67.9557 29.227 67.9557 27.6705C67.9557 26.0973 69.0966 25.021 70.4188 25.021C71.7413 25.021 72.8819 26.0973 72.8819 27.6705C72.8819 29.2271 71.7413 30.3199 70.4188 30.3199ZM70.4188 23.299C68.0051 23.299 66.0383 25.1369 66.0383 27.6705C66.0383 30.1874 68.0051 32.042 70.4188 32.042C72.8323 32.042 74.7996 30.1874 74.7996 27.6705C74.7996 25.1369 72.8323 23.299 70.4188 23.299Z" fill="white"/>
<path d="M11.2862 8.76528C10.9419 9.07648 10.7363 9.59556 10.7363 10.2846V10.1288V32.8654V32.7157C10.7363 33.352 10.9126 33.8433 11.2112 34.1598L11.2874 34.2329C11.5291 34.4513 11.839 34.5676 12.1942 34.5672C12.5412 34.5672 12.9316 34.4564 13.3438 34.2224L28.238 25.7457L33.3541 22.8337C34.0039 22.4639 34.3686 21.987 34.4295 21.501V21.4991C34.3686 21.0121 34.0039 20.5355 33.3541 20.1657L28.2375 17.254L13.3438 8.7773C12.9308 8.54287 12.5401 8.43164 12.1921 8.43164C11.8374 8.43164 11.5278 8.54726 11.2862 8.76528Z" fill="#00C1FF"/>
<path d="M11.2875 34.2323L11.2112 34.1592C10.9126 33.8428 10.7363 33.3514 10.7363 32.7151V32.8648V10.1338V10.2839C10.7363 9.59492 10.9419 9.07585 11.2862 8.76465L23.9996 21.4988L11.2875 34.2323Z" fill="url(#paint0_linear_0_1947)"/>
<path d="M28.2383 25.7455L24 21.4993L28.238 17.2539L33.3545 20.1655C34.0042 20.5353 34.3689 21.0119 34.43 21.4989V21.5008C34.3689 21.9868 34.0042 22.4638 33.3545 22.8335L28.2383 25.7455Z" fill="url(#paint1_linear_0_1947)"/>
<path d="M12.1957 34.5669C11.8406 34.5673 11.5307 34.4512 11.2891 34.2328L24.0012 21.499L28.2396 25.7453L13.3452 34.2221C12.9332 34.4561 12.5427 34.5669 12.1957 34.5669Z" fill="url(#paint2_linear_0_1947)"/>
<path d="M24.0006 21.4996L11.2871 8.7653C11.5288 8.54727 11.8383 8.43164 12.193 8.43164C12.5409 8.43164 12.9317 8.54283 13.3446 8.77731L28.2385 17.2541L24.0006 21.4996Z" fill="url(#paint3_linear_0_1947)"/>
<path d="M12.1961 34.7164C11.841 34.7164 11.5307 34.6003 11.2891 34.3819C11.2881 34.3809 11.2866 34.3804 11.2855 34.3795L11.2194 34.3148C11.2173 34.3128 11.2153 34.3105 11.2129 34.3081L11.2891 34.2318C11.5308 34.4501 11.8406 34.5661 12.1958 34.5658C12.5428 34.5658 12.9333 34.455 13.3454 34.221L28.2397 25.7441L28.335 25.8398L28.2384 25.8947L13.3453 34.3711C12.9698 34.5843 12.6126 34.6954 12.2899 34.7141C12.2587 34.7155 12.2274 34.7164 12.1961 34.7164Z" fill="url(#paint4_linear_0_1947)"/>
<path d="M11.2106 34.3098C10.9124 33.9933 10.7363 33.5022 10.7363 32.8655V32.7158C10.7363 33.3521 10.9124 33.8434 11.2106 34.1599L11.2868 34.233L11.2106 34.3098Z" fill="url(#paint5_linear_0_1947)"/>
<path d="M28.3337 25.8412L28.2383 25.7456L33.3543 22.8336C34.0041 22.464 34.369 21.9869 34.4299 21.501C34.4299 21.6794 34.3901 21.8576 34.3112 22.0311C34.1521 22.3808 33.8331 22.7112 33.3544 22.9837L28.3337 25.8412Z" fill="url(#paint6_linear_0_1947)"/>
<path d="M34.4303 21.4989C34.3693 21.012 34.0045 20.5353 33.3548 20.1655L28.2383 17.2538L28.3337 17.1582L33.3548 20.0157C34.0711 20.4237 34.4299 20.9612 34.4303 21.4989Z" fill="url(#paint7_linear_0_1947)"/>
<path d="M10.7363 10.2842V10.1272C10.7363 10.0705 10.7379 10.0151 10.7408 9.96137V9.95892L10.741 9.95656V9.95051C10.7719 9.40244 10.9416 8.97492 11.2106 8.68945L11.2856 8.76488C10.9416 9.07613 10.7363 9.59519 10.7363 10.2842Z" fill="url(#paint8_linear_0_1947)"/>
<path d="M28.2391 17.2529L13.3454 8.77607C12.9324 8.54164 12.5417 8.43045 12.1937 8.43045C11.839 8.43045 11.5295 8.54607 11.2879 8.7641L11.2129 8.68863C11.2363 8.66378 11.2607 8.63982 11.2859 8.61679C11.2867 8.61596 11.2879 8.61513 11.2887 8.61434C11.5284 8.39797 11.8346 8.28235 12.1862 8.28027H12.1937C12.5417 8.28027 12.9324 8.39151 13.3454 8.62603L28.335 17.1569L28.2391 17.2529Z" fill="url(#paint9_linear_0_1947)"/>
</g>
</g>
</g>
<defs>
<linearGradient id="paint0_linear_0_1947" x1="18.861" y1="9.89357" x2="7.90434" y2="20.8673" gradientUnits="userSpaceOnUse">
<stop stop-color="#00A0FF"/>
<stop offset="0.00657" stop-color="#00A1FF"/>
<stop offset="0.2601" stop-color="#00BEFF"/>
<stop offset="0.5122" stop-color="#00D2FF"/>
<stop offset="0.7604" stop-color="#00DFFF"/>
<stop offset="1" stop-color="#00E3FF"/>
</linearGradient>
<linearGradient id="paint1_linear_0_1947" x1="35.2216" y1="21.4259" x2="10.3926" y2="21.4259" gradientUnits="userSpaceOnUse">
<stop stop-color="#FFE000"/>
<stop offset="0.4087" stop-color="#FFBD00"/>
<stop offset="0.7754" stop-color="#FFA500"/>
<stop offset="1" stop-color="#FF9C00"/>
</linearGradient>
<linearGradient id="paint2_linear_0_1947" x1="25.9894" y1="25.5362" x2="7.42257" y2="43.9961" gradientUnits="userSpaceOnUse">
<stop stop-color="#FF3A44"/>
<stop offset="1" stop-color="#C31162"/>
</linearGradient>
<linearGradient id="paint3_linear_0_1947" x1="8.01051" y1="6.87738" x2="16.2853" y2="15.1172" gradientUnits="userSpaceOnUse">
<stop stop-color="#32A071"/>
<stop offset="0.0685" stop-color="#2DA771"/>
<stop offset="0.4762" stop-color="#15CF74"/>
<stop offset="0.8009" stop-color="#06E775"/>
<stop offset="1" stop-color="#00F076"/>
</linearGradient>
<linearGradient id="paint4_linear_0_1947" x1="25.9802" y1="28.4805" x2="11.1109" y2="43.373" gradientUnits="userSpaceOnUse">
<stop stop-color="#CC2E36"/>
<stop offset="1" stop-color="#9C0E4E"/>
</linearGradient>
<linearGradient id="paint5_linear_0_1947" x1="12.4279" y1="9.89419" x2="2.77523" y2="19.5505" gradientUnits="userSpaceOnUse">
<stop stop-color="#008DE0"/>
<stop offset="0.00657" stop-color="#008DE0"/>
<stop offset="0.2601" stop-color="#00A7E0"/>
<stop offset="0.5122" stop-color="#00B8E0"/>
<stop offset="0.7604" stop-color="#00C4E0"/>
<stop offset="1" stop-color="#00C7E0"/>
</linearGradient>
<linearGradient id="paint6_linear_0_1947" x1="35.2215" y1="21.5001" x2="10.3925" y2="21.5001" gradientUnits="userSpaceOnUse">
<stop stop-color="#E0C500"/>
<stop offset="0.4087" stop-color="#E0A600"/>
<stop offset="0.7754" stop-color="#E09100"/>
<stop offset="1" stop-color="#E08900"/>
</linearGradient>
<linearGradient id="paint7_linear_0_1947" x1="35.2219" y1="21.5" x2="10.3931" y2="21.5" gradientUnits="userSpaceOnUse">
<stop stop-color="#FFE840"/>
<stop offset="0.4087" stop-color="#FFCE40"/>
<stop offset="0.7754" stop-color="#FFBC40"/>
<stop offset="1" stop-color="#FFB540"/>
</linearGradient>
<linearGradient id="paint8_linear_0_1947" x1="12.4174" y1="9.9113" x2="3.12078" y2="18.8085" gradientUnits="userSpaceOnUse">
<stop stop-color="#40B8FF"/>
<stop offset="0.00657" stop-color="#40B9FF"/>
<stop offset="0.2601" stop-color="#40CEFF"/>
<stop offset="0.5122" stop-color="#40DDFF"/>
<stop offset="0.7604" stop-color="#40E7FF"/>
<stop offset="1" stop-color="#40EAFF"/>
</linearGradient>
<linearGradient id="paint9_linear_0_1947" x1="7.99272" y1="9.56923" x2="14.6325" y2="16.2194" gradientUnits="userSpaceOnUse">
<stop stop-color="#65B895"/>
<stop offset="0.0685" stop-color="#62BD95"/>
<stop offset="0.4762" stop-color="#50DB97"/>
<stop offset="0.8009" stop-color="#44ED98"/>
<stop offset="1" stop-color="#40F498"/>
</linearGradient>
<clipPath id="clip0_0_1947">
<rect width="139" height="42.08" fill="white" transform="translate(0.5 0.0800781)"/>
</clipPath>
<clipPath id="clip1_0_1947">
<rect width="139" height="42.08" fill="white" transform="translate(0.5 0.0800781)"/>
</clipPath>
<clipPath id="clip2_0_1947">
<rect width="138.992" height="42.08" fill="white" transform="translate(0.503906 0.0800781)"/>
</clipPath>
</defs>
</svg>
