<svg width="45" height="46" viewBox="0 0 45 46" fill="none" xmlns="http://www.w3.org/2000/svg">
<g clip-path="url(#clip0_0_1097)">
<g clip-path="url(#clip1_0_1097)">
<g clip-path="url(#clip2_0_1097)">
<path d="M37.2695 18.7666C38.035 19.9076 38.8699 20.6476 39.7817 20.8942C40.6789 21.1371 41.73 20.9163 42.9678 20.1543C43.4658 19.8451 44.1177 20.0034 44.4216 20.504C44.5242 20.6733 44.5755 20.8573 44.5791 21.0451C44.6267 21.5604 44.6561 22.0832 44.667 22.6132C44.678 23.1506 44.6744 23.6843 44.6487 24.2144C44.6487 24.2622 44.645 24.3101 44.6377 24.3543C44.3044 30.5089 41.536 35.953 37.3135 39.7886C33.0838 43.6316 27.4038 45.8586 21.2661 45.5641V45.5678C21.2186 45.5678 21.1709 45.5641 21.127 45.5568C15.004 45.2217 9.58766 42.4389 5.77173 38.1948C1.94482 33.9432 -0.267089 28.234 0.0258798 22.0647C0.0258798 22.0168 0.0295419 21.9691 0.0368661 21.9248C0.366456 15.7629 3.22656 10.2893 7.5332 6.43158C11.8436 2.56656 17.6114 0.321155 23.7491 0.615633C24.3349 0.615633 24.8074 1.09048 24.8074 1.67943C24.8074 1.82668 24.7781 1.96655 24.7232 2.09171C24.2947 3.49417 24.2654 4.79355 24.6243 5.82422C24.9502 6.75919 25.613 7.48435 26.6055 7.85612C27.1328 8.05489 27.4111 8.62913 27.2427 9.16287H27.2463C26.5761 11.3309 26.5616 13.2414 27.0559 14.7801C27.3562 15.7114 27.8396 16.5065 28.4768 17.1358C29.114 17.7691 29.9051 18.2402 30.8169 18.5273C32.2964 18.9911 34.0908 18.9617 36.0574 18.3248C36.5225 18.1776 37.0169 18.3691 37.2695 18.7666ZM21.7093 21.8881C22.7236 21.8881 23.544 22.7125 23.544 23.7322C23.544 24.7519 22.7236 25.5763 21.7093 25.5763C20.6948 25.5763 19.8746 24.7519 19.8746 23.7322C19.8746 22.7125 20.6985 21.8881 21.7093 21.8881ZM13.7551 29.4819C14.9893 29.4819 15.9927 30.4868 15.9927 31.7309C15.9927 32.9752 14.9929 33.9801 13.7551 33.9801C12.5174 33.9801 11.5176 32.9752 11.5176 31.7309C11.5176 30.4868 12.5174 29.4819 13.7551 29.4819ZM18.5745 12.277C19.5449 12.277 20.3286 13.0647 20.3286 14.0402C20.3286 15.0156 19.5449 15.8034 18.5745 15.8034C17.604 15.8034 16.8203 15.0156 16.8203 14.0402C16.8203 13.0647 17.6076 12.277 18.5745 12.277ZM43.6892 12.5163C44.4143 12.5163 45.0003 13.1052 45.0003 13.834C45.0003 14.5629 44.4143 15.1519 43.6892 15.1519C42.9642 15.1519 42.3782 14.5629 42.3782 13.834C42.3746 13.1089 42.9642 12.5163 43.6892 12.5163ZM34.285 9.02299C35.3762 9.02299 36.2588 9.91012 36.2588 11.007C36.2588 12.104 35.3762 12.9911 34.285 12.9911C33.1936 12.9911 32.3111 12.104 32.3111 11.007C32.3111 9.91379 33.1936 9.02299 34.285 9.02299ZM35.8121 0.807044C36.9802 0.807044 37.9288 1.76042 37.9288 2.93465C37.9288 4.10889 36.9802 5.06225 35.8121 5.06225C34.6438 5.06225 33.6953 4.10889 33.6953 2.93465C33.699 1.75674 34.6438 0.807044 35.8121 0.807044ZM28.0996 30.2696C29.722 30.2696 31.0403 31.5911 31.0403 33.2255C31.0403 34.8561 29.7256 36.1812 28.0996 36.1812C26.4736 36.1812 25.159 34.8598 25.159 33.2255C25.159 31.5911 26.4736 30.2696 28.0996 30.2696ZM11.6861 17.8094C13.4438 17.8094 14.8684 19.2414 14.8684 21.0083C14.8684 22.7752 13.4438 24.2071 11.6861 24.2071C9.92823 24.2071 8.50367 22.7752 8.50367 21.0083C8.50367 19.2451 9.92823 17.8094 11.6861 17.8094ZM39.2324 22.9481C37.991 22.6132 36.907 21.7923 35.9549 20.5629C33.8382 21.1224 31.8679 21.0819 30.1833 20.5555C28.9492 20.1691 27.8689 19.5212 26.9937 18.6488C26.1184 17.7763 25.4519 16.6904 25.0454 15.4279C24.4924 13.7125 24.4265 11.6733 24.9795 9.42054C23.8442 8.75797 23.0569 7.75306 22.6285 6.51993C22.2403 5.39723 22.1597 4.09417 22.4051 2.71012C17.3111 2.78005 12.5613 4.77146 8.93945 8.01809C5.03198 11.5187 2.43921 16.4733 2.13891 22.0463V22.0647L2.13526 22.1125C1.85693 27.7261 3.86377 32.9163 7.33179 36.7739C10.7888 40.6168 15.6961 43.1383 21.2478 43.4365H21.2661L21.3137 43.4402C26.8948 43.7237 32.0621 41.7065 35.8999 38.2168C39.7232 34.742 42.2317 29.8094 42.5283 24.2291V24.2107L42.5319 24.1629C42.5577 23.6696 42.5649 23.1911 42.5539 22.7237C41.3748 23.1691 40.2688 23.2316 39.2324 22.9481Z" fill="#222222"/>
</g>
</g>
</g>
<defs>
<clipPath id="clip0_0_1097">
<rect width="45" height="45" fill="white" transform="translate(0 0.589844)"/>
</clipPath>
<clipPath id="clip1_0_1097">
<rect width="45" height="45" fill="white" transform="translate(0 0.589844)"/>
</clipPath>
<clipPath id="clip2_0_1097">
<rect width="45" height="45" fill="white" transform="translate(0 0.589844)"/>
</clipPath>
</defs>
</svg>
