<svg width="45" height="46" viewBox="0 0 45 46" fill="none" xmlns="http://www.w3.org/2000/svg">
<g clip-path="url(#clip0_0_1173)">
<g clip-path="url(#clip1_0_1173)">
<path d="M18.8522 28.8004C18.48 28.4229 18.1631 27.9946 17.9117 27.5283C17.7073 27.1463 17.8507 26.6707 18.2325 26.4663C18.6142 26.2616 19.0899 26.405 19.2945 26.7872C19.7036 27.584 20.3924 28.2027 21.2287 28.5246C22.0653 28.846 22.9906 28.8487 23.8287 28.531C24.6666 28.2139 25.3584 27.5986 25.7716 26.8035C25.8629 26.6432 25.9392 26.4747 25.9985 26.3004L30.2851 14.06C30.3041 14.0387 30.3245 14.0183 30.3458 13.9993L30.5891 13.3023C30.7093 12.9793 30.6965 12.6219 30.5535 12.309C30.4101 11.9956 30.1485 11.7522 29.8258 11.6316C25.1154 9.91814 19.9548 9.90239 15.2342 11.5875C14.5551 11.8404 14.2032 12.5904 14.4435 13.2746L14.7367 14.0875C14.8453 14.4835 14.6298 14.8958 14.2429 15.0327C13.856 15.169 13.4292 14.9839 13.2654 14.6075L12.9721 13.7946C12.7158 13.0758 12.7549 12.2844 13.0817 11.5946C13.4084 10.9052 13.9959 10.3732 14.7145 10.1165C19.7613 8.29679 25.2863 8.30264 30.3289 10.1322C31.0376 10.3941 31.6146 10.9249 31.9346 11.6093C32.2546 12.2938 32.2916 13.0766 32.0383 13.7885L31.7781 14.5462L31.7396 14.6403L27.4473 26.8093C27.3576 27.0566 27.2507 27.2966 27.1267 27.5282C26.567 28.5848 25.6623 29.4176 24.5635 29.8886C23.4645 30.3598 22.2373 30.4402 21.0863 30.1167C20.2401 29.879 19.4702 29.4255 18.8522 28.8004Z" fill="#222222"/>
<path d="M28.1115 29.9273L25.899 27.7149C25.5935 27.4095 25.5935 26.9143 25.8993 26.6085C26.2047 26.3031 26.6999 26.3031 27.0054 26.6085L29.2177 28.8209C29.6201 29.2245 30.2365 29.3229 30.7443 29.0645C30.7799 29.0412 30.8193 29.0245 30.8605 29.0149L42.2104 21.6803C42.5336 21.4775 42.7535 21.1448 42.8133 20.7679C42.8717 20.4012 42.7619 20.0274 42.5146 19.7503C40.0671 16.9588 36.8772 14.9199 33.3161 13.8704C32.7374 13.7028 32.1201 13.9574 31.8281 14.4842L31.6674 14.7441C31.5647 14.9304 31.3907 15.067 31.1854 15.1222C30.9798 15.1771 30.7608 15.1462 30.5786 15.0364C30.3967 14.9263 30.267 14.747 30.2198 14.5396C30.1727 14.3321 30.2121 14.1146 30.3292 13.9367L30.4787 13.688C30.8014 13.1218 31.308 12.6824 31.9148 12.4441C32.5218 12.2055 33.192 12.1818 33.8139 12.3769C35.9478 13.0094 37.9677 13.9764 39.7988 15.2423C41.2494 16.242 42.5718 17.4161 43.7368 18.7377C44.2767 19.3599 44.5205 20.1848 44.406 20.9999C44.2863 21.8298 43.8171 22.5689 43.1175 23.0301L31.7178 30.3147C31.6237 30.3766 31.5235 30.4283 31.4187 30.4695C30.8806 30.7395 30.2709 30.8323 29.677 30.7349C29.0828 30.6377 28.5354 30.3547 28.1115 29.9273Z" fill="#222222"/>
<path d="M36.1883 36.9522L31.1659 31.9299C30.5781 31.3468 30.2695 30.5388 30.3198 29.712C30.3364 29.2737 30.7055 28.9321 31.1437 28.9487C31.5823 28.9657 31.9239 29.3347 31.9073 29.773C31.8766 30.1535 32.0162 30.5284 32.2886 30.7962L37.311 35.8185C37.5792 36.0868 37.9498 36.2278 38.3288 36.2057C38.688 36.1753 39.0187 35.9969 39.2412 35.7131C41.5969 32.7075 42.4618 28.7955 41.592 25.077C41.4918 24.6464 41.1791 24.2956 40.7625 24.1476C40.3861 23.9838 40.2009 23.5569 40.3373 23.1701C40.4742 22.7832 40.8865 22.5677 41.2821 22.6766C42.2057 22.9969 42.8994 23.7701 43.1185 24.7231C44.0969 28.9046 43.1266 33.3045 40.4801 36.6868C39.9778 37.3351 39.2193 37.7344 38.4006 37.7818C37.5787 37.8317 36.7744 37.5301 36.1883 36.9522Z" fill="#222222"/>
<path d="M1.44661 22.6212C1.00138 22.1753 0.714016 21.5966 0.627616 20.9729C0.507916 20.1565 0.750466 19.3282 1.29127 18.7051C2.45137 17.396 3.76654 16.2333 5.20744 15.2427C7.03732 13.9751 9.05795 13.0082 11.1924 12.3774C11.8114 12.1946 12.4736 12.2255 13.0728 12.4656C13.6719 12.7051 14.1729 13.1401 14.4945 13.6993L14.644 13.9591L14.7047 14.0975L18.9642 26.1229C19.039 26.3331 19.1316 26.5366 19.2405 26.7314C19.4224 27.0465 19.3629 27.4453 19.0968 27.6937L16.8567 29.9339C16.4327 30.3614 15.885 30.644 15.2907 30.7413C14.6968 30.8388 14.0871 30.746 13.549 30.4758C13.4474 30.4344 13.3493 30.3842 13.2555 30.3267L1.92253 23.0202C1.75171 22.9031 1.59223 22.7694 1.44715 22.6219L1.44661 22.6212ZM12.9298 14.1911C12.5958 13.8524 12.1026 13.7254 11.6462 13.8594C8.08672 14.9058 4.89856 16.9431 2.45362 19.7332C2.21476 20.0212 2.11927 20.4016 2.19343 20.7678C2.24455 21.1541 2.46289 21.4981 2.79085 21.708L14.1517 29.0091L14.246 29.1034C14.7538 29.3618 15.3702 29.2633 15.7726 28.8599L17.6421 26.9902L17.5149 26.6638L13.2779 14.6832L13.1564 14.484C13.1012 14.3751 13.0302 14.2744 12.9461 14.1856L12.9298 14.1911Z" fill="#222222"/>
<path d="M4.77544 36.9901L4.52641 36.741C1.8571 33.3546 0.879251 28.9349 1.87168 24.7388C2.09065 23.7858 2.78437 23.0126 3.70795 22.6923C3.90712 22.6053 4.13311 22.6053 4.33228 22.6917C4.53136 22.7781 4.68589 22.9437 4.75798 23.1483C4.83034 23.3534 4.81459 23.5787 4.71388 23.7711C4.61344 23.9638 4.43704 24.1058 4.2277 24.1633C3.82162 24.3131 3.51679 24.6553 3.41482 25.076C2.53336 28.7945 3.39934 32.7117 5.76553 35.7121C5.99593 36.0078 6.34252 36.1892 6.71683 36.2102C7.09582 36.2324 7.46635 36.0913 7.73473 35.823L12.735 30.8228C13.0089 30.5454 13.1431 30.1594 13.0997 29.772C13.0752 29.3381 13.4075 28.9667 13.841 28.9424C14.2746 28.9176 14.6463 29.2496 14.6705 29.6831C14.7207 30.5101 14.4124 31.3183 13.8244 31.9011L8.80204 36.9235C8.21515 37.5086 7.40605 37.8143 6.57886 37.7643C5.90494 37.7282 5.26567 37.4535 4.77544 36.9901Z" fill="#222222"/>
</g>
</g>
<defs>
<clipPath id="clip0_0_1173">
<rect width="45" height="45" fill="white" transform="translate(0 0.589844)"/>
</clipPath>
<clipPath id="clip1_0_1173">
<rect width="45" height="29.7" fill="white" transform="translate(0 8.24023)"/>
</clipPath>
</defs>
</svg>
