<svg width="25" height="26" viewBox="0 0 25 26" fill="none" xmlns="http://www.w3.org/2000/svg">
<g clip-path="url(#clip0_0_205)">
<g clip-path="url(#clip1_0_205)">
<g clip-path="url(#clip2_0_205)">
<path d="M6.64739 5.33226C6.37413 5.33226 6.15234 5.11047 6.15234 4.83721V1.02435C6.15234 0.751079 6.37413 0.529297 6.64739 0.529297C6.92066 0.529297 7.14244 0.751079 7.14244 1.02435V4.83721C7.14244 5.11072 6.92091 5.33226 6.64739 5.33226Z" fill="black"/>
<path d="M9.56146 5.33226C9.28819 5.33226 9.06641 5.11047 9.06641 4.83721V1.02435C9.06641 0.751079 9.28819 0.529297 9.56146 0.529297C9.83472 0.529297 10.0565 0.751079 10.0565 1.02435V4.83721C10.0565 5.11072 9.83472 5.33226 9.56146 5.33226Z" fill="black"/>
<path d="M12.5458 5.33226C12.2726 5.33226 12.0508 5.11047 12.0508 4.83721V1.02435C12.0508 0.751079 12.2726 0.529297 12.5458 0.529297C12.8191 0.529297 13.0409 0.751079 13.0409 1.02435V4.83721C13.0409 5.11072 12.8191 5.33226 12.5458 5.33226Z" fill="black"/>
<path d="M16.7183 25.2538H2.47552C2.20225 25.2538 1.98047 25.032 1.98047 24.7587C1.98047 24.4855 2.20225 24.2637 2.47552 24.2637H16.7183C16.9916 24.2637 17.2134 24.4855 17.2134 24.7587C17.2134 25.032 16.9918 25.2538 16.7183 25.2538Z" fill="black"/>
<path d="M18.4328 17.8534H16.8867V16.8633H18.4328C20.2907 16.8633 21.8021 15.3514 21.8021 13.493C21.8021 11.6348 20.2907 10.1229 18.4328 10.1229H16.8867V9.13281H18.4328C20.8367 9.13281 22.7922 11.0888 22.7922 13.493C22.7922 15.8974 20.8367 17.8534 18.4328 17.8534Z" fill="black"/>
<path d="M9.59705 23.5073C5.39729 23.5073 1.98047 20.0902 1.98047 15.8904V6.63672H17.2134V15.8904C17.2134 20.0904 13.7966 23.5073 9.59705 23.5073ZM2.97057 7.62682V15.8904C2.97057 19.5446 5.94309 22.5172 9.59705 22.5172C13.251 22.5172 16.2233 19.5444 16.2233 15.8904V7.62682H2.97057Z" fill="black"/>
</g>
</g>
</g>
<defs>
<clipPath id="clip0_0_205">
<rect width="25" height="25" fill="white" transform="translate(0 0.5)"/>
</clipPath>
<clipPath id="clip1_0_205">
<rect width="25" height="25" fill="white" transform="translate(0 0.5)"/>
</clipPath>
<clipPath id="clip2_0_205">
<rect width="21.0396" height="25" fill="white" transform="translate(1.98047 0.5)"/>
</clipPath>
</defs>
</svg>
