<svg width="45" height="46" viewBox="0 0 45 46" fill="none" xmlns="http://www.w3.org/2000/svg">
<g clip-path="url(#clip0_0_1184)">
<g clip-path="url(#clip1_0_1184)">
<g clip-path="url(#clip2_0_1184)">
<path d="M40.6961 24.8085C40.542 21.7028 38.0316 20.2652 36.3105 19.8112C36.0807 14.4608 32.7809 9.73618 27.8685 7.66863C28.8744 6.05346 28.8762 4.69376 28.7654 3.96756C28.5106 2.29674 27.2946 0.966153 25.7398 0.656619C24.5408 0.418141 23.383 0.826001 22.4997 1.75888C21.6161 0.826001 20.4582 0.418263 19.259 0.656619C17.7043 0.966275 16.4885 2.29686 16.2335 3.96756C16.1227 4.69388 16.1247 6.05419 17.1314 7.66973C12.2184 9.73716 8.91811 14.4607 8.68807 19.8112C6.96711 20.2652 4.4566 21.7028 4.30275 24.8084C4.30202 24.8194 4.32281 25.0332 4.32403 25.0379L9.45255 45.0382C9.53571 45.3628 9.82825 45.5898 10.1633 45.5898H34.8356C35.1707 45.5898 35.4631 45.3629 35.5465 45.0382L40.6749 25.0379C40.6758 25.0337 40.6967 24.819 40.6961 24.8085ZM17.6841 4.18904C17.8463 3.12652 18.5944 2.28549 19.5456 2.09605C20.4358 1.91872 21.2833 2.37379 21.8709 3.34409L21.8726 3.34311C21.932 3.44181 22.0151 3.5279 22.1203 3.59162C22.4671 3.80136 22.9182 3.69068 23.128 3.34397C23.7157 2.37366 24.5637 1.9186 25.4531 2.09605C26.4045 2.28549 27.1526 3.12652 27.3147 4.18904C27.6274 6.23764 25.8332 8.57082 22.4995 10.4772C19.1658 8.57082 17.3716 6.23764 17.6841 4.18904ZM6.03301 25.7946C6.56011 26.0361 6.94901 26.4681 7.3987 26.97C8.05568 27.7034 8.85501 28.5941 10.2551 28.796L13.1562 44.1222H10.7325L6.03301 25.7946ZM16.0216 25.6718L17.4922 44.1222H14.65L11.739 28.7443C12.9664 28.4713 13.7014 27.6526 14.313 26.97C14.8545 26.3655 15.3081 25.862 16.0216 25.6718ZM18.9643 44.1222L17.4977 25.7228C18.1184 25.9426 18.5425 26.4133 19.0411 26.97C19.6768 27.6798 20.4472 28.5351 21.7647 28.7728L21.7655 44.1222H18.9643ZM23.2322 28.7728C24.5495 28.5351 25.3198 27.6797 25.9557 26.97C26.4549 26.4127 26.8794 25.9416 27.501 25.7222L26.0342 44.1222H23.2332L23.2322 28.7728ZM27.5064 44.1222L28.9771 25.6723C29.6895 25.8627 30.1429 26.366 30.6841 26.97C31.2959 27.6529 32.0314 28.4717 33.2596 28.7445L30.3487 44.1222H27.5064ZM34.266 44.1222H31.8423L34.7435 28.7959C36.1431 28.5938 36.9427 27.7034 37.5995 26.97C38.0493 26.4679 38.4385 26.0358 38.9658 25.7945L34.266 44.1222ZM36.5064 25.9907C35.8155 26.7621 35.2697 27.3712 34.1418 27.3712C33.014 27.3712 32.4682 26.762 31.7772 25.9907C31.0313 25.158 30.103 24.1219 28.3198 24.1219C26.5366 24.1219 25.6083 25.1582 24.8626 25.9907C24.1716 26.7621 23.626 27.3712 22.4983 27.3712C21.3709 27.3712 20.8252 26.762 20.1343 25.9907C19.3884 25.158 18.4602 24.1219 16.6771 24.1219C14.894 24.1219 13.9658 25.1582 13.2198 25.9907C12.5291 26.7621 11.9832 27.3712 10.8558 27.3712C9.72833 27.3712 9.18264 26.762 8.49179 25.9907C7.87101 25.2976 7.12182 24.4655 5.85996 24.2053C6.4317 21.6361 9.38101 21.1564 9.51456 21.136C9.87533 21.0836 10.1429 20.7744 10.1429 20.4099C10.1429 15.2826 13.2998 10.7099 18.0489 8.87876C18.9455 9.87572 20.2528 10.9279 22.1473 11.9613C22.2589 12.0221 22.3793 12.051 22.4979 12.051L22.4997 12.0449L22.5011 12.051C22.6199 12.051 22.7403 12.0221 22.852 11.9613C24.7463 10.9279 26.0537 9.87572 26.9502 8.87876C31.6992 10.7099 34.8561 15.2826 34.8561 20.4099C34.8561 20.7743 35.1236 21.0836 35.4843 21.136C35.4933 21.1374 36.4151 21.2828 37.3359 21.8262C38.3163 22.4046 38.9208 23.2031 39.1413 24.2048C37.8778 24.4645 37.1277 25.2972 36.5064 25.9907Z" fill="#222222"/>
</g>
</g>
</g>
<defs>
<clipPath id="clip0_0_1184">
<rect width="45" height="45" fill="white" transform="translate(0 0.589844)"/>
</clipPath>
<clipPath id="clip1_0_1184">
<rect width="45" height="45" fill="white" transform="translate(0 0.589844)"/>
</clipPath>
<clipPath id="clip2_0_1184">
<rect width="37" height="45" fill="white" transform="translate(4 0.589844)"/>
</clipPath>
</defs>
</svg>
