<svg width="26" height="26" viewBox="0 0 26 26" fill="none" xmlns="http://www.w3.org/2000/svg">
<g clip-path="url(#clip0_0_6742)">
<g clip-path="url(#clip1_0_6742)">
<g clip-path="url(#clip2_0_6742)">
<path fill-rule="evenodd" clip-rule="evenodd" d="M24.8943 20.0681C25.0505 20.2634 25.1775 20.4831 25.2605 20.7175C25.3972 21.0056 25.3533 21.3523 25.1384 21.5964C25.0017 21.7234 24.8259 21.7966 24.6404 21.7868C24.5085 21.7868 24.3816 21.7624 24.2546 21.7185C24.0203 21.6355 23.8005 21.5134 23.6052 21.3523C19.6843 21.8992 15.7097 21.9285 11.7839 21.4304C10.5876 21.8503 9.33763 22.241 7.9558 22.6169C7.83861 22.8367 7.68236 23.0368 7.49681 23.2029C7.3308 23.3689 7.11107 23.4665 6.8767 23.4763C6.79369 23.4763 6.71068 23.4617 6.63744 23.4275C6.34447 23.2859 6.16869 22.9831 6.18334 22.6609C6.17357 22.4119 6.20287 22.1628 6.27611 21.9236C4.16185 18.3298 2.55541 14.4577 1.51048 10.4197C1.29076 10.3025 1.09056 10.1462 0.924546 9.96068C0.665757 9.7556 0.572983 9.40404 0.699937 9.1013C0.82689 8.79369 1.13939 8.61302 1.46654 8.65209C1.71556 8.63744 1.96947 8.66673 2.20873 8.73998C5.80248 6.62572 9.66966 5.01927 13.7077 3.97435C13.8249 3.75462 13.9812 3.55443 14.1667 3.38841C14.3718 3.12962 14.7234 3.03685 15.031 3.1638C15.3337 3.29076 15.5193 3.60326 15.4802 3.93041C15.49 4.17943 15.4607 4.43334 15.3874 4.67259C15.6316 5.0974 15.8611 5.51244 16.0857 5.92259C18.6003 5.85423 21.115 5.99095 23.6052 6.33275C23.8005 6.17162 24.0203 6.04955 24.2546 5.96654C24.5427 5.80541 24.904 5.85423 25.1384 6.08861C25.3728 6.32298 25.4216 6.67943 25.2605 6.96751C25.1775 7.20677 25.0505 7.42162 24.8943 7.61693C25.4704 11.7478 25.4704 15.9372 24.8943 20.0681ZM19.2888 17.3191C19.3572 17.2849 19.4353 17.2751 19.5085 17.2995C19.7185 17.3728 19.9382 17.407 20.1579 17.3972C20.3386 17.3874 20.4411 17.3337 20.4607 17.2849C20.4802 17.2361 20.446 17.1286 20.3288 16.9919C20.1775 16.8308 19.9968 16.699 19.7966 16.6013C19.7283 16.5671 19.6745 16.5036 19.655 16.4304C18.6101 12.3581 16.9939 8.45677 14.8552 4.83861C14.8161 4.77513 14.8113 4.69212 14.8357 4.61888C14.9089 4.40892 14.9431 4.18919 14.9333 3.96947C14.9236 3.7888 14.8699 3.69115 14.821 3.67162C14.7771 3.65208 14.6648 3.68138 14.5281 3.80345C14.362 3.94994 14.2351 4.1306 14.1374 4.3308C14.1033 4.39916 14.0398 4.45287 13.9665 4.4724C9.89427 5.51732 5.99291 7.13353 2.37474 9.2722C2.31126 9.31126 2.22826 9.32103 2.15501 9.29662C1.96947 9.23314 1.77904 9.19408 1.58373 9.19408C1.55768 9.19408 1.53164 9.19408 1.5056 9.19408C1.32494 9.20873 1.22728 9.26244 1.20775 9.31126C1.18334 9.35521 1.21751 9.46751 1.3347 9.60423C1.48607 9.76537 1.66673 9.8972 1.86693 9.98998C1.93529 10.0242 1.989 10.0876 2.00853 10.1609C3.05345 14.2331 4.66966 18.1345 6.80834 21.7527C6.8474 21.821 6.85716 21.8992 6.83275 21.9724C6.75462 22.1824 6.72044 22.4021 6.73021 22.6218C6.74486 22.8025 6.79857 22.905 6.8474 22.9245C6.89134 22.9441 6.99877 22.9099 7.14037 22.7927C7.3015 22.6413 7.43334 22.4607 7.52611 22.2605C7.56029 22.1921 7.62376 22.1433 7.69701 22.1238C11.7693 21.0788 15.6706 19.4626 19.2888 17.3191ZM24.3376 7.5681C24.3279 7.49486 24.3523 7.41673 24.4011 7.35814C24.5476 7.19212 24.6648 7.00169 24.7429 6.79662C24.8015 6.62572 24.7869 6.50853 24.7527 6.47435C24.7136 6.43529 24.6013 6.42552 24.4304 6.48412C24.2204 6.56224 24.0349 6.67455 23.8689 6.82591C23.8103 6.87474 23.7322 6.89916 23.654 6.88939C21.2419 6.55248 18.8054 6.41087 16.3689 6.4597C18.0095 9.53587 19.279 12.7976 20.1531 16.1716C20.3728 16.2937 20.573 16.4451 20.739 16.6306C20.9978 16.8357 21.0906 17.1872 20.9636 17.4949C20.8367 17.7976 20.5242 17.9831 20.197 17.9441C19.948 17.9538 19.699 17.9245 19.4597 17.8513C17.3699 19.072 15.1921 20.1267 12.9411 21.0056C16.5056 21.3718 20.1042 21.2986 23.654 20.7956C23.7322 20.7859 23.8103 20.8103 23.8689 20.8591C24.0349 21.0105 24.2204 21.1228 24.4304 21.2009C24.6013 21.2595 24.7136 21.2497 24.7527 21.2107C24.7869 21.1765 24.8015 21.0593 24.7429 20.8884C24.6648 20.6833 24.5476 20.4929 24.4011 20.3269C24.3523 20.2683 24.3279 20.1902 24.3376 20.1169C24.9285 15.9519 24.9285 11.7283 24.3376 7.5681Z" fill="black"/>
</g>
</g>
</g>
<defs>
<clipPath id="clip0_0_6742">
<rect width="25" height="25" fill="white" transform="translate(0.5 0.800781)"/>
</clipPath>
<clipPath id="clip1_0_6742">
<rect width="25" height="25" fill="white" transform="translate(0.5 0.800781)"/>
</clipPath>
<clipPath id="clip2_0_6742">
<rect width="25" height="25" fill="white" transform="translate(0.5 0.800781)"/>
</clipPath>
</defs>
</svg>
