<svg width="26" height="26" viewBox="0 0 26 26" fill="none" xmlns="http://www.w3.org/2000/svg">
<g clip-path="url(#clip0_0_6726)">
<g clip-path="url(#clip1_0_6726)">
<g clip-path="url(#clip2_0_6726)">
<path fill-rule="evenodd" clip-rule="evenodd" d="M16.7256 6.66016C20.4268 8.12988 23.0488 11.7188 23.0488 15.9033C23.0488 21.3916 18.542 25.8594 13 25.8594C7.45801 25.8594 2.95117 21.3916 2.95117 15.9033C2.95117 11.7188 5.57324 8.12988 9.27441 6.66016V4.88769C9.27441 4.22852 9.73828 3.67188 10.3633 3.53516C10.3584 3.47656 10.3535 3.41797 10.3535 3.36426C10.3535 1.91895 11.54 0.742188 13 0.742188C14.4551 0.742188 15.6416 1.91895 15.6416 3.36426C15.6416 3.41797 15.6416 3.47656 15.6367 3.53516C16.2617 3.67188 16.7256 4.22852 16.7256 4.88769V6.66016ZM10.9834 3.36426C10.9834 3.4082 10.9932 3.45215 10.9932 3.49609H15.002C15.0068 3.45215 15.0166 3.4082 15.0166 3.36426C15.0166 2.26562 14.1084 1.37207 13 1.37207C11.8867 1.37207 10.9834 2.26562 10.9834 3.36426ZM9.89941 6.43066C10.876 6.11816 11.916 5.94727 13 5.94727C14.0791 5.94727 15.124 6.11816 16.1006 6.43066V4.88769C16.1006 4.46777 15.749 4.12598 15.3242 4.12598H10.6758C10.2461 4.12598 9.89941 4.46777 9.89941 4.88769V6.43066ZM3.85938 18.1641C3.97168 18.1787 4.0791 18.1885 4.19141 18.1885C5.45605 18.1885 6.48145 17.1631 6.48145 15.8984C6.48145 14.6387 5.45605 13.6133 4.19141 13.6133C4.08398 13.6133 3.97168 13.623 3.85938 13.6377C3.67871 14.3652 3.58105 15.1221 3.58105 15.8984C3.58105 16.6797 3.67871 17.4365 3.85938 18.1641ZM21.9453 18.8086C21.9014 18.8135 21.8525 18.8184 21.8037 18.8184C20.1973 18.8184 18.8887 17.5098 18.8887 15.8984C18.8887 14.292 20.1973 12.9834 21.8037 12.9834C21.8525 12.9834 21.9014 12.9883 21.9453 12.9932C20.71 9.26758 17.165 6.57227 13 6.57227C8.83008 6.57227 5.29004 9.26758 4.0498 12.9932C4.09863 12.9883 4.14746 12.9834 4.19141 12.9834C5.80273 12.9834 7.11133 14.292 7.11133 15.8984C7.11133 17.5098 5.80273 18.8184 4.19141 18.8184C4.14746 18.8184 4.09863 18.8135 4.0498 18.8086C5.29004 22.5342 8.83008 25.2295 13 25.2295C17.1699 25.2295 20.71 22.5342 21.9453 18.8086ZM22.1357 13.6377C22.0283 13.623 21.916 13.6133 21.8037 13.6133C20.5439 13.6133 19.5186 14.6387 19.5186 15.8984C19.5186 17.1631 20.5439 18.1885 21.8037 18.1885C21.916 18.1885 22.0283 18.1787 22.1357 18.1592C22.3213 17.4365 22.4189 16.6797 22.4189 15.8984C22.4189 15.1221 22.3213 14.3652 22.1357 13.6377Z" fill="black"/>
<path fill-rule="evenodd" clip-rule="evenodd" d="M12.9902 18.8184C11.3789 18.8184 10.0752 17.5146 10.0752 15.9033C10.0752 14.292 11.3789 12.9883 12.9902 12.9883C14.6016 12.9883 15.9053 14.292 15.9053 15.9033C15.9053 17.5146 14.6016 18.8184 12.9902 18.8184ZM15.2803 15.9033C15.2803 14.6387 14.2549 13.6133 12.9902 13.6133C11.7256 13.6133 10.7002 14.6387 10.7002 15.9033C10.7002 17.168 11.7256 18.1885 12.9902 18.1885C14.2549 18.1885 15.2803 17.168 15.2803 15.9033Z" fill="black"/>
</g>
</g>
</g>
<defs>
<clipPath id="clip0_0_6726">
<rect width="25" height="25" fill="white" transform="translate(0.5 0.800781)"/>
</clipPath>
<clipPath id="clip1_0_6726">
<rect width="25" height="25" fill="white" transform="translate(0.5 0.800781)"/>
</clipPath>
<clipPath id="clip2_0_6726">
<rect width="25" height="25" fill="white" transform="translate(0.5 0.800781)"/>
</clipPath>
</defs>
</svg>
