<svg width="41" height="41" viewBox="0 0 41 41" fill="none" xmlns="http://www.w3.org/2000/svg">
<g clip-path="url(#clip0_0_802)">
<g clip-path="url(#clip1_0_802)">
<g clip-path="url(#clip2_0_802)">
<path d="M40.3866 28.3066C40.1997 28.6555 39.9012 28.7605 39.518 28.7492C38.9406 28.7306 38.3622 28.744 37.7539 28.744C37.6919 30.0346 37.2127 31.0936 36.2046 31.8779C35.4548 32.4614 34.5934 32.73 33.6432 32.6971C32.0133 32.6415 30.0127 31.4302 29.8423 28.7728C25.2038 28.7728 20.5642 28.7728 15.8906 28.7728C15.8296 30.083 15.3184 31.1647 14.2494 31.9479C13.4933 32.5016 12.6381 32.7445 11.7034 32.693C10.1738 32.6086 8.17111 31.4878 7.98107 28.744C7.84886 28.744 7.71253 28.744 7.57619 28.744C6.64663 28.744 5.71707 28.7492 4.7875 28.743C3.89099 28.7368 3.3756 28.2171 3.36837 27.3227C3.36527 26.9275 3.36734 26.5323 3.36734 26.0938C2.78584 26.0938 2.2467 26.0949 1.70755 26.0928C1.55262 26.0928 1.39563 26.099 1.2438 26.0774C0.934974 26.0321 0.759391 25.8314 0.733569 25.5329C0.705682 25.2129 0.866806 24.9875 1.18079 24.899C1.30267 24.864 1.43591 24.8609 1.56398 24.8609C3.40968 24.8588 5.25642 24.8588 7.10211 24.8598C7.19197 24.8598 7.2839 24.8588 7.37272 24.8732C7.71563 24.9288 7.93975 25.1912 7.92426 25.5093C7.90877 25.8304 7.66915 26.0794 7.31591 26.0856C6.5671 26.1 5.81827 26.0918 5.06947 26.0928C4.93107 26.0928 4.79267 26.0928 4.63154 26.0928C4.63154 26.5724 4.63154 27.0036 4.63154 27.4688C4.72656 27.4812 4.82365 27.5059 4.92177 27.5059C5.9288 27.509 6.93583 27.5007 7.94285 27.5131C8.16285 27.5152 8.24651 27.4277 8.33534 27.2393C9.04697 25.7244 10.2523 24.8794 11.9296 24.8753C13.6224 24.8722 14.8412 25.713 15.5528 27.2507C15.6427 27.4452 15.7449 27.5121 15.9567 27.5121C20.0488 27.5059 24.142 27.5079 28.2341 27.5069C28.3219 27.5069 28.4097 27.4925 28.5399 27.4822C28.5399 27.3289 28.5399 27.192 28.5399 27.0541C28.5399 25.7552 28.5399 24.4554 28.5399 23.1565C28.5399 23.0536 28.5347 22.9497 28.543 22.8478C28.5729 22.4855 28.8301 22.2272 29.1565 22.222C29.5035 22.2169 29.7741 22.4814 29.7762 22.8704C29.7844 24.2598 29.7803 25.6492 29.7803 27.0386C29.7803 27.1282 29.7638 27.2229 29.7865 27.3073C29.8061 27.3783 29.866 27.4843 29.9166 27.4905C29.9848 27.4977 30.0685 27.4308 30.1304 27.3783C30.1645 27.3495 30.1666 27.2846 30.1893 27.2383C30.9092 25.7264 32.1114 24.8815 33.7878 24.8763C35.4816 24.8712 36.6983 25.7172 37.4131 27.2507C37.5039 27.4462 37.601 27.5213 37.8138 27.5131C38.2373 27.4987 38.6618 27.509 39.1152 27.509C39.1152 26.5992 39.1152 25.7192 39.1152 24.7734C38.8993 24.7734 38.6731 24.7785 38.4469 24.7724C37.3087 24.7415 36.5176 23.9408 36.501 22.8046C36.4949 22.4063 36.4949 22.0069 36.501 21.6086C36.5093 21.128 36.7303 20.9078 37.2199 20.9016C37.8004 20.8944 38.3808 20.8995 39.0129 20.8995C38.9189 20.4909 38.7155 20.1688 38.4015 19.9836C38.0462 19.7736 37.6341 19.5348 37.2426 19.5287C34.8165 19.4875 32.3882 19.507 29.9611 19.507C29.9125 19.507 29.864 19.5225 29.7782 19.5369C29.7782 19.7623 29.7865 19.9774 29.7762 20.1925C29.7576 20.563 29.5128 20.811 29.174 20.8172C28.8394 20.8234 28.5791 20.5774 28.544 20.2131C28.5326 20.0978 28.5388 19.9815 28.5388 19.8662C28.5388 16.3927 28.5388 12.9192 28.5388 9.4457C28.5388 9.29338 28.5388 9.14003 28.5388 8.96198C20.5642 8.96198 12.6175 8.96198 4.60779 8.96198C4.60779 9.10813 4.60779 9.25633 4.60779 9.40453C4.60779 12.8904 4.60779 16.3773 4.60779 19.8631C4.60779 19.9918 4.61398 20.1215 4.60056 20.2491C4.56544 20.5939 4.3599 20.7904 4.02216 20.8121C3.69888 20.8326 3.48198 20.6536 3.39832 20.3448C3.36217 20.211 3.36734 20.0649 3.36734 19.9239C3.3663 16.3474 3.36527 12.771 3.3663 9.19458C3.3694 8.19523 3.8662 7.7002 4.86806 7.7002C12.6784 7.7002 20.4898 7.7002 28.3002 7.7002C29.2887 7.7002 29.7793 8.18597 29.7824 9.16268C29.7834 9.53421 29.7824 9.90472 29.7824 10.3143C29.9456 10.3215 30.0819 10.3339 30.2182 10.3339C31.5475 10.3349 32.8788 10.3617 34.2071 10.3277C35.8772 10.2855 37.3356 11.4331 37.0443 13.6921C37.0175 13.898 36.7985 14.0781 36.6188 14.3467C36.9132 15.522 37.2302 16.8054 37.5628 18.0837C37.5886 18.1825 37.7033 18.307 37.7993 18.3317C39.1854 18.6878 40.0262 19.5585 40.3319 20.9489C40.3401 20.985 40.368 21.0158 40.3856 21.0498C40.3866 23.4694 40.3866 25.888 40.3866 28.3066ZM36.2934 18.2494C36.2718 18.129 36.2583 18.0291 36.2346 17.9314C35.9598 16.8229 35.6748 15.7165 35.4114 14.605C35.3443 14.322 35.2327 14.2139 34.9239 14.218C33.3509 14.2355 31.7768 14.2252 30.2027 14.2273C30.0767 14.2273 29.9518 14.2386 29.8165 14.2448C29.8165 15.5992 29.8165 16.9248 29.8165 18.2504C31.9896 18.2494 34.1276 18.2494 36.2934 18.2494ZM33.8167 31.4652C35.2844 31.459 36.499 30.2425 36.498 28.779C36.4969 27.3145 35.2833 26.1072 33.8094 26.1021C32.3242 26.0969 31.09 27.332 31.1085 28.8047C31.1271 30.2734 32.348 31.4724 33.8167 31.4652ZM11.9461 31.4652C13.4179 31.4641 14.6253 30.2621 14.6336 28.7893C14.6429 27.3258 13.4396 26.1175 11.9595 26.1021C10.4775 26.0866 9.24424 27.3124 9.25043 28.7944C9.25766 30.259 10.4764 31.4662 11.9461 31.4652ZM29.8061 11.5761C29.8061 12.0722 29.8061 12.5034 29.8061 12.9521C31.8191 12.9521 33.8094 12.9521 35.7987 12.9521C35.8214 12.1525 35.2389 11.5874 34.392 11.5782C33.4634 11.5689 32.5349 11.5761 31.6074 11.5761C31.0156 11.5761 30.4258 11.5761 29.8061 11.5761ZM39.1245 22.1623C38.6597 22.1623 38.2166 22.1623 37.7776 22.1623C37.6248 23.349 37.9481 23.668 39.1245 23.4951C39.1245 23.067 39.1245 22.6347 39.1245 22.1623Z" fill="#4A5568"/>
<path d="M15.9316 19.3236C17.4809 17.7757 19.0033 16.2555 20.5257 14.7354C20.817 14.4441 21.1041 14.1467 21.4037 13.8637C21.698 13.5848 22.0451 13.5734 22.3022 13.8153C22.5656 14.0633 22.5687 14.4452 22.2743 14.7395C20.3161 16.6991 18.3537 18.6556 16.3861 20.6059C16.0742 20.9157 15.7519 20.9054 15.4328 20.5905C14.3596 19.5315 13.2927 18.4663 12.2278 17.3979C11.9221 17.0902 11.9076 16.7372 12.1659 16.4747C12.4365 16.1999 12.7907 16.2174 13.1202 16.5416C13.9548 17.365 14.7831 18.1955 15.6145 19.023C15.7034 19.1116 15.7984 19.197 15.9316 19.3236Z" fill="#4A5568"/>
<path d="M21.8706 26.0941C20.4246 26.0941 18.9796 26.0941 17.5336 26.093C17.4045 26.093 17.2744 26.0971 17.1474 26.0786C16.8179 26.0302 16.6412 25.8131 16.6277 25.5012C16.6143 25.2048 16.7703 24.9805 17.0708 24.9002C17.2051 24.8642 17.3518 24.8601 17.4922 24.8601C20.4224 24.858 23.3516 24.858 26.2818 24.859C26.3716 24.859 26.4636 24.857 26.5525 24.8683C26.9159 24.9177 27.1545 25.1884 27.1328 25.5177C27.1122 25.8378 26.8715 26.0745 26.5162 26.0869C26.0525 26.1023 25.5868 26.093 25.1229 26.093C24.0384 26.0951 22.955 26.0941 21.8706 26.0941Z" fill="#4A5568"/>
<path d="M6.64709 23.4539C5.37049 23.4539 4.09285 23.4549 2.81625 23.4529C2.32875 23.4518 2.04575 23.2203 2.04885 22.8364C2.05195 22.4597 2.34631 22.2209 2.82761 22.2199C5.38185 22.2178 7.93608 22.2199 10.4903 22.2178C10.7836 22.2178 11.0614 22.2888 11.1565 22.5739C11.2174 22.7561 11.2143 23.0484 11.1048 23.1739C10.9695 23.3304 10.6948 23.4384 10.4779 23.4426C9.20132 23.4662 7.92369 23.4539 6.64709 23.4539Z" fill="#4A5568"/>
<path d="M33.8064 27.5137C34.5201 27.5158 35.0892 28.0828 35.0851 28.7878C35.082 29.4856 34.4943 30.0681 33.7981 30.0661C33.0989 30.064 32.5205 29.4805 32.5215 28.7806C32.5236 28.0715 33.0917 27.5116 33.8064 27.5137Z" fill="#4A5568"/>
<path d="M11.9299 27.5127C12.6487 27.5065 13.2116 28.0582 13.2168 28.7724C13.2219 29.4815 12.658 30.0579 11.9536 30.0651C11.2606 30.0723 10.6657 29.4887 10.6564 28.794C10.6461 28.0952 11.2193 27.5178 11.9299 27.5127Z" fill="#4A5568"/>
</g>
</g>
</g>
<defs>
<clipPath id="clip0_0_802">
<rect width="40" height="40" fill="white" transform="translate(0.730469 0.200195)"/>
</clipPath>
<clipPath id="clip1_0_802">
<rect width="40" height="40" fill="white" transform="translate(0.730469 0.200195)"/>
</clipPath>
<clipPath id="clip2_0_802">
<rect width="40" height="25" fill="white" transform="translate(0.730469 7.7002)"/>
</clipPath>
</defs>
</svg>
