<svg width="41" height="41" viewBox="0 0 41 41" fill="none" xmlns="http://www.w3.org/2000/svg">
<g clip-path="url(#clip0_0_814)">
<g clip-path="url(#clip1_0_814)">
<path d="M33.814 7.712C33.8333 8.14903 33.8593 8.58492 33.8718 9.02195C33.8831 9.39687 34.061 9.63176 34.4249 9.72323C35.0689 9.88472 35.7162 10.0349 36.3578 10.2066C36.6844 10.2935 37.012 10.3929 37.3215 10.5273C38.4857 11.0298 38.9494 11.9739 38.5708 13.1743C38.3769 13.7886 38.0935 14.3781 37.8146 14.9619C37.1265 16.3972 37.1321 16.4277 38.3951 17.4283C38.8712 17.8054 39.353 18.1849 39.769 18.623C40.7383 19.6439 40.7463 20.7663 39.7623 21.7771C39.2135 22.3418 38.5685 22.8138 37.9631 23.323C37.2285 23.9396 37.198 24.0526 37.5925 24.9402C37.8962 25.6222 38.2488 26.2862 38.4993 26.9876C39.0141 28.4285 38.5242 29.4562 37.0777 29.961C36.3601 30.2116 35.6029 30.3494 34.8648 30.538C33.9534 30.7706 33.8888 30.8372 33.8479 31.761C33.8151 32.4939 33.8423 33.2302 33.789 33.9609C33.6824 35.4233 32.771 36.2679 31.431 36.1662C31.0229 36.1358 30.617 36.0602 30.2145 35.9845C29.6863 35.8851 29.1602 35.7722 28.6376 35.6491C28.1672 35.5385 27.8396 35.6942 27.6287 36.1245C27.369 36.6564 27.1197 37.195 26.8306 37.7111C26.5982 38.1278 26.3545 38.5502 26.0449 38.9105C25.4215 39.6342 24.5724 39.8206 23.7017 39.422C23.2573 39.2187 22.8492 38.9251 22.4468 38.6417C22.0421 38.3582 21.6713 38.0262 21.2722 37.7337C20.6193 37.2549 20.447 37.2538 19.8042 37.7246C19.4052 38.0172 19.0333 38.3481 18.6309 38.6338C18.2398 38.9116 17.8464 39.1995 17.4156 39.4017C16.5007 39.8319 15.604 39.6411 14.9726 38.855C14.6143 38.409 14.3502 37.8851 14.0679 37.3825C13.8333 36.9646 13.6292 36.5299 13.4194 36.0996C13.2153 35.6807 12.89 35.5452 12.441 35.6445C11.7643 35.7948 11.0886 35.9517 10.4062 36.0692C10.0196 36.1358 9.61487 36.1764 9.22602 36.1437C8.21028 36.0579 7.53574 35.4774 7.3691 34.4724C7.25459 33.7823 7.24439 33.0698 7.24099 32.3662C7.23192 30.7751 7.24326 30.7807 5.67768 30.4126C5.08704 30.2738 4.4896 30.1394 3.9205 29.9349C2.57486 29.4516 2.06697 28.4308 2.53292 27.0802C2.78912 26.3371 3.16436 25.6358 3.48405 24.9142C3.86269 24.0594 3.83095 23.934 3.11334 23.3309C2.51817 22.8318 1.88446 22.3689 1.34144 21.8178C0.304138 20.7653 0.305272 19.6258 1.34597 18.5733C1.8992 18.0132 2.54538 17.5435 3.15076 17.033C3.81848 16.4707 3.85702 16.3159 3.50105 15.513C3.1927 14.8174 2.82993 14.1421 2.57258 13.4284C2.04657 11.9637 2.53518 10.9372 4.00553 10.4279C4.72428 10.1795 5.48042 10.0417 6.21957 9.8531C7.10495 9.62611 7.17523 9.55384 7.21491 8.65607C7.24779 7.92316 7.22286 7.18688 7.27386 6.45624C7.38497 4.87527 8.32704 4.09719 9.90736 4.25755C10.2304 4.2903 10.5513 4.35128 10.8698 4.41451C11.397 4.51841 11.923 4.62908 12.4468 4.74879C12.8991 4.85267 13.2188 4.70474 13.4229 4.2903C13.628 3.87247 13.8333 3.45464 14.052 3.04471C14.2844 2.60994 14.4998 2.16049 14.7844 1.76073C15.528 0.718409 16.5756 0.485778 17.6854 1.12946C18.1956 1.42533 18.6694 1.79348 19.1319 2.16275C20.5173 3.27057 20.5468 3.27169 21.9218 2.17291C22.3844 1.80364 22.856 1.43324 23.3662 1.13511C24.4862 0.480133 25.5518 0.718409 26.2967 1.78218C26.5948 2.20679 26.8193 2.68447 27.0653 3.14409C27.2784 3.54159 27.4757 3.947 27.6797 4.35015C27.8656 4.71716 28.1649 4.84138 28.5606 4.75895C29.2533 4.61327 29.9425 4.45743 30.6385 4.3287C30.9708 4.26658 31.3142 4.22028 31.6509 4.23044C32.915 4.26998 33.6688 5.04014 33.7902 6.40091C33.8287 6.83568 33.8321 7.27384 33.8513 7.71087C33.8377 7.71087 33.8264 7.712 33.814 7.712ZM9.07298 32.5831C9.07298 33.0167 9.06391 33.4402 9.07525 33.8626C9.08545 34.2397 9.2657 34.4363 9.67155 34.3538C10.2815 34.2295 10.8925 34.1166 11.5013 33.9891C13.5826 33.5532 14.4261 33.963 15.3432 35.8647C15.545 36.2837 15.7423 36.7061 15.9589 37.1171C16.3919 37.9393 16.5053 37.9652 17.2376 37.4175C17.6344 37.1217 18.0175 36.8089 18.4064 36.5017C19.9912 35.2493 21.0466 35.2447 22.6316 36.4847C23.0998 36.8506 23.5589 37.2278 24.043 37.5711C24.5452 37.9268 24.654 37.9043 24.9556 37.3577C25.316 36.7038 25.6176 36.0172 25.9792 35.3634C26.7184 34.0229 27.563 33.6254 29.0719 33.8998C29.7679 34.0263 30.4527 34.207 31.1487 34.329C31.8493 34.4521 31.9774 34.3425 32.0001 33.6356C32.0216 32.9727 31.9978 32.3086 32.0228 31.6458C32.0852 30.0095 32.6791 29.2619 34.2583 28.8339C34.8728 28.6679 35.4985 28.5482 36.1142 28.3878C36.9655 28.1654 37.0222 28.0479 36.6719 27.2541C36.376 26.5833 36.0428 25.9294 35.7582 25.2541C35.2764 24.1091 35.4929 23.1028 36.4293 22.2661C36.5982 22.1147 36.766 21.9634 36.9406 21.8199C37.3669 21.4699 37.8066 21.1357 38.2228 20.7743C38.7906 20.2797 38.7896 20.1114 38.2114 19.6123C37.7511 19.2148 37.266 18.8466 36.7966 18.4615C35.4294 17.3413 35.197 16.3905 35.9089 14.7756C36.1765 14.1692 36.4837 13.5809 36.7433 12.971C36.9973 12.3748 36.9337 12.2437 36.3023 12.0687C35.5529 11.8609 34.7911 11.7006 34.0418 11.4973C32.8458 11.1732 32.1463 10.4155 32.0658 9.15521C32.0329 8.64929 32.0306 8.14112 32.016 7.63408C32.0046 7.26706 32.0023 6.90004 31.9854 6.53416C31.9684 6.15811 31.796 5.95936 31.389 6.0418C30.7791 6.16602 30.167 6.27556 29.5593 6.40656C27.4983 6.85262 26.639 6.43366 25.7174 4.53083C25.4782 4.03622 25.2413 3.5382 24.9737 3.05826C24.6562 2.49024 24.5293 2.46426 23.9953 2.85161C23.5146 3.19942 23.059 3.58224 22.5885 3.94474C21.041 5.13726 19.9992 5.13386 18.4642 3.9357C18.4087 3.89167 18.3553 3.84537 18.2998 3.80246C17.8736 3.47496 17.4575 3.13392 17.0176 2.82563C16.5132 2.47104 16.4055 2.49137 16.105 3.03681C15.7446 3.69178 15.443 4.37726 15.0825 5.0311C14.3445 6.37155 13.5056 6.7668 11.9899 6.49464C11.2938 6.37042 10.6091 6.1886 9.91303 6.06665C9.21016 5.94355 9.08432 6.05196 9.06165 6.76002C9.04125 7.4229 9.06505 8.08691 9.03897 8.74979C8.97435 10.3929 8.38712 11.1292 6.8034 11.5617C6.2309 11.7175 5.64706 11.835 5.07117 11.9795C4.06109 12.2337 4.0248 12.3161 4.44086 13.2579C4.77076 14.0043 5.12898 14.7418 5.41127 15.5062C5.74683 16.4142 5.50423 17.2284 4.83991 17.9172C4.61431 18.151 4.36944 18.3667 4.12117 18.5756C3.70965 18.9212 3.27773 19.243 2.87301 19.5954C2.26197 20.1273 2.26197 20.2751 2.88548 20.8116C3.43077 21.2825 4.018 21.707 4.55082 22.1915C5.61759 23.1638 5.80578 24.0062 5.26616 25.3467C5.01902 25.9599 4.70953 26.5494 4.43745 27.1535C4.0248 28.0706 4.07128 28.162 5.04623 28.4127C5.81258 28.6092 6.59027 28.7707 7.34189 29.0134C8.32704 29.3308 8.87119 30.0468 8.97663 31.0733C9.02537 31.578 9.04125 32.0851 9.07298 32.5831Z" fill="#4A5568"/>
<path d="M14.1796 27.5535C13.8803 27.3265 13.5822 27.1819 13.4053 26.9471C13.1877 26.6579 13.2341 26.3011 13.4541 25.9985C13.5447 25.8743 13.6581 25.7647 13.768 25.6552C17.8459 21.592 21.9236 17.53 26.0026 13.468C26.1227 13.3483 26.2429 13.2253 26.3812 13.1293C26.7292 12.8898 27.2167 12.943 27.5126 13.2366C27.8095 13.5302 27.8651 14.0135 27.627 14.3635C27.533 14.5025 27.4083 14.6222 27.2892 14.7418C23.2024 18.8152 19.1156 22.8884 15.0207 26.955C14.8031 27.1718 14.514 27.3186 14.1796 27.5535Z" fill="#4A5568"/>
<path d="M19.1683 15.6925C19.1626 17.4361 17.7172 18.8567 15.9623 18.842C14.2346 18.8285 12.8073 17.3886 12.8164 15.6687C12.8255 13.9455 14.2528 12.5237 15.9839 12.5147C17.7263 12.5057 19.1739 13.9489 19.1683 15.6925ZM14.645 15.6756C14.6427 16.4164 15.2391 17.0273 15.9782 17.0409C16.7185 17.0533 17.3691 16.4051 17.359 15.6676C17.3488 14.9314 16.7354 14.3351 15.9918 14.3363C15.2345 14.3373 14.6473 14.9223 14.645 15.6756Z" fill="#4A5568"/>
<path d="M21.8906 24.7211C21.8883 22.991 23.3054 21.5659 25.0365 21.5557C26.7914 21.5455 28.2357 22.9674 28.2414 24.7109C28.247 26.4444 26.7869 27.8943 25.0478 27.883C23.3155 27.8707 21.8928 26.4467 21.8906 24.7211ZM26.4138 24.7188C26.415 23.978 25.8165 23.3671 25.0784 23.357C24.3416 23.3457 23.6886 23.9983 23.701 24.7335C23.7135 25.4686 24.3279 26.065 25.0705 26.0615C25.8209 26.0581 26.4117 25.4686 26.4138 24.7188Z" fill="#4A5568"/>
</g>
</g>
<defs>
<clipPath id="clip0_0_814">
<rect width="40" height="40" fill="white" transform="translate(0.560547 0.200195)"/>
</clipPath>
<clipPath id="clip1_0_814">
<rect width="40" height="38.8571" fill="white" transform="translate(0.560547 0.771484)"/>
</clipPath>
</defs>
</svg>
