<svg width="25" height="26" viewBox="0 0 25 26" fill="none" xmlns="http://www.w3.org/2000/svg">
<g clip-path="url(#clip0_0_259)">
<g clip-path="url(#clip1_0_259)">
<g clip-path="url(#clip2_0_259)">
<path d="M12.4168 24.2575C12.4168 24.4808 12.2357 24.662 12.0123 24.662H7.11445C6.41487 24.662 5.8457 24.0928 5.8457 23.3932V11.1213C5.8457 9.20099 7.00738 7.46652 8.76476 6.71858V2.7222C8.61494 2.58122 8.52475 2.38212 8.52475 2.16787V1.26105C8.52475 0.937784 8.73015 0.648894 9.03591 0.542178C9.11709 0.514098 9.20087 0.5 9.2858 0.5H11.9718C12.0568 0.5 12.1406 0.514098 12.2209 0.541947C12.5275 0.649009 12.7329 0.937899 12.7329 1.26111V2.16793C12.7329 2.38217 12.6427 2.58122 12.4929 2.72225V6.71864C13.4665 7.13325 14.2798 7.86097 14.8027 8.79204C14.912 8.98679 14.8428 9.23341 14.6481 9.34276C14.4532 9.45204 14.2068 9.38284 14.0973 9.18816C13.6228 8.34301 12.8611 7.69931 11.9527 7.37563C11.7915 7.31826 11.684 7.16567 11.684 6.99465V2.92899H11.5921C11.3687 2.92899 11.1876 2.74791 11.1876 2.52454C11.1876 2.30117 11.3687 2.12009 11.5921 2.12009H11.924V1.30883H9.33364V2.12009H9.66563C9.889 2.12009 10.0701 2.30117 10.0701 2.52454C10.0701 2.74791 9.889 2.92899 9.66563 2.92899H9.57365V6.99459C9.57365 7.16561 9.46607 7.31815 9.30498 7.37558C7.71967 7.94053 6.65454 9.44591 6.65454 11.1213V23.3932C6.65454 23.6467 6.8608 23.853 7.11439 23.853H12.0123C12.2357 23.853 12.4168 24.0341 12.4168 24.2575ZM8.96895 8.65921C8.09881 9.1551 7.55824 10.0815 7.55824 11.0767V22.0797C7.55824 22.3031 7.73932 22.4841 7.96269 22.4841C8.18606 22.4841 8.36713 22.3031 8.36713 22.0797V11.0767C8.36713 10.3714 8.75118 9.71437 9.36946 9.36195C9.56354 9.25131 9.63114 9.00437 9.52055 8.81034C9.40996 8.61623 9.16296 8.54853 8.96895 8.65921ZM17.2456 15.8671C17.0238 15.8936 16.8655 16.0949 16.8919 16.3166C16.9354 16.6811 16.8121 17.0478 16.5447 17.349C16.2124 17.7232 15.7138 17.9467 15.2109 17.9467C14.9876 17.9467 14.8065 18.1278 14.8065 18.3512C14.8065 18.5745 14.9876 18.7557 15.2109 18.7557C15.9415 18.7557 16.6662 18.4305 17.1496 17.886C17.5727 17.4094 17.7664 16.8181 17.6951 16.2208C17.6687 15.999 17.4675 15.8404 17.2456 15.8671ZM18.2779 18.9835C17.6027 19.7441 16.6295 20.2341 15.6154 20.3383V24.691H16.9031C17.1265 24.691 17.3075 24.872 17.3075 25.0954C17.3075 25.3188 17.1265 25.4999 16.9031 25.4999H15.2178C15.2155 25.4999 15.2132 25.4999 15.2109 25.4999C15.2086 25.4999 15.2064 25.4999 15.204 25.4999H13.5188C13.2954 25.4999 13.1143 25.3188 13.1143 25.0954C13.1143 24.872 13.2954 24.691 13.5188 24.691H14.8065V20.3383C13.7923 20.2341 12.8192 19.7441 12.1439 18.9834C11.4829 18.2386 11.1799 17.317 11.2909 16.3882L11.5859 13.918C11.5865 13.9126 11.5872 13.9073 11.5879 13.902L11.9212 11.1104C11.9455 10.9071 12.118 10.754 12.3228 10.754H18.0991C18.304 10.754 18.4765 10.9071 18.5007 11.1104L19.1311 16.3883C19.2419 17.3171 18.939 18.2388 18.2779 18.9835ZM18.3278 16.4841L17.74 11.5628H12.6818L12.4193 13.761C13.5075 14.4192 15.3211 14.3838 16.8471 13.6509C17.0483 13.5541 17.2901 13.639 17.3868 13.8403C17.4835 14.0416 17.3987 14.2832 17.1973 14.38C15.5475 15.1725 13.6443 15.2482 12.3165 14.622L12.0941 16.4841C12.011 17.1802 12.2435 17.877 12.7488 18.4464C13.3624 19.1375 14.2827 19.5502 15.2109 19.5502C16.139 19.5502 17.0594 19.1375 17.673 18.4464C18.1783 17.8771 18.411 17.1802 18.3278 16.4841Z" fill="#222222"/>
</g>
</g>
</g>
<defs>
<clipPath id="clip0_0_259">
<rect width="25" height="25" fill="white" transform="translate(0 0.5)"/>
</clipPath>
<clipPath id="clip1_0_259">
<rect width="25" height="25" fill="white" transform="translate(0 0.5)"/>
</clipPath>
<clipPath id="clip2_0_259">
<rect width="13.7097" height="25" fill="white" transform="translate(5.64453 0.5)"/>
</clipPath>
</defs>
</svg>
