<svg width="25" height="26" viewBox="0 0 25 26" fill="none" xmlns="http://www.w3.org/2000/svg">
<g clip-path="url(#clip0_0_234)">
<g clip-path="url(#clip1_0_234)">
<g clip-path="url(#clip2_0_234)">
<path d="M1.66539 16.4891C1.73967 16.2417 1.987 16.0931 2.23435 16.1674L4.2385 16.7117L6.21777 15.6232L3.79325 14.2131C3.57061 14.0894 3.49632 13.8171 3.61999 13.5945C3.74365 13.3719 4.01588 13.2976 4.23852 13.4213L7.13324 15.1036L11.6113 12.6295L7.40526 9.78438L4.56013 11.442C4.48584 11.4914 4.41177 11.5163 4.33749 11.5163C4.18913 11.5163 4.04057 11.442 3.94159 11.2936C3.81793 11.071 3.89221 10.7988 4.11486 10.6751L6.58896 9.24009L4.63439 7.92872L2.45717 8.54725C2.40778 8.54725 2.38289 8.57196 2.33351 8.57196C2.13556 8.57196 1.9623 8.44828 1.88823 8.25034C1.81394 8.003 1.96251 7.75547 2.20984 7.68137L3.64487 7.28548L2.45742 6.49371C2.25946 6.34535 2.18518 6.07312 2.33374 5.85052C2.48211 5.65256 2.75433 5.57829 2.97695 5.72685L4.01608 6.41967L3.71917 5.15793C3.66978 4.9106 3.81813 4.66306 4.06546 4.61368C4.3128 4.56429 4.56033 4.71265 4.60971 4.95998L5.12927 7.18657L7.00956 8.44831L7.18281 5.67726C7.20751 5.42993 7.40545 5.23198 7.65278 5.25667C7.90012 5.28137 8.09806 5.47931 8.07337 5.72665L7.87543 9.04196L12.0317 11.813V6.29577L9.16188 4.48978C8.93924 4.36611 8.88965 4.06918 9.01352 3.87123C9.13719 3.64859 9.43411 3.599 9.63206 3.72287L12.0319 5.20726V3.25271L10.3249 1.71873C10.1269 1.54548 10.1269 1.27345 10.3002 1.07553C10.4735 0.877582 10.7455 0.877582 10.9434 1.05084L12.0319 2.04035L12.0317 1.39715C12.0317 1.14981 12.2296 0.951871 12.477 0.951871C12.7243 0.951871 12.9222 1.14982 12.9222 1.39715V2.04035L13.986 1.0755C14.1842 0.877547 14.4812 0.902445 14.6541 1.0755C14.8275 1.24875 14.8025 1.54547 14.6295 1.71869L12.9471 3.25267V5.20723L15.4953 3.69813C15.7179 3.57447 15.9902 3.64874 16.1139 3.84649C16.2376 4.06912 16.1633 4.34136 15.9656 4.46503L12.9471 6.24636V11.8874L16.881 9.71019L16.6337 6.46917C16.609 6.22184 16.8069 5.99921 17.0542 5.9743C17.3016 5.94961 17.5243 6.14756 17.5491 6.3949L17.7471 9.21531L19.9985 7.97823L20.6914 5.85059C20.7657 5.60325 21.0377 5.47938 21.2603 5.55367C21.5077 5.62794 21.6316 5.89997 21.5573 6.12262L21.1614 7.335L22.1263 6.81544C22.3489 6.69178 22.6212 6.76605 22.7448 6.98869C22.8684 7.21134 22.7941 7.48356 22.5715 7.60724L21.6314 8.1268L23.1403 8.49779C23.3878 8.54738 23.5362 8.79472 23.4621 9.04205C23.4127 9.23999 23.2147 9.38835 23.0169 9.38835H22.9178L20.4438 8.81938L18.2419 10.0318L20.617 11.4914C20.8397 11.6151 20.8893 11.912 20.7654 12.11C20.6912 12.2583 20.5181 12.3326 20.3695 12.3326C20.2952 12.3326 20.1963 12.3079 20.1221 12.2583L17.3018 10.5264L13.3679 12.7037L16.8315 15.0293L19.9242 13.4707C20.1469 13.3471 20.4191 13.4461 20.5427 13.6687C20.6664 13.8913 20.5675 14.1636 20.3448 14.2873L17.7223 15.5986L20.1222 17.2067L22.5963 16.7614C22.8437 16.712 23.0912 16.885 23.1159 17.1326C23.1653 17.3799 22.9922 17.6275 22.7447 17.6521L21.2107 17.9244L22.2745 18.6419C22.4725 18.7902 22.5468 19.0625 22.3982 19.2851C22.2993 19.4087 22.1756 19.483 22.027 19.483C21.9279 19.483 21.8537 19.4583 21.7796 19.4087L20.8147 18.7655L21.2601 20.2995C21.3344 20.5468 21.1858 20.7944 20.9384 20.8685C20.889 20.8685 20.8641 20.8932 20.8147 20.8932C20.6169 20.8932 20.4435 20.7695 20.3695 20.5716L19.6273 17.9985L17.3264 16.4645L17.549 19.4086C17.5738 19.6558 17.3758 19.8786 17.1285 19.9035H17.1038C16.8565 19.9035 16.6585 19.7301 16.6585 19.4829L16.3863 15.8212L12.9473 13.4955V18.691L15.941 20.225C16.1637 20.3487 16.2627 20.6208 16.139 20.8436C16.0153 21.0662 15.7431 21.1651 15.5204 21.0414L12.9473 19.7301V21.9567L14.8523 24.1092C15.0256 24.3071 15.0007 24.5792 14.8029 24.7524C14.605 24.9256 14.3329 24.9007 14.1597 24.703L12.9474 23.3176V24.6289C12.9474 24.8763 12.7494 25.0742 12.5021 25.0742C12.2548 25.0742 12.0568 24.8763 12.0568 24.6289V23.3671L10.9187 24.7032C10.8198 24.8021 10.6961 24.8516 10.5724 24.8516C10.4735 24.8516 10.3745 24.8269 10.2755 24.7526C10.0776 24.5794 10.0529 24.3074 10.2261 24.1094L12.057 21.9569V19.8044L9.6325 21.0414C9.55821 21.0662 9.48414 21.0908 9.43455 21.0908C9.2613 21.0908 9.11294 20.9919 9.03865 20.8436C8.91499 20.6208 9.01396 20.3487 9.23661 20.225L12.0817 18.79L12.0815 13.4462L7.65301 15.8954L7.80137 19.2107C7.80137 19.4581 7.62811 19.6807 7.35609 19.6807H7.3314C7.08407 19.6807 6.88612 19.4827 6.88612 19.2354L6.76245 16.3656L4.73381 17.4789L4.11527 19.8788C4.06588 20.0768 3.86793 20.2251 3.66999 20.2251C3.6453 20.2251 3.5957 20.2251 3.54632 20.2004C3.29899 20.1262 3.15043 19.8788 3.22471 19.6562L3.59531 18.0973L2.65517 18.6168C2.58088 18.6662 2.50681 18.6662 2.43252 18.6662C2.28417 18.6662 2.11092 18.5919 2.03663 18.4436C1.91297 18.221 1.98725 17.9487 2.20989 17.825L3.10065 17.3301L1.98729 17.0332C1.73995 16.9838 1.5911 16.7364 1.66539 16.4891Z" fill="#222222"/>
</g>
</g>
</g>
<defs>
<clipPath id="clip0_0_234">
<rect width="25" height="25" fill="white" transform="translate(0 0.5)"/>
</clipPath>
<clipPath id="clip1_0_234">
<rect width="25" height="25" fill="white" transform="translate(0 0.5)"/>
</clipPath>
<clipPath id="clip2_0_234">
<rect width="22.619" height="25" fill="white" transform="translate(1.19141 0.5)"/>
</clipPath>
</defs>
</svg>
