<svg width="43" height="43" viewBox="0 0 43 43" fill="none" xmlns="http://www.w3.org/2000/svg">
<g clip-path="url(#clip0_0_6509)">
<g clip-path="url(#clip1_0_6509)">
<path d="M39.3238 8.86054H28.5464L29.4894 7.99653C29.5586 7.93311 29.6206 7.86211 29.6745 7.7848C31.0526 5.80771 30.6017 3.05205 28.6693 1.64195C27.7478 0.969587 26.5871 0.733448 25.4847 0.994843C24.3821 1.25596 23.4407 1.98963 22.9018 3.00757L21.0597 6.48709L19.2176 3.00757C18.6786 1.98949 17.7371 1.25568 16.6347 0.994703C15.5319 0.733448 14.3712 0.969447 13.4501 1.64181C11.5179 3.05191 11.067 5.80757 12.4448 7.78466C12.4989 7.86211 12.561 7.93311 12.6299 7.99639L13.5729 8.86041H2.79587C2.10067 8.86041 1.53711 9.43708 1.53711 10.1484V18.315C1.53711 19.0263 2.10067 19.603 2.79587 19.603H3.12935V41.6026C3.12935 42.3139 3.69291 42.8906 4.38811 42.8906H37.7315C38.4267 42.8906 38.9903 42.3139 38.9903 41.6026V19.603H39.3238C40.019 19.603 40.5826 19.0263 40.5826 18.315V10.1486C40.5826 9.43721 40.0188 8.86054 39.3238 8.86054ZM25.1154 4.23457C25.3136 3.85981 25.6465 3.60051 26.0524 3.50441C26.1623 3.4783 26.2724 3.46554 26.3816 3.46554C26.6753 3.46554 26.9603 3.5587 27.2076 3.73914C27.5962 4.02271 27.8534 4.44391 27.9322 4.92573C28.0042 5.3663 27.9191 5.80869 27.6922 6.18528L24.7722 8.86054H22.6665L25.1154 4.23457ZM14.1871 4.92587C14.2658 4.44433 14.5232 4.02284 14.912 3.73928C15.251 3.49178 15.661 3.4083 16.0672 3.50454C16.4729 3.60051 16.8057 3.85995 17.0041 4.23471L19.453 8.86054H17.3473L14.4272 6.18528C14.2003 5.80883 14.1151 5.36616 14.1871 4.92587ZM16.3754 40.3147H5.64673V19.6032H16.3754V40.3147ZM23.2264 40.3147H18.8929V19.6032H23.2264V40.3147ZM36.4728 40.3147H25.7441V19.6032H36.4728V40.3147ZM38.065 17.0271H4.05449V11.4366H38.0648L38.065 17.0271Z" fill="#417394"/>
</g>
</g>
<defs>
<clipPath id="clip0_0_6509">
<rect width="42" height="42" fill="white" transform="translate(0.0595703 0.890625)"/>
</clipPath>
<clipPath id="clip1_0_6509">
<rect width="42" height="42" fill="white" transform="translate(0.0595703 0.890625)"/>
</clipPath>
</defs>
</svg>
