<svg width="26" height="26" viewBox="0 0 26 26" fill="none" xmlns="http://www.w3.org/2000/svg">
<g clip-path="url(#clip0_0_6756)">
<g clip-path="url(#clip1_0_6756)">
<g clip-path="url(#clip2_0_6756)">
<path fill-rule="evenodd" clip-rule="evenodd" d="M6.82357 0.821457C7.52181 0.855636 8.06381 1.09001 8.73275 1.63689C9.87045 2.56462 10.9886 4.38591 11.8236 6.65642C12.1556 7.55485 12.097 7.65251 11.1693 7.7404C10.3636 7.81853 8.93295 7.7697 8.21517 7.64275C6.73568 7.38396 5.70541 6.89568 4.88998 6.07536C3.95736 5.13786 3.62533 3.94646 3.97689 2.80876C4.26498 1.87614 5.02181 1.17302 6.02767 0.899582C6.30111 0.821457 6.48666 0.806808 6.82357 0.821457ZM6.22787 1.60759C5.21224 1.88103 4.58236 2.68669 4.59213 3.69255C4.59701 3.90251 4.62142 4.16618 4.6556 4.27849C5.00717 5.59685 6.34017 6.55876 8.2933 6.91032C8.76693 6.99821 9.07455 7.01775 9.98275 7.02263C10.5882 7.02751 11.1058 7.01286 11.1204 6.99333C11.2083 6.91032 10.3685 5.05485 9.84603 4.17107C8.89877 2.5695 7.99056 1.74431 7.014 1.58318C6.64779 1.5197 6.54037 1.52458 6.22787 1.60759Z" fill="black"/>
<path fill-rule="evenodd" clip-rule="evenodd" d="M8.51757 3.75117C8.75683 4.09785 9.1621 4.94258 9.24999 5.25508C9.3037 5.46992 9.29882 5.49922 9.20605 5.62129C9.13281 5.72871 9.0498 5.76777 8.84472 5.79707C8.49316 5.85078 7.67773 5.80684 7.32128 5.70918C6.41308 5.46992 5.85156 4.9084 5.78808 4.17109C5.72949 3.53633 6.11523 2.99922 6.74999 2.81855C7.35058 2.64766 8.00488 2.98945 8.51757 3.75117ZM6.89648 3.54121C6.31542 3.77559 6.42773 4.51777 7.09179 4.85469C7.30175 4.96211 7.93163 5.09883 8.21484 5.09883H8.41015L8.23437 4.74238C8.02929 4.33711 7.7412 3.90254 7.57031 3.74629C7.50683 3.6877 7.37499 3.60469 7.27734 3.56074C7.06738 3.47773 7.06249 3.47773 6.89648 3.54121Z" fill="black"/>
<path fill-rule="evenodd" clip-rule="evenodd" d="M21.5641 2.33445C21.7984 2.79832 21.8863 3.17429 21.8863 3.70652C21.8863 4.24851 21.7984 4.60984 21.5445 5.12253C20.9146 6.40671 19.4889 7.30027 17.5504 7.64207C16.5445 7.81785 14.2105 7.81296 13.8785 7.63718C13.7711 7.57859 13.7076 7.41746 13.7271 7.24656C13.7467 7.09031 14.108 6.13328 14.3912 5.48875C15.5826 2.77878 17.1207 1.08445 18.6148 0.835425C19.733 0.649879 21.0562 1.32371 21.5641 2.33445ZM17.2135 2.42722C16.3834 3.21824 15.485 4.70261 14.7916 6.44089L14.5768 6.978L14.8502 7.01707C15.2408 7.07566 16.7984 7.02195 17.3209 6.93406C18.6393 6.70945 19.4937 6.33347 20.2213 5.65476C20.8805 5.03464 21.1832 4.36082 21.1441 3.59421C21.0904 2.67625 20.5973 1.99753 19.7574 1.68015C18.9225 1.36765 18.0631 1.62156 17.2135 2.42722Z" fill="black"/>
<path fill-rule="evenodd" clip-rule="evenodd" d="M19.8166 3.51043C20.1584 4.23309 19.7824 5.09246 18.9474 5.50262C18.3908 5.77606 17.4338 5.90301 16.8185 5.78582C16.3986 5.70282 16.3644 5.51727 16.6379 4.83368C17.0676 3.75946 17.6681 3.02703 18.2736 2.82684C18.8595 2.63153 19.548 2.93426 19.8166 3.51043ZM18.6691 3.4909C18.4299 3.52996 18.1515 3.72528 17.9123 4.03289C17.7023 4.29657 17.3215 5.03875 17.3703 5.08758C17.3849 5.10223 17.5998 5.09246 17.8439 5.05828C18.4152 4.98993 18.8498 4.78485 19.0597 4.50164C19.3088 4.15496 19.2209 3.70575 18.8791 3.55926C18.7814 3.5202 18.6887 3.48602 18.6691 3.4909Z" fill="black"/>
<path fill-rule="evenodd" clip-rule="evenodd" d="M6.61816 8.75977C11.7451 8.75977 11.6621 8.75489 11.75 8.9795C11.7646 9.02345 11.7793 9.84376 11.7793 10.8008C11.7793 12.5147 11.7793 12.5391 11.6719 12.6514L11.5693 12.7637H1.65234L1.54004 12.6563L1.42773 12.5537V10.8057C1.42773 9.84376 1.44238 9.02345 1.45703 8.9795C1.47656 8.93067 1.55957 8.8672 1.64258 8.82813C1.76465 8.77442 2.67773 8.76466 6.61816 8.75977ZM11.0469 9.4922H2.16016V12.0313H11.0469V9.4922Z" fill="black"/>
<path fill-rule="evenodd" clip-rule="evenodd" d="M19.3867 8.75977C24.5381 8.75977 24.4551 8.75489 24.543 8.9795C24.5576 9.02345 24.5723 9.84376 24.5723 10.8008C24.5723 12.5147 24.5723 12.5391 24.4648 12.6514L24.3623 12.7637H14.4453L14.333 12.6563L14.2207 12.5537V10.7861C14.2207 8.93556 14.2207 8.93556 14.4404 8.81837C14.5088 8.77931 15.9736 8.76466 19.3867 8.75977ZM23.8398 9.4922H14.9531V12.0313H23.8398V9.4922Z" fill="black"/>
<path fill-rule="evenodd" clip-rule="evenodd" d="M2.8584 13.6914H11.5547L11.667 13.7988L11.7793 13.9014V25.5615L11.6572 25.6787L11.54 25.8008H2.8877L2.77051 25.6787L2.64844 25.5615V13.916L2.75586 13.8037L2.8584 13.6914ZM11.0469 14.4238H3.38086V25.0684H11.0469V14.4238Z" fill="black"/>
<path fill-rule="evenodd" clip-rule="evenodd" d="M14.4307 13.6914H23.127L23.2393 13.7988L23.3516 13.9014V25.5615L23.2295 25.6787L23.1123 25.8008H14.46L14.3428 25.6787L14.2207 25.5615V13.916L14.3281 13.8037L14.4307 13.6914ZM22.6191 14.4238H14.9531V25.0684H22.6191V14.4238Z" fill="black"/>
</g>
</g>
</g>
<defs>
<clipPath id="clip0_0_6756">
<rect width="25" height="25" fill="white" transform="translate(0.5 0.800781)"/>
</clipPath>
<clipPath id="clip1_0_6756">
<rect width="25" height="25" fill="white" transform="translate(0.5 0.800781)"/>
</clipPath>
<clipPath id="clip2_0_6756">
<rect width="23.1445" height="25" fill="white" transform="translate(1.42773 0.800781)"/>
</clipPath>
</defs>
</svg>
