<svg width="25" height="26" viewBox="0 0 25 26" fill="none" xmlns="http://www.w3.org/2000/svg">
<g clip-path="url(#clip0_0_249)">
<g clip-path="url(#clip1_0_249)">
<g clip-path="url(#clip2_0_249)">
<path d="M11.1169 24.2233C11.1053 24.2233 11.0938 24.2233 11.08 24.2211C8.36464 24.0334 6.12113 22.9304 4.41151 20.9423C1.62448 17.6973 0.399244 12.2298 0.95849 5.54737C0.981679 5.26137 1.21273 5.02489 1.51458 5.065C5.27138 5.28456 9.38799 7.47538 12.2599 10.7826C14.874 13.7913 16.157 17.3137 15.8786 20.707C15.8543 20.9951 15.6106 21.204 15.3087 21.1894C15.0186 21.1651 14.8022 20.9086 14.8253 20.6205C15.0806 17.5147 13.8861 14.2665 11.462 11.4742C8.90399 8.52677 5.31073 6.52687 1.9682 6.16192C1.54703 12.2373 2.71757 17.3533 5.20901 20.2557C6.72652 22.0222 8.72643 23.0037 11.1491 23.1683C11.4393 23.1893 11.6588 23.4404 11.6399 23.7307C11.625 24.0093 11.3936 24.2233 11.1169 24.2233Z" fill="#222222"/>
<path d="M13.8832 25.1582C13.6415 25.1582 13.4242 24.9914 13.3693 24.7456C12.0966 19.0794 6.01784 11.7124 3.44114 9.22393C3.2312 9.02338 3.22472 8.68995 3.42632 8.47894C3.62896 8.27004 3.96444 8.26481 4.17232 8.46412C6.82104 11.0253 13.0731 18.6163 14.3972 24.5131C14.4616 24.7991 14.2821 25.0777 13.9984 25.1463C13.9604 25.1547 13.9213 25.1582 13.8832 25.1582Z" fill="#222222"/>
<path d="M15.4047 19.5614C15.1598 19.5614 14.9413 19.3905 14.8887 19.1413C14.8285 18.8563 15.0121 18.5766 15.2971 18.5164C23.2454 16.8532 23.2994 6.02069 23.0261 1.94065C18.4356 2.4387 13.6488 5.95715 11.4887 10.4842C11.3632 10.748 11.0464 10.8577 10.7849 10.7332C10.5221 10.6076 10.4104 10.2932 10.5359 10.0304C12.9325 5.00618 18.3767 1.14247 23.4814 0.844047C23.7622 0.81668 24.0154 1.04251 24.0375 1.32641C24.8859 11.4428 21.6989 18.2547 15.5127 19.5504C15.4757 19.5567 15.4404 19.5614 15.4047 19.5614Z" fill="#222222"/>
<path d="M13.8819 14.6293C13.7913 14.6293 13.6994 14.6072 13.616 14.5575C13.365 14.4087 13.2805 14.0878 13.4282 13.8336C15.8555 9.69158 19.202 5.80563 20.8599 4.20175C21.0708 4.00224 21.4045 4.00433 21.6058 4.21658C21.8075 4.4234 21.8033 4.76123 21.5931 4.96258C19.9775 6.52336 16.7124 10.3171 14.338 14.3703C14.2388 14.5339 14.0624 14.6293 13.8819 14.6293Z" fill="#222222"/>
</g>
</g>
</g>
<defs>
<clipPath id="clip0_0_249">
<rect width="25" height="25" fill="white" transform="translate(0 0.5)"/>
</clipPath>
<clipPath id="clip1_0_249">
<rect width="25" height="25" fill="white" transform="translate(0 0.5)"/>
</clipPath>
<clipPath id="clip2_0_249">
<rect width="25" height="25" fill="white" transform="translate(0 0.5)"/>
</clipPath>
</defs>
</svg>
