<svg width="25" height="25" viewBox="0 0 25 25" fill="none" xmlns="http://www.w3.org/2000/svg">
<g clip-path="url(#clip0_0_64)">
<path d="M21.7503 5.09034C21.2395 4.57935 20.6331 4.17399 19.9656 3.89743C19.2982 3.62086 18.5828 3.47852 17.8603 3.47852C17.1378 3.47852 16.4224 3.62086 15.7549 3.89743C15.0875 4.17399 14.481 4.57935 13.9703 5.09034L12.9103 6.15034L11.8503 5.09034C10.8186 4.05865 9.41931 3.47905 7.96028 3.47905C6.50124 3.47905 5.10197 4.05865 4.07028 5.09034C3.03858 6.12203 2.45898 7.52131 2.45898 8.98034C2.45898 10.4394 3.03858 11.8386 4.07028 12.8703L5.13027 13.9303L12.9103 21.7103L20.6903 13.9303L21.7503 12.8703C22.2613 12.3596 22.6666 11.7532 22.9432 11.0857C23.2198 10.4182 23.3621 9.70283 23.3621 8.98034C23.3621 8.25785 23.2198 7.54244 22.9432 6.87499C22.6666 6.20753 22.2613 5.6011 21.7503 5.09034Z" stroke="#4A5568" stroke-width="1.5" stroke-linecap="round" stroke-linejoin="round"/>
</g>
<defs>
<clipPath id="clip0_0_64">
<rect width="24" height="24" fill="white" transform="translate(0.910156 0.480469)"/>
</clipPath>
</defs>
</svg>
