<svg width="41" height="41" viewBox="0 0 41 41" fill="none" xmlns="http://www.w3.org/2000/svg">
<g clip-path="url(#clip0_0_822)">
<g clip-path="url(#clip1_0_822)">
<g clip-path="url(#clip2_0_822)">
<path d="M40.4303 22.9145C40.4283 19.4972 40.4571 12.384 40.3963 12.2497C40.3417 11.6658 40.0017 11.2477 39.5814 10.8743C37.8581 9.34525 36.1357 7.81517 34.4123 6.28612C33.8952 5.82832 33.3987 5.34712 32.8166 4.9646C31.8422 4.3247 30.7843 4.12632 29.6532 4.43152C28.894 4.63702 28.2666 5.08363 27.6887 5.59738C25.7171 7.34924 23.7526 9.10719 21.7717 10.8468C21.1403 11.4013 20.8497 12.0666 20.8559 12.8947C20.8693 14.8785 20.8611 16.8613 20.8621 18.8451C20.8621 19.5298 20.8621 19.5298 20.1595 19.5298H16.8889C16.9538 19.3812 17.0012 19.2795 17.0434 19.1768C17.6461 17.6762 17.9592 16.1309 17.6718 14.5194C17.4225 13.1236 16.652 12.1297 15.251 11.679C14.6483 11.4857 14.3465 11.6577 14.2085 12.2579C14.0983 12.7401 13.9726 13.2203 13.8851 13.7066C13.5678 15.4645 12.8889 16.9752 11.1862 17.8654C10.0932 18.4371 9.26702 19.3019 8.63247 20.3477C8.53357 20.5105 8.41717 20.6641 8.29665 20.8116C8.00821 21.1667 7.62192 21.3478 7.17073 21.4099C6.96985 21.4373 6.86477 21.4261 6.84212 21.1596C6.78031 20.4291 6.21477 19.9092 5.48957 19.8991C4.42133 19.8838 3.35309 19.8838 2.28486 19.8991C1.51226 19.9102 0.915822 20.5013 0.914792 21.2653C0.908611 25.7529 0.908611 30.2413 0.914792 34.7288C0.915822 35.4816 1.47827 36.0707 2.24365 36.089C3.33661 36.1154 4.43163 36.1164 5.52562 36.089C6.28997 36.0696 6.83285 35.4836 6.85654 34.7268C6.86272 34.5304 6.85757 34.3351 6.85757 34.1082C7.05329 34.1753 7.20163 34.2161 7.34276 34.2741C9.59255 35.2131 11.934 35.5996 14.3785 35.5274C16.4233 35.4663 18.4712 35.5151 20.518 35.5141C21.0702 35.5141 21.6274 35.5498 22.1559 35.3391C22.2363 35.3066 22.3012 35.329 22.3753 35.3565C22.7678 35.502 23.1778 35.5162 23.5919 35.5162C27.8402 35.5111 32.0883 35.5101 36.3366 35.5081C36.9032 35.5081 37.4687 35.5141 38.0353 35.5061C39.2539 35.4898 40.0625 34.8742 40.4055 33.7145C40.4148 33.682 40.4684 23.3255 40.4684 23.3255C40.3932 23.1942 40.4303 23.0518 40.4303 22.9145ZM5.6276 34.5182C5.62863 34.8132 5.5215 34.8885 5.24543 34.8844C4.35747 34.8722 3.46847 34.8681 2.5805 34.8865C2.25189 34.8936 2.13755 34.8081 2.13961 34.4622C2.15609 32.3014 2.14785 30.1396 2.14785 27.9788C2.14785 25.8301 2.15506 23.6815 2.14064 21.533C2.13755 21.1911 2.24571 21.1006 2.5805 21.1087C3.46847 21.1291 4.35643 21.124 5.24439 21.1107C5.52459 21.1056 5.6276 21.184 5.6276 21.475C5.61936 25.8231 5.61936 30.1711 5.6276 34.5182ZM17.986 31.8101C19.0037 31.8192 20.0204 31.8121 21.0372 31.8151C21.1907 31.8161 21.3473 31.8222 21.4977 31.8518C22.1003 31.9688 22.5206 32.4794 22.5113 33.0685C22.5021 33.6473 22.091 34.1387 21.5049 34.2527C21.3422 34.2842 21.1722 34.2913 21.0063 34.2923C18.6885 34.2944 16.3707 34.2547 14.054 34.3056C11.9484 34.3513 9.9366 34.0024 7.99482 33.212C7.62913 33.0634 7.10377 33.0329 6.92762 32.7684C6.73601 32.4815 6.85963 31.9851 6.85963 31.5801C6.85757 28.7194 6.86169 25.8586 6.85345 22.9979C6.85242 22.7395 6.88538 22.6367 7.19236 22.6184C8.06899 22.5676 8.85086 22.2247 9.31544 21.4801C10.1262 20.1799 11.2181 19.2103 12.5233 18.4209C14.0159 17.5175 14.6319 16.0546 14.9729 14.4411C15.0707 13.9812 15.1882 13.5265 15.3076 13.0219C16.1647 13.5071 16.4583 14.2793 16.5108 15.1431C16.6118 16.8094 16.2564 18.3721 15.2892 19.7689C15.1356 19.9896 15.1078 20.2155 15.2386 20.4484C15.3818 20.7018 15.6229 20.7526 15.8979 20.7526C18.1508 20.7486 20.4037 20.7537 22.6576 20.7486C23.1984 20.7475 23.6454 20.9123 23.9257 21.3915C24.4109 22.2247 23.7938 23.2166 22.7719 23.2258C21.3174 23.2401 19.8618 23.2299 18.4073 23.2299C18.2785 23.2299 18.1498 23.2268 18.021 23.2319C17.6079 23.2471 17.3658 23.4639 17.3586 23.8199C17.3504 24.1881 17.6028 24.4323 18.0283 24.4476C18.363 24.4598 18.6978 24.4506 19.0326 24.4506C20.6427 24.4517 22.2517 24.4445 23.8608 24.4557C24.5232 24.4598 25.0382 24.9298 25.0959 25.5371C25.1556 26.171 24.7642 26.7295 24.143 26.876C23.9957 26.9106 23.8371 26.9095 23.6836 26.9106C21.817 26.9126 19.9494 26.9106 18.0828 26.9126C17.6357 26.9136 17.3803 27.1211 17.3597 27.4823C17.337 27.8831 17.6038 28.1303 18.0797 28.1313C19.7794 28.1344 21.4792 28.1262 23.1788 28.1344C24.1029 28.1395 24.7075 29.0001 24.38 29.8201C24.1853 30.3064 23.7341 30.5902 23.1232 30.5912C21.5142 30.5953 19.9041 30.5933 18.295 30.5933C18.1786 30.5933 18.0622 30.5851 17.9479 30.5984C17.577 30.6401 17.3493 30.8873 17.3586 31.2281C17.3679 31.569 17.6048 31.806 17.986 31.8101ZM38.0713 34.2842C37.6088 34.2995 37.1453 34.2872 36.6817 34.2872C32.3943 34.2893 28.108 34.2893 23.8216 34.2974C23.5281 34.2984 23.4044 34.2893 23.56 33.9434C23.8763 33.2384 23.7855 32.5303 23.4178 31.8253C25.4729 31.5404 26.2939 29.4051 25.2514 27.9696C25.1299 27.8038 25.1968 27.7529 25.3266 27.6501C26.7945 26.4771 26.6658 24.5188 25.0547 23.5371C24.893 23.4394 24.8909 23.3875 24.9753 23.2278C25.9159 21.4475 24.7724 19.5654 22.7359 19.5298C22.0983 19.5186 22.0983 19.5186 22.0983 18.8848C22.0972 16.9142 22.1064 14.9436 22.09 12.9741C22.0848 12.4522 22.2476 12.0595 22.6493 11.7075C24.6818 9.92818 26.6813 8.11326 28.7209 6.34207C30.0178 5.21588 31.2323 5.23217 32.5704 6.30546C32.6601 6.37768 32.7507 6.44889 32.8363 6.52519C34.8182 8.28417 36.7971 10.0452 38.7821 11.8001C39.0922 12.0748 39.2302 12.3973 39.2302 12.8062C39.2282 19.5695 39.2313 26.3327 39.2313 33.096C39.2313 33.8305 38.813 34.2598 38.0713 34.2842Z" fill="#4A5568"/>
<path d="M33.1516 26.3988C33.1413 25.6154 32.7375 25.1607 32.1163 24.8585C31.5796 24.5971 30.9956 24.4994 30.4146 24.3906C29.8572 24.2868 29.3164 24.1363 28.8096 23.8748C26.874 22.8778 26.7164 20.4271 28.5109 19.19C28.9064 18.9174 29.3401 18.7312 29.812 18.6406C29.9994 18.605 30.0653 18.5256 30.0489 18.3384C30.0324 18.1493 30.0334 17.956 30.051 17.7667C30.085 17.4086 30.3517 17.1797 30.6958 17.194C31.0233 17.2082 31.3098 17.4463 31.2665 17.783C31.1892 18.3894 31.4097 18.6254 32.0164 18.7851C32.9661 19.0344 33.6234 19.7088 34.0396 20.5929C34.226 20.9876 34.1148 21.3426 33.7707 21.4963C33.437 21.6458 33.1021 21.5227 32.928 21.1239C32.3605 19.8289 30.7339 19.4036 29.4441 20.0557C28.8343 20.364 28.483 20.8473 28.4985 21.5472C28.513 22.2257 28.9446 22.596 29.5111 22.8595C30.089 23.1281 30.7205 23.1932 31.3345 23.3214C32.0061 23.4618 32.6448 23.6835 33.2072 24.0844C34.943 25.3245 34.7503 27.7244 32.8415 28.6797C32.4243 28.8883 31.9855 29.0276 31.527 29.0958C31.3345 29.1243 31.2623 29.1864 31.2799 29.3786C31.2953 29.5556 31.2901 29.7346 31.2799 29.9127C31.2603 30.2626 31.0326 30.4925 30.704 30.5088C30.3569 30.5262 30.0118 30.2881 30.0674 29.9483C30.1849 29.2352 29.8109 29.0774 29.2196 28.9024C28.0772 28.5657 27.315 27.7834 26.977 26.6348C26.875 26.2869 27.044 25.9573 27.3479 25.8535C27.6837 25.7396 28.0545 25.8902 28.141 26.2584C28.3934 27.3317 29.4936 27.993 30.8503 27.9391C31.4488 27.9156 32.0216 27.7824 32.5284 27.4456C32.924 27.1842 33.1732 26.8333 33.1516 26.3988Z" fill="#4A5568"/>
<path d="M30.6732 8.13575C29.4433 8.13372 28.4698 9.09001 28.4688 10.3006C28.4688 11.5062 29.4587 12.4869 30.6691 12.4798C31.8785 12.4737 32.8736 11.4787 32.8612 10.2854C32.8499 9.09611 31.8754 8.13778 30.6732 8.13575ZM30.665 11.258C30.1324 11.261 29.6967 10.8164 29.7069 10.2783C29.7173 9.75433 30.1427 9.35045 30.6763 9.35756C31.2047 9.36469 31.6281 9.78994 31.624 10.3078C31.6189 10.8205 31.1811 11.2549 30.665 11.258Z" fill="#4A5568"/>
</g>
</g>
</g>
<defs>
<clipPath id="clip0_0_822">
<rect width="40" height="40" fill="white" transform="translate(0.910156 0.200195)"/>
</clipPath>
<clipPath id="clip1_0_822">
<rect width="40" height="40" fill="white" transform="translate(0.910156 0.200195)"/>
</clipPath>
<clipPath id="clip2_0_822">
<rect width="40" height="31.8182" fill="white" transform="translate(0.910156 4.29102)"/>
</clipPath>
</defs>
</svg>
