<svg width="25" height="26" viewBox="0 0 25 26" fill="none" xmlns="http://www.w3.org/2000/svg">
<g clip-path="url(#clip0_0_217)">
<g clip-path="url(#clip1_0_217)">
<path d="M20.7794 6.88436C17.0082 3.52685 12.7772 1.7793 8.26982 1.7793H7.53393C5.83225 1.87131 4.59042 2.56106 3.76274 3.57297C1.96906 4.58489 0.911212 6.56241 1.04913 8.72391C1.18705 10.8854 2.4748 12.6332 4.49838 13.4151C5.69408 13.8749 6.70605 14.335 7.3499 15.1626C8.08579 16.0825 8.72964 17.4162 9.18951 19.1178C9.97127 21.6933 12.0869 23.625 14.7085 24.0389C15.1224 24.0848 15.4902 24.1308 15.8583 24.1308C18.0198 24.1308 19.9976 23.119 21.2854 21.2793L21.4232 21.0953C21.8831 20.4515 22.2511 19.7156 22.5269 18.9798C24.9647 15.2088 24.2747 10.0119 20.7794 6.88436ZM7.62592 2.74509H8.31569C12.5929 2.74509 16.5945 4.40092 20.1813 7.62026C23.4007 10.5176 24.0445 15.3471 21.607 18.842L21.4691 18.9799C20.4112 20.4517 18.7555 21.3254 16.9159 21.3254C14.7544 21.3254 12.1786 20.0377 11.3049 17.1862C10.7989 15.4386 10.1092 14.0589 9.32718 13.0931C8.54542 12.1273 7.39559 11.6213 6.15371 11.1615C3.71613 10.2415 3.16427 8.03418 3.44011 6.42423C3.53213 5.73446 3.85406 4.99857 4.36004 4.35472C4.36004 4.35472 4.36004 4.30883 4.40592 4.30883C5.09614 3.43459 6.15413 2.79096 7.62592 2.74509ZM14.8922 23.2115C12.5925 22.8437 10.753 21.1878 10.1091 18.9343C9.55727 17.1407 8.91342 15.6689 8.08547 14.6573C7.30371 13.6453 6.10777 13.1395 4.86614 12.6336C3.16445 11.9438 2.10666 10.5641 2.01462 8.72428C1.96873 7.71236 2.19865 6.79269 2.65846 5.96481C2.65846 6.05683 2.61257 6.10271 2.61257 6.19472C2.24475 8.26423 3.16442 10.8859 5.87803 11.9436C7.02787 12.4035 8.03953 12.8175 8.63751 13.5994C9.3734 14.4732 9.97138 15.761 10.4312 17.4168C11.3047 20.2683 13.9263 22.1999 16.9156 22.1999C18.0655 22.1999 19.1233 21.9239 20.0891 21.372C18.7552 22.8896 16.8697 23.5335 14.8922 23.2115Z" fill="#222222"/>
<path d="M6.61439 9.96514C7.94826 10.4711 9.32799 11.0689 10.2477 12.2648C11.1215 13.3685 11.8573 14.8864 12.4091 16.7719C13.0989 19.0716 15.1228 20.0832 16.8703 20.0832C17.6983 20.0832 19.3079 19.8533 20.4577 18.2436L20.5498 18.1057C22.6192 15.1162 22.1136 10.9314 19.3079 8.44775C15.9046 5.41219 12.179 3.89453 8.22418 3.89453H7.58033C5.69462 3.98655 4.77493 5.36633 4.5909 6.51615C4.453 7.71186 4.86679 9.27518 6.61439 9.96514ZM5.55654 6.69968C5.64856 6.28573 5.9705 4.906 7.67217 4.81396H8.27015C11.9954 4.81396 15.5365 6.28574 18.756 9.13726C21.1936 11.3449 21.6534 14.9321 19.8597 17.6L19.7677 17.738C18.8478 18.9797 17.6062 19.2097 16.9623 19.2097C15.5826 19.2097 13.9267 18.3819 13.3749 16.5422C12.7768 14.5186 11.9951 12.9089 11.0293 11.7132C9.92563 10.3335 8.45384 9.68961 6.98212 9.13775C5.41834 8.49365 5.51061 7.11369 5.55654 6.69968Z" fill="#222222"/>
<path d="M17.0528 17.4161C18.3868 17.4161 19.4905 16.3124 19.4905 14.9786C19.4905 13.6447 18.3868 12.541 17.0528 12.541C15.719 12.541 14.6152 13.6447 14.6152 14.9786C14.6152 16.3122 15.7193 17.4161 17.0528 17.4161ZM17.0528 13.4609C17.8808 13.4609 18.5705 14.1507 18.5705 14.9786C18.5705 15.8065 17.8808 16.4962 17.0528 16.4962C16.225 16.4962 15.5352 15.8065 15.5352 14.9786C15.5352 14.1507 16.225 13.4609 17.0528 13.4609Z" fill="#222222"/>
</g>
</g>
<defs>
<clipPath id="clip0_0_217">
<rect width="25" height="25" fill="white" transform="translate(0 0.5)"/>
</clipPath>
<clipPath id="clip1_0_217">
<rect width="25" height="22.8261" fill="white" transform="translate(0 1.58789)"/>
</clipPath>
</defs>
</svg>
