<svg width="25" height="26" viewBox="0 0 25 26" fill="none" xmlns="http://www.w3.org/2000/svg">
<g clip-path="url(#clip0_0_266)">
<g clip-path="url(#clip1_0_266)">
<g clip-path="url(#clip2_0_266)">
<path fill-rule="evenodd" clip-rule="evenodd" d="M19.9286 24.6727H5.07292C4.87767 24.6727 4.7192 24.5142 4.7192 24.3189V8.77362C4.71689 8.72799 4.72343 8.68081 4.74057 8.63479C4.74596 8.61978 4.75251 8.60533 4.75983 8.59147L6.8415 4.42806V1.68184C6.8415 1.48641 6.99978 1.32812 7.19523 1.32812H17.8062C18.0016 1.32812 18.1599 1.48641 18.1599 1.68184V4.42806L20.2449 8.59783C20.2694 8.64692 20.2822 8.70103 20.2822 8.75591V24.319C20.2822 24.5142 20.1239 24.6727 19.9286 24.6727ZM7.54895 2.03544V4.15759H17.4526V2.03544H7.54895ZM15.4655 8.40223L17.2341 4.8652H7.41383L5.64522 8.40223H15.4655ZM17.8064 5.30249L16.038 8.83952V23.9654H19.575V8.83952L17.8064 5.30249ZM5.42675 9.10965V23.9654H15.3304V9.10965H5.42675ZM7.5489 11.5857H13.2084C13.4038 11.5857 13.5621 11.744 13.5621 11.9394V15.4764C13.5621 15.6717 13.4038 15.8302 13.2084 15.8302H7.5489C7.35365 15.8302 7.19537 15.6717 7.19537 15.4764V11.9394C7.19537 11.744 7.35365 11.5857 7.5489 11.5857ZM7.90263 12.2931V15.1227H12.8547V12.2931H7.90263ZM7.5489 18.6599C7.35365 18.6599 7.19537 18.5017 7.19537 18.3062C7.19537 18.111 7.35365 17.9525 7.5489 17.9525H13.2084C13.4038 17.9525 13.5621 18.111 13.5621 18.3062C13.5621 18.5017 13.4038 18.6599 13.2084 18.6599H7.5489ZM8.96378 21.4895C8.76854 21.4895 8.61006 21.3312 8.61006 21.136C8.61006 20.9405 8.76853 20.7823 8.96378 20.7823H11.7935C11.9888 20.7823 12.1471 20.9405 12.1471 21.136C12.1471 21.3312 11.9888 21.4895 11.7935 21.4895H8.96378Z" fill="#222222"/>
</g>
</g>
</g>
<defs>
<clipPath id="clip0_0_266">
<rect width="25" height="25" fill="white" transform="translate(0 0.5)"/>
</clipPath>
<clipPath id="clip1_0_266">
<rect width="25" height="25" fill="white" transform="translate(0 0.5)"/>
</clipPath>
<clipPath id="clip2_0_266">
<rect width="16.3793" height="25" fill="white" transform="translate(4.31055 0.5)"/>
</clipPath>
</defs>
</svg>
