<svg width="25" height="26" viewBox="0 0 25 26" fill="none" xmlns="http://www.w3.org/2000/svg">
<g clip-path="url(#clip0_0_273)">
<g clip-path="url(#clip1_0_273)">
<path d="M23.7108 17.1827H23.0157L21.0477 8.3272C21.0233 8.21968 20.9579 8.12752 20.8642 8.07098C20.7712 8.01359 20.659 7.99588 20.5523 8.02319C20.0569 8.15013 19.5129 8.26982 18.8218 8.4038L16.9805 7.17919L16.9802 6.37661C16.9802 6.15345 16.7991 5.97253 16.5762 5.97253H13.6857L12.7861 5.07137C12.6284 4.91371 12.3722 4.91371 12.2145 5.07137L11.314 5.97188H9.4427C9.3352 5.97188 9.23261 6.01477 9.15663 6.08986L8.25633 6.99103H7.40443C7.2969 6.99103 7.19428 7.03392 7.11833 7.10902L5.88881 8.33853C5.39897 8.24488 4.91233 8.1429 4.44852 8.02257C4.34185 7.99484 4.22942 8.01276 4.13554 8.06929C4.04189 8.12669 3.97553 8.2197 3.95122 8.32637L1.98394 17.183H1.28884C1.06568 17.183 0.884766 17.3641 0.884766 17.587V20.644C0.884766 20.8672 1.0659 21.0481 1.28884 21.0481H23.711C23.9341 21.0481 24.115 20.867 24.115 20.644V17.587C24.115 17.3632 23.934 17.1827 23.7108 17.1827ZM7.57176 7.79907H8.42367C8.53119 7.79907 8.63382 7.75619 8.70976 7.68109L9.61029 6.78057H11.4815C11.589 6.78057 11.6917 6.73769 11.7676 6.66259L12.4998 5.92866L13.2329 6.66172C13.3089 6.73767 13.4115 6.7797 13.519 6.7797H16.1725V7.39478C16.1725 7.52984 16.2404 7.65592 16.3529 7.73102L17.6565 8.59827C17.5458 8.61534 17.436 8.63624 17.3244 8.65245C17.149 8.67828 16.9728 8.70089 16.7966 8.72351C16.4612 8.76724 16.1249 8.80521 15.7879 8.83828C15.6253 8.8545 15.4621 8.87071 15.2998 8.88352C14.94 8.91338 14.5804 8.936 14.2198 8.95456C14.0775 8.96181 13.9346 8.97162 13.7923 8.97717C13.3639 8.99424 12.9355 9.00064 12.5079 9.00149C12.4352 9.00149 12.3624 9.00469 12.2906 9.00384C11.7839 9.00149 11.2778 8.98678 10.7734 8.96095C10.6845 8.95605 10.5964 8.94794 10.5082 8.9424C10.1056 8.91893 9.70395 8.88991 9.30476 8.85109C9.14154 8.83572 8.97985 8.81545 8.81815 8.79775C8.49237 8.76148 8.16658 8.72265 7.84423 8.67657C7.6663 8.65161 7.48944 8.62323 7.31322 8.59486C7.1596 8.57053 7.00856 8.54152 6.85581 8.51486L7.57176 7.79907ZM4.65149 8.9074C5.07349 9.00853 5.50596 9.09898 5.93835 9.17813C6.45401 9.2816 6.97694 9.37206 7.5041 9.45057C7.91713 9.51202 8.3359 9.55959 8.75453 9.60567C8.8676 9.61783 8.97922 9.63554 9.09243 9.64685C9.56377 9.69378 10.039 9.72685 10.5159 9.75437C10.5781 9.75758 10.6396 9.76483 10.7017 9.76803C11.1939 9.79385 11.6895 9.80515 12.1866 9.81006C12.2335 9.81006 12.2797 9.81326 12.3264 9.81326C12.3846 9.81326 12.442 9.81731 12.4994 9.81731C14.0456 9.81731 15.5952 9.70893 17.1268 9.49964C17.1535 9.49645 17.1802 9.49388 17.2068 9.49004C17.6967 9.42219 18.1833 9.34134 18.6682 9.25237C18.7161 9.24341 18.7645 9.23786 18.8121 9.2289C19.4135 9.11412 19.904 9.01065 20.3477 8.90633L22.1865 17.1823L2.81251 17.1825L4.65149 8.9074ZM23.3067 20.2392H1.69293V17.9905H23.3062L23.3067 20.2392Z" fill="#222222"/>
<path d="M15.7085 10.6426C15.1273 10.6426 14.6077 10.9748 14.3538 11.48H10.6446C10.3907 10.9748 9.871 10.6426 9.28984 10.6426C8.45158 10.6426 7.76953 11.3248 7.76953 12.1629C7.76953 12.4628 7.85999 12.753 8.02491 13.0003C7.85999 13.2475 7.76953 13.5377 7.76953 13.8376C7.76953 14.6759 8.4518 15.358 9.28984 15.358C9.871 15.358 10.3906 15.0257 10.6446 14.5205H14.3538C14.6077 15.0257 15.1273 15.358 15.7085 15.358C16.5468 15.358 17.2289 14.6756 17.2289 13.8376C17.2289 13.5377 17.1384 13.2475 16.9735 13.0003C17.1384 12.753 17.2289 12.4628 17.2289 12.1629C17.229 11.3246 16.5468 10.6426 15.7085 10.6426ZM16.1743 13.3051C16.3334 13.4442 16.4209 13.6324 16.4209 13.8379C16.4209 14.2297 16.1015 14.55 15.7088 14.55C15.3871 14.55 15.105 14.3309 15.0232 14.0158C14.9772 13.8372 14.8164 13.7126 14.632 13.7126H10.3674C10.1831 13.7126 10.0223 13.837 9.97618 14.0158C9.89449 14.3311 9.61243 14.55 9.29065 14.55C8.89791 14.55 8.57854 14.23 8.57854 13.8379C8.57854 13.6332 8.66581 13.4442 8.82581 13.3051C8.91307 13.2275 8.96404 13.1176 8.96404 13.0005C8.96404 12.8833 8.91307 12.7733 8.82581 12.6958C8.66665 12.5567 8.57854 12.3677 8.57854 12.1631C8.57854 11.7712 8.89792 11.451 9.29065 11.451C9.61243 11.451 9.89449 11.6701 9.97618 11.9852C10.0223 12.1637 10.1831 12.2883 10.3674 12.2883H14.632C14.8164 12.2883 14.9772 12.164 15.0232 11.9852C15.105 11.6698 15.387 11.451 15.7088 11.451C16.1015 11.451 16.4209 11.771 16.4209 12.1631C16.4209 12.3683 16.3337 12.5567 16.1743 12.6958C16.087 12.7735 16.036 12.8833 16.036 13.0005C16.036 13.1176 16.0868 13.2275 16.1743 13.3051Z" fill="#222222"/>
</g>
</g>
<defs>
<clipPath id="clip0_0_273">
<rect width="25" height="25" fill="white" transform="translate(0 0.5)"/>
</clipPath>
<clipPath id="clip1_0_273">
<rect width="25" height="17.8571" fill="white" transform="translate(0 4.07227)"/>
</clipPath>
</defs>
</svg>
