<svg width="25" height="25" viewBox="0 0 25 25" fill="none" xmlns="http://www.w3.org/2000/svg">
<g clip-path="url(#clip0_0_57)">
<path d="M15.86 5.48047C16.8367 5.67103 17.7344 6.14873 18.4381 6.8524C19.1417 7.55608 19.6194 8.45373 19.81 9.43047M15.86 1.48047C17.8893 1.7059 19.7816 2.61464 21.2262 4.05748C22.6709 5.50031 23.582 7.39148 23.81 9.42047M22.81 17.4005V20.4005C22.8111 20.679 22.7541 20.9546 22.6425 21.2098C22.5309 21.465 22.3673 21.6941 22.1621 21.8823C21.9568 22.0706 21.7146 22.214 21.4507 22.3032C21.1869 22.3924 20.9074 22.4255 20.63 22.4005C17.5528 22.0661 14.597 21.0146 12 19.3305C9.58382 17.7951 7.53533 15.7466 5.99999 13.3305C4.30997 10.7217 3.25823 7.75146 2.92999 4.66047C2.905 4.38394 2.93787 4.10523 3.02649 3.84209C3.11512 3.57896 3.25756 3.33716 3.44476 3.13209C3.63195 2.92702 3.8598 2.76318 4.11378 2.65099C4.36777 2.5388 4.64233 2.48073 4.91999 2.48047H7.91999C8.4053 2.47569 8.87578 2.64755 9.24375 2.964C9.61172 3.28046 9.85207 3.71992 9.91999 4.20047C10.0466 5.16054 10.2814 6.1032 10.62 7.01047C10.7545 7.36839 10.7837 7.75738 10.7039 8.13135C10.6241 8.50531 10.4389 8.84858 10.17 9.12047L8.89999 10.3905C10.3235 12.894 12.3964 14.9669 14.9 16.3905L16.17 15.1205C16.4419 14.8516 16.7851 14.6663 17.1591 14.5866C17.5331 14.5068 17.9221 14.5359 18.28 14.6705C19.1873 15.009 20.1299 15.2438 21.09 15.3705C21.5758 15.439 22.0194 15.6837 22.3365 16.058C22.6537 16.4323 22.8222 16.91 22.81 17.4005Z" stroke="#222222" stroke-width="1.5" stroke-linecap="round" stroke-linejoin="round"/>
</g>
<defs>
<clipPath id="clip0_0_57">
<rect width="24" height="24" fill="white" transform="translate(0.810547 0.480469)"/>
</clipPath>
</defs>
</svg>
