<svg width="45" height="46" viewBox="0 0 45 46" fill="none" xmlns="http://www.w3.org/2000/svg">
<g clip-path="url(#clip0_0_1104)">
<g clip-path="url(#clip1_0_1104)">
<path d="M38.1899 15.785C33.9832 13.5129 28.4111 12.2617 22.5 12.2617C16.5889 12.2617 11.0167 13.513 6.81014 15.785C2.41855 18.1569 0 21.3764 0 24.8505C0 26.4054 0.949467 27.7916 2.42397 28.6863L4.01566 33.2805C4.14804 33.6625 4.50786 33.9187 4.91226 33.9187H40.0876C40.4918 33.9187 40.8518 33.6625 40.9842 33.2805L42.5759 28.6863C44.0503 27.7916 44.9998 26.4054 44.9998 24.8505C45 21.3764 42.5815 18.1569 38.1899 15.785ZM39.4122 32.0212H5.58776L4.74131 29.5778C5.22493 29.6736 5.80976 29.7322 6.33661 29.7322C8.59688 29.7322 10.6004 28.8405 11.7244 27.4395C12.8484 28.8405 14.8519 29.7322 17.1121 29.7322C19.3725 29.7322 21.3758 28.8405 22.4998 27.4396C23.6239 28.8405 25.6273 29.7322 27.8876 29.7322C30.1479 29.7322 32.1513 28.8405 33.2754 27.4396C34.3994 28.8405 36.4028 29.7322 38.6631 29.7322C39.2134 29.7322 39.8176 29.6651 40.2584 29.5778L39.4122 32.0212ZM38.6633 27.8346C37.0807 27.8346 35.1014 27.1462 34.4279 25.7266C34.2992 25.4552 34.2244 25.1572 34.2244 24.8505C34.2244 24.3264 33.7997 23.9016 33.2755 23.9016C32.7513 23.9016 32.3266 24.3264 32.3266 24.8505C32.3266 25.1572 32.2512 25.4562 32.1233 25.7264C31.5359 26.9647 29.7838 27.8346 27.8876 27.8346C25.8487 27.8346 23.4487 26.6965 23.4487 24.8505C23.4487 24.3264 23.024 23.9016 22.4998 23.9016C21.9759 23.9016 21.551 24.3264 21.551 24.8505C21.551 26.6385 19.2629 27.8346 17.1121 27.8346C15.0669 27.8346 12.6732 26.6853 12.6732 24.8505C12.6732 24.3264 12.2483 23.9016 11.7244 23.9016C11.2003 23.9016 10.7755 24.3264 10.7755 24.8505C10.7755 26.5049 8.67199 27.8346 6.33661 27.8346C3.97243 27.8346 1.89773 26.4926 1.89773 24.8505C1.89773 22.1063 3.96264 19.4797 7.71201 17.4546C11.6463 15.3296 16.8982 14.1593 22.5 14.1593C28.1018 14.1593 33.3537 15.3296 37.288 17.4546C41.0374 19.4797 43.1022 22.1063 43.1022 24.8505C43.1022 26.4876 41.0365 27.8346 38.6633 27.8346Z" fill="#222222"/>
<path d="M22.4997 16.8691C21.9757 16.8691 21.5508 17.2939 21.5508 17.818V19.9266C21.5508 20.4507 21.9757 20.8755 22.4997 20.8755C23.0238 20.8755 23.4486 20.4507 23.4486 19.9266V17.818C23.4486 17.2939 23.0237 16.8691 22.4997 16.8691Z" fill="#222222"/>
<path d="M14.1744 17.0891L11.6441 19.1976C11.2416 19.5332 11.1872 20.1314 11.5228 20.5341C11.8585 20.9368 12.4566 20.9907 12.8591 20.6554L15.3894 18.5468C15.7921 18.2113 15.8464 17.613 15.5109 17.2104C15.1754 16.808 14.5771 16.7536 14.1744 17.0891Z" fill="#222222"/>
<path d="M33.3562 19.1995L30.8258 17.0909C30.4234 16.7558 29.8252 16.8098 29.4894 17.2123C29.1541 17.615 29.2084 18.2131 29.6108 18.5487L32.1412 20.6573C32.5431 20.9923 33.1417 20.9387 33.4776 20.5359C33.8129 20.1333 33.7586 19.535 33.3562 19.1995Z" fill="#222222"/>
</g>
</g>
<defs>
<clipPath id="clip0_0_1104">
<rect width="45" height="45" fill="white" transform="translate(0 0.589844)"/>
</clipPath>
<clipPath id="clip1_0_1104">
<rect width="45" height="22.0909" fill="white" transform="translate(0 12.0449)"/>
</clipPath>
</defs>
</svg>
