<svg width="26" height="26" viewBox="0 0 26 26" fill="none" xmlns="http://www.w3.org/2000/svg">
<g clip-path="url(#clip0_0_6735)">
<g clip-path="url(#clip1_0_6735)">
<g clip-path="url(#clip2_0_6735)">
<path d="M21.4082 12.9736H4.1377M4.1377 12.9736C3.68359 12.9736 3.2832 12.6318 3.22949 12.1777C3.2832 11.7236 3.68359 11.3818 4.1377 11.4404H22.0918C22.6582 11.3818 23.1709 11.7822 23.2295 12.3486V13.7109C23.1709 14.165 22.7754 14.5068 22.3213 14.4482H4.1377C3.68359 14.5068 3.2832 14.165 3.22949 13.7109C3.2832 13.2568 3.68359 12.915 4.1377 12.9736ZM23.2295 16.3818H1.6377C1.06641 16.4355 0.558594 15.9814 0.5 15.415C0.558594 14.8486 1.06641 14.3896 1.6377 14.4482H24.0791C24.7627 14.3896 25.3877 14.9023 25.5 15.5859V17.29C25.4414 17.8564 24.9336 18.3105 24.3623 18.2568H1.6377C1.06641 18.3105 0.558594 17.8564 0.5 17.29C0.558594 16.7236 1.06641 16.2646 1.6377 16.3232L23.2295 16.3818ZM13.625 8.36914C18 8.36914 21.5791 9.05273 21.5791 9.90723C21.5791 10.7568 18 11.4404 13.625 11.4404C9.25 11.4404 5.6709 10.7568 5.6709 9.90723C5.6709 9.05273 9.19141 8.36914 13.625 8.36914Z" stroke="black" stroke-width="0.537109" stroke-linecap="round" stroke-linejoin="round"/>
</g>
</g>
</g>
<defs>
<clipPath id="clip0_0_6735">
<rect width="25" height="25" fill="white" transform="translate(0.5 0.800781)"/>
</clipPath>
<clipPath id="clip1_0_6735">
<rect width="25" height="25" fill="white" transform="translate(0.5 0.800781)"/>
</clipPath>
<clipPath id="clip2_0_6735">
<rect width="25" height="25" fill="white" transform="translate(0.5 0.800781)"/>
</clipPath>
</defs>
</svg>
