<svg width="40" height="41" viewBox="0 0 40 41" fill="none" xmlns="http://www.w3.org/2000/svg">
<g clip-path="url(#clip0_0_795)">
<g clip-path="url(#clip1_0_795)">
<path d="M38.7373 24.4773C37.9628 22.7074 37.1937 20.9346 36.4159 19.1658C36.2017 18.6773 36.0488 18.1554 35.7284 17.7189C35.5703 17.5033 35.5088 17.2887 35.5098 17.0314C35.5152 15.8086 35.5226 14.5846 35.5098 13.3606C35.4929 11.5544 35.0112 9.86686 34.1306 8.28353C33.6787 7.47207 33.2542 6.64707 32.7906 5.84291C32.6813 5.65541 32.6654 5.48457 32.8139 5.30436C32.9868 5.09291 33.0442 4.84082 33.0442 4.57207C33.0463 3.42623 33.0452 2.28041 33.0442 1.13561C33.0442 0.66582 32.8489 0.336654 32.3716 0.200195H25.7669C25.2544 0.332487 25.1049 0.50957 25.1007 1.0554C25.0911 2.25332 25.0964 3.4502 25.0986 4.64811C25.0986 4.85957 25.1154 5.07416 25.2556 5.24186C25.4646 5.48873 25.3967 5.71373 25.2556 5.95748C24.7357 6.8502 24.2624 7.76791 23.7733 8.67728C23.6184 8.96478 23.4699 9.03041 23.1506 8.93561C20.4578 8.13873 18.1088 8.7627 16.0664 10.62C15.9721 10.7054 15.8946 10.8648 15.7513 10.82C15.6092 10.7762 15.6324 10.6023 15.6059 10.4804C15.3132 9.14394 15.0139 7.80957 14.7328 6.47103C14.1874 3.87728 11.4735 1.70436 8.37647 2.11998C5.63703 2.48666 3.46734 4.84707 3.44612 7.55541C3.43869 8.53457 3.70393 9.46166 3.90445 10.4012C4.37447 12.6054 4.86677 14.8043 5.34102 17.0074C5.42378 17.3939 5.39619 17.4262 4.97711 17.4324C4.64608 17.4367 4.31399 17.4377 3.98297 17.4324C3.53312 17.4252 3.22225 17.6211 3.04719 18.0242C2.07534 20.2502 1.11091 22.4773 0.129509 24.6981C-0.295943 25.6617 0.402179 26.1711 1.13107 26.1689C1.54273 26.1679 1.95333 26.1689 2.36392 26.1699C2.97398 26.1721 2.97504 26.1721 2.97504 26.7824C2.9761 30.3617 2.97504 33.9418 2.9761 37.5211C2.9761 37.7679 2.96868 38.0158 3.04507 38.2564C3.17557 38.6711 3.44718 38.9252 3.89492 38.9679C5.4365 39.1158 6.98129 39.2336 8.52394 39.3711C9.88199 39.4929 11.2411 39.5961 12.6002 39.7148C14.0633 39.8418 15.5253 39.9804 16.9916 40.0856C17.5561 40.1262 18.1258 40.0908 18.6849 40.2002H20.1172C20.4663 40.1158 20.8259 40.1408 21.1782 40.1304C22.9012 40.0824 24.6094 39.8596 26.3261 39.7367C27.6724 39.6398 29.0167 39.5012 30.3621 39.3814C31.9057 39.2449 33.4516 39.1408 34.9932 38.9793C35.5724 38.9189 35.8684 38.6324 35.9651 38.0668C36.0001 37.8606 35.9894 37.6512 35.9894 37.4429C35.9904 33.9408 35.9904 30.4387 35.9904 26.9367C35.9904 26.8064 35.9958 26.6762 35.9904 26.5461C35.9788 26.2814 36.1029 26.1699 36.3714 26.1742C36.7819 26.1793 37.1937 26.1773 37.6042 26.1742C38.8562 26.1668 39.2297 25.6043 38.7373 24.4773ZM26.7781 2.02311C26.7738 1.82728 26.8194 1.75645 27.0369 1.75748C28.3876 1.76791 29.7392 1.76582 31.0909 1.75853C31.2777 1.75853 31.3413 1.80645 31.3371 1.99707C31.3254 2.56895 31.3212 3.14186 31.3381 3.71373C31.3444 3.93978 31.2448 3.96166 31.0581 3.95957C30.3822 3.95123 29.7063 3.95645 29.0316 3.95645C28.3684 3.95645 27.7064 3.94811 27.0443 3.96061C26.8364 3.96478 26.7727 3.90853 26.7781 3.70123C26.7918 3.14186 26.7908 2.58248 26.7781 2.02311ZM24.3272 12.7898C24.4184 11.5137 24.8036 10.321 25.4168 9.19603C26.0343 8.06373 26.6549 6.93145 27.2629 5.79395C27.3658 5.6002 27.4729 5.50748 27.7128 5.51166C28.6146 5.52832 29.5164 5.51998 30.4183 5.51791C30.5636 5.51791 30.6919 5.50748 30.7789 5.6752C31.5333 7.11895 32.3917 8.50957 33.0718 9.98978C33.5714 11.0794 33.8081 12.2377 33.8113 13.4367C33.8144 14.6867 33.8028 15.9367 33.8218 17.1867C33.8261 17.4836 33.7104 17.5168 33.4548 17.5148C31.9822 17.5043 30.5106 17.5096 29.0379 17.5096C27.5802 17.5096 26.1213 17.4992 24.6624 17.5179C24.3378 17.5221 24.2646 17.4242 24.2731 17.1242C24.3092 15.6793 24.2243 14.2336 24.3272 12.7898ZM5.22538 8.37207C4.79462 6.27936 6.15054 4.32623 8.30008 3.8377C10.3414 3.37416 12.4984 4.61166 13.0023 6.63353C13.5361 8.77623 13.9647 10.9439 14.4442 13.1002C14.4718 13.2273 14.4283 13.3293 14.3922 13.4387C13.9794 14.6804 13.9222 15.9398 14.2383 17.2064C14.3148 17.5148 14.1948 17.5148 13.9614 17.5127C12.8877 17.5054 11.814 17.5096 10.7403 17.5096C9.66768 17.5096 8.59397 17.5074 7.52027 17.5117C7.32187 17.5127 7.19031 17.5086 7.13513 17.2502C6.50597 14.2898 5.83544 11.3367 5.22538 8.37207ZM2.43713 24.4824C2.16234 24.4824 2.09019 24.4449 2.21327 24.1689C2.92518 22.5648 3.6286 20.9564 4.31612 19.3429C4.42222 19.0929 4.57288 19.0679 4.80204 19.0689C6.97493 19.0752 9.14781 19.0721 11.3207 19.0721C13.5063 19.0721 15.6929 19.0783 17.8786 19.0668C18.1989 19.0648 18.2658 19.1168 18.1301 19.4242C17.4266 21.0033 16.7391 22.5898 16.0569 24.1783C15.9624 24.4002 15.8478 24.4846 15.5932 24.4836C11.2072 24.4752 6.82214 24.4752 2.43713 24.4824ZM18.2859 38.5461C15.3174 38.2752 12.3466 38.0252 9.37592 37.7689C7.91071 37.6418 6.44655 37.5054 4.98029 37.3961C4.69807 37.3742 4.70549 37.2398 4.70549 37.0439C4.70868 35.1564 4.70762 33.2689 4.70762 31.3814C4.70762 29.7283 4.71504 28.0742 4.70019 26.4211C4.697 26.1168 4.77446 26.0314 5.09169 26.0324C8.77752 26.0439 12.4644 26.0324 16.1503 26.0481C16.7359 26.0502 17.0828 25.8418 17.3003 25.3043C17.7131 24.2836 18.1724 23.2804 18.6128 22.2699C18.6372 22.2742 18.6606 22.2773 18.6849 22.2814V23.8377C18.6849 28.6158 18.6817 33.3929 18.6923 38.1711C18.6934 38.4961 18.6298 38.5783 18.2859 38.5461ZM19.3067 17.5096C18.3126 17.5096 17.3184 17.5033 16.3253 17.5148C16.0813 17.5179 15.9636 17.4648 15.8776 17.2106C14.7784 13.9543 17.3014 10.3856 20.7899 10.2721C21.4997 10.2481 22.1883 10.3262 22.8513 10.5887C23.0031 10.6481 23.1018 10.7012 23.0456 10.8939C22.6721 12.1731 22.6773 13.4867 22.6869 14.8012C22.6922 15.5824 22.6753 16.3627 22.6943 17.1429C22.7018 17.4262 22.6381 17.5242 22.3273 17.5179C21.3214 17.4971 20.3136 17.5096 19.3067 17.5096ZM36.5146 24.4846C35.5873 24.4648 34.6589 24.4742 33.7306 24.4793C33.1513 24.4814 32.7884 24.7877 32.7906 25.2574C32.7917 25.7252 33.1609 26.0293 33.7369 26.0398C34.2537 26.0492 34.2537 26.0492 34.2537 26.5637C34.2537 30.0262 34.2494 33.4898 34.2622 36.9523C34.2632 37.2814 34.1901 37.3793 33.8367 37.4086C29.7434 37.7481 25.6523 38.1096 21.5612 38.4648C21.2439 38.4918 20.9257 38.5064 20.6106 38.5481C20.3718 38.5793 20.2689 38.5502 20.2689 38.2637C20.2786 32.9398 20.2764 27.6158 20.2764 22.2908C20.2987 22.2824 20.3209 22.2742 20.3443 22.2648C20.7952 23.2949 21.2631 24.3189 21.6896 25.3586C21.8933 25.8543 22.2212 26.0533 22.7538 26.0449C23.9336 26.0283 25.1134 26.0471 26.2932 26.0367C26.9776 26.0304 27.3828 25.4554 27.1038 24.9106C26.9351 24.5814 26.6433 24.4731 26.2816 24.4752C25.3139 24.4814 24.3452 24.4689 23.3776 24.4836C23.1304 24.4877 23.0042 24.4168 22.9066 24.1877C22.2254 22.5971 21.5358 21.0106 20.8344 19.4283C20.7072 19.1398 20.7358 19.0648 21.0774 19.0658C25.4529 19.0762 29.8283 19.0742 34.2049 19.0679C34.4362 19.0668 34.5539 19.1304 34.6462 19.3481C35.3327 20.9502 36.0308 22.5471 36.7363 24.1408C36.8509 24.4012 36.8457 24.4918 36.5146 24.4846Z" fill="#4A5568"/>
<path d="M30.0229 24.4845C30.4643 24.4929 30.7879 24.8179 30.7889 25.2533C30.7889 25.6908 30.4208 26.0491 29.9847 26.0376C29.5699 26.0261 29.2059 25.6605 29.207 25.2543C29.208 24.8189 29.5709 24.4762 30.0229 24.4845Z" fill="#4A5568"/>
<path d="M8.82062 11.545C8.27635 11.5461 7.95594 11.294 7.87847 10.9211C7.80421 10.5596 8.00686 10.1492 8.38456 10.0565C9.20257 9.85753 10.0291 9.68461 10.8598 9.54086C11.2322 9.47627 11.5887 9.78357 11.6704 10.1461C11.751 10.5044 11.5558 10.9325 11.1877 11.0252C10.359 11.2336 9.51769 11.395 8.82062 11.545Z" fill="#4A5568"/>
<path d="M11.7241 13.3936C12.1252 13.3957 12.4318 13.6467 12.505 14.0279C12.5772 14.4061 12.3894 14.7873 11.9979 14.8832C11.1809 15.0842 10.3544 15.2572 9.52578 15.4029C9.17035 15.4654 8.81704 15.1666 8.73642 14.8269C8.64623 14.4447 8.82023 14.0853 9.17459 13.9238C9.32207 13.8572 11.5544 13.3926 11.7241 13.3936Z" fill="#4A5568"/>
</g>
</g>
<defs>
<clipPath id="clip0_0_795">
<rect width="40" height="40" fill="white" transform="translate(0 0.200195)"/>
</clipPath>
<clipPath id="clip1_0_795">
<rect width="40" height="40" fill="white" transform="translate(0 0.200195)"/>
</clipPath>
</defs>
</svg>
