<svg width="78" height="15" viewBox="0 0 78 15" fill="none" xmlns="http://www.w3.org/2000/svg">
<path d="M6.99935 2.05664L8.80185 5.70831L12.8327 6.29747L9.91602 9.13831L10.6043 13.1516L6.99935 11.2558L3.39435 13.1516L4.08268 9.13831L1.16602 6.29747L5.19685 5.70831L6.99935 2.05664Z" fill="#FFB321" stroke="#FFB321" stroke-width="1.16667" stroke-linecap="round" stroke-linejoin="round"/>
<path d="M22.9993 2.05664L24.8018 5.70831L28.8327 6.29747L25.916 9.13831L26.6043 13.1516L22.9993 11.2558L19.3943 13.1516L20.0827 9.13831L17.166 6.29747L21.1968 5.70831L22.9993 2.05664Z" fill="#FFB321" stroke="#FFB321" stroke-width="1.16667" stroke-linecap="round" stroke-linejoin="round"/>
<path d="M38.9993 2.05664L40.8018 5.70831L44.8327 6.29747L41.916 9.13831L42.6043 13.1516L38.9993 11.2558L35.3943 13.1516L36.0827 9.13831L33.166 6.29747L37.1968 5.70831L38.9993 2.05664Z" fill="#FFB321" stroke="#FFB321" stroke-width="1.16667" stroke-linecap="round" stroke-linejoin="round"/>
<path d="M54.9993 2.05664L56.8018 5.70831L60.8327 6.29747L57.916 9.13831L58.6043 13.1516L54.9993 11.2558L51.3943 13.1516L52.0827 9.13831L49.166 6.29747L53.1968 5.70831L54.9993 2.05664Z" fill="#FFB321" stroke="#FFB321" stroke-width="1.16667" stroke-linecap="round" stroke-linejoin="round"/>
<path d="M70.9993 2.05664L72.8018 5.70831L76.8327 6.29747L73.916 9.13831L74.6043 13.1516L70.9993 11.2558L67.3943 13.1516L68.0827 9.13831L65.166 6.29747L69.1968 5.70831L70.9993 2.05664Z" stroke="#FFB321" stroke-width="1.16667" stroke-linecap="round" stroke-linejoin="round"/>
</svg>
