<svg width="26" height="26" viewBox="0 0 26 26" fill="none" xmlns="http://www.w3.org/2000/svg">
<g clip-path="url(#clip0_0_6785)">
<g clip-path="url(#clip1_0_6785)">
<g clip-path="url(#clip2_0_6785)">
<path fill-rule="evenodd" clip-rule="evenodd" d="M20.5098 14.2529L24.709 25.8008H1.29102L5.49023 14.2529L1.125 8.78906H24.875L20.5098 14.2529ZM5.91016 13.9502H20.0947L23.8057 9.31152H2.19922L5.91016 13.9502ZM20.0361 14.4629H5.96875L2.02832 25.2881H23.9717L20.0361 14.4629Z" fill="black"/>
<path d="M9.65039 3.89062H10.1631V6.98633H9.65039V3.89062Z" fill="black"/>
<path d="M12.7412 0.800781H13.2588V6.9873H12.7412V0.800781Z" fill="black"/>
<path d="M15.8369 3.89062H16.3496V6.98633H15.8369V3.89062Z" fill="black"/>
<path fill-rule="evenodd" clip-rule="evenodd" d="M11.7109 19.3545C11.7109 18.7393 12.6094 17.4062 12.79 17.1475L13 16.8398L13.21 17.1475C13.3906 17.4062 14.2891 18.7393 14.2891 19.3545C14.2891 20.0674 13.7129 20.6436 13 20.6436C12.292 20.6436 11.7109 20.0674 11.7109 19.3545ZM12.2285 19.3545C12.2285 19.7842 12.5752 20.1309 13 20.1309C13.4248 20.1309 13.7715 19.7842 13.7715 19.3545C13.7715 19.0762 13.3711 18.3389 13 17.7627C12.6289 18.3389 12.2285 19.0762 12.2285 19.3545Z" fill="black"/>
<path fill-rule="evenodd" clip-rule="evenodd" d="M10.6807 21.1621H15.3193V23.7402H10.6807V21.1621ZM11.1934 23.2227H14.8018V21.6748H11.1934V23.2227Z" fill="black"/>
</g>
</g>
</g>
<defs>
<clipPath id="clip0_0_6785">
<rect width="25" height="25" fill="white" transform="translate(0.5 0.800781)"/>
</clipPath>
<clipPath id="clip1_0_6785">
<rect width="25" height="25" fill="white" transform="translate(0.5 0.800781)"/>
</clipPath>
<clipPath id="clip2_0_6785">
<rect width="25" height="25" fill="white" transform="translate(0.5 0.800781)"/>
</clipPath>
</defs>
</svg>
