<svg width="45" height="46" viewBox="0 0 45 46" fill="none" xmlns="http://www.w3.org/2000/svg">
<g clip-path="url(#clip0_0_1080)">
<g clip-path="url(#clip1_0_1080)">
<path d="M45 24.604C45 23.1421 43.5313 21.9471 41.2185 21.4472V18.9317C41.2185 18.8833 41.2147 18.8357 41.2086 18.7835L41.2094 18.7646C41.2139 18.6942 41.2185 18.6247 41.2185 18.5543C41.2185 15.0095 38.3347 12.1258 34.7899 12.1258C34.5872 12.1258 34.3853 12.1371 34.1841 12.1568C34.085 12.1658 33.9883 12.1825 33.8906 12.1968C33.7954 12.2105 33.6994 12.2226 33.6048 12.2407C33.48 12.2642 33.3583 12.2937 33.2357 12.3247C33.1729 12.3405 33.1102 12.3557 33.0482 12.3731C32.9113 12.4116 32.7774 12.4555 32.645 12.5024C32.6005 12.5183 32.5558 12.5342 32.5119 12.5516C32.3713 12.6053 32.2328 12.6627 32.0967 12.7263C32.0619 12.7421 32.0279 12.7595 31.9939 12.7762C31.8532 12.8442 31.7155 12.9161 31.5809 12.994C31.5522 13.0106 31.5242 13.0288 31.4962 13.0454C31.3594 13.1279 31.2247 13.2126 31.0946 13.3041C31.0696 13.3215 31.0462 13.3404 31.022 13.3585C30.8905 13.4546 30.7604 13.5529 30.6363 13.658C30.6348 13.6595 30.6325 13.6611 30.631 13.6626C29.4739 12.6794 27.9953 12.1273 26.4714 12.1273C26.2686 12.1273 26.0667 12.1386 25.8655 12.1583C25.7665 12.1674 25.6696 12.184 25.5721 12.1984C25.4768 12.212 25.3807 12.2241 25.2862 12.2422C25.1615 12.2657 25.0396 12.2952 24.9172 12.3262C24.8544 12.3421 24.7916 12.3572 24.7295 12.3746C24.5927 12.4132 24.4588 12.457 24.3265 12.5039C24.2818 12.5198 24.2372 12.5357 24.1934 12.5531C24.0527 12.6068 23.9143 12.6642 23.7782 12.7278C23.7434 12.7437 23.7094 12.7611 23.6753 12.7777C23.5346 12.8458 23.397 12.9176 23.2624 12.9955C23.2336 13.0121 23.2056 13.0303 23.1776 13.0469C23.0407 13.1294 22.9061 13.2141 22.7761 13.3056C22.7511 13.323 22.7276 13.3419 22.7035 13.36C22.5718 13.4561 22.4417 13.5544 22.3177 13.6595C22.3162 13.661 22.3139 13.6626 22.3125 13.6641C21.2794 12.786 19.9891 12.2551 18.6398 12.1507C18.6028 12.1454 18.5695 12.1288 18.5309 12.1288C18.4705 12.1288 18.4122 12.1363 18.3525 12.1379C18.2844 12.1318 18.2185 12.125 18.1513 12.125C16.6273 12.125 15.1487 12.6771 13.9916 13.6603C12.8345 12.6771 11.3559 12.125 9.83193 12.125C6.28715 12.125 3.40336 15.0088 3.40336 18.5536C3.40336 18.6247 3.4079 18.6942 3.41244 18.7638L3.41319 18.782C3.40715 18.8311 3.40336 18.8811 3.40336 18.9317V21.5394C1.31975 22.0893 0 23.2494 0 24.604C0 26.0032 1.35756 27.1513 3.40639 27.6844C3.43588 31.2035 6.30605 34.0578 9.83193 34.0578H34.7899C38.2848 34.0578 41.1323 31.2526 41.2109 27.7759C43.473 27.2919 45 26.0893 45 24.604ZM4.91596 18.5536C4.91596 15.843 7.12135 13.6376 9.83193 13.6376C11.0972 13.6376 12.2748 14.1148 13.1899 14.9793C12.5025 16.0018 12.1008 17.2316 12.1008 18.5536C12.1008 18.9718 12.4389 19.3099 12.8572 19.3099C13.2754 19.3099 13.6135 18.9718 13.6135 18.5536C13.6135 15.9073 15.7175 13.748 18.3395 13.6474C19.4309 13.6883 20.4496 14.0808 21.2808 14.7758C20.5056 15.8377 20.042 17.1416 20.042 18.5536C20.042 18.9718 20.3801 19.3099 20.7983 19.3099C21.2165 19.3099 21.5546 18.9718 21.5546 18.5536C21.5546 17.2611 22.0598 16.0865 22.8789 15.2077C22.9833 15.0958 23.0922 14.9906 23.2041 14.89C23.2215 14.8749 23.2374 14.859 23.2548 14.8439C23.3531 14.7577 23.456 14.6783 23.5595 14.6011C23.5951 14.5747 23.6299 14.5467 23.6662 14.5217C23.7486 14.4635 23.8341 14.4121 23.9195 14.3599C23.9794 14.3236 24.0383 14.2842 24.1004 14.2502C24.1608 14.2169 24.2236 14.1882 24.2849 14.1572C24.3718 14.1141 24.4581 14.0687 24.5481 14.0301C24.5851 14.0142 24.6245 14.0021 24.6623 13.987C24.7765 13.9416 24.8906 13.897 25.0086 13.86C25.0261 13.8547 25.0442 13.8509 25.0624 13.8456C25.2 13.804 25.3392 13.7669 25.4821 13.7374C25.4942 13.7352 25.5063 13.7344 25.5184 13.7314C25.6666 13.7019 25.8164 13.6784 25.9684 13.6626C26.1348 13.6459 26.3027 13.6369 26.4721 13.6369C27.6345 13.6369 28.7228 14.0392 29.6017 14.7751C28.8265 15.8369 28.3628 17.1408 28.3628 18.5528C28.3628 18.9711 28.7009 19.3091 29.1192 19.3091C29.5374 19.3091 29.8755 18.9711 29.8755 18.5528C29.8755 17.2603 30.3806 16.0858 31.1997 15.2069C31.3041 15.095 31.413 14.9899 31.525 14.8893C31.5424 14.8742 31.5583 14.8583 31.5756 14.8431C31.6739 14.7569 31.7768 14.6775 31.8805 14.6004C31.916 14.5739 31.9507 14.5459 31.9871 14.521C32.0695 14.4627 32.155 14.4113 32.2405 14.3591C32.3002 14.3228 32.3592 14.2835 32.4212 14.2495C32.4817 14.2162 32.5445 14.1874 32.6057 14.1564C32.6927 14.1133 32.7789 14.0679 32.8689 14.0294C32.906 14.0135 32.9453 14.0014 32.9831 13.9863C33.0973 13.9409 33.2115 13.8963 33.3295 13.8592C33.3469 13.8539 33.365 13.8501 33.3832 13.8448C33.5208 13.8032 33.66 13.7662 33.8029 13.7367C33.815 13.7344 33.8272 13.7337 33.8393 13.7306C33.9875 13.7011 34.1372 13.6777 34.2893 13.6618C34.4556 13.6452 34.6235 13.6361 34.7929 13.6361C37.5035 13.6361 39.7089 15.8415 39.7089 18.5521V21.8889L39.6983 21.9947C39.6975 22.0106 39.6907 22.025 39.6893 22.0409C39.6794 22.1271 39.6597 22.2111 39.6235 22.2859C39.6227 22.2874 39.6212 22.289 39.6212 22.289C39.5804 22.3714 39.5259 22.4455 39.4601 22.5075C39.4525 22.5143 39.4435 22.5173 39.4359 22.5242C39.3746 22.5779 39.3073 22.6247 39.2317 22.6558C39.1447 22.6905 39.0502 22.7125 38.9511 22.7125H36.8683H34.7717H28.5489H26.4388H19.4733H17.3647H11.1525H9.04238H5.67227C5.57395 22.7125 5.48017 22.6905 5.39395 22.6565C5.34328 22.6361 5.30093 22.6021 5.2563 22.5711C5.22681 22.5506 5.19428 22.5355 5.16782 22.5113C5.11715 22.4644 5.0763 22.4069 5.04 22.3464C5.02941 22.3298 5.0158 22.3147 5.00672 22.2973C4.9742 22.233 4.95529 22.1612 4.94168 22.087C4.93563 22.053 4.92277 22.0213 4.92126 21.9857L4.91596 21.9358V18.9537L4.93034 18.8228L4.91596 18.5536ZM36.2292 24.8883C36.2239 24.8997 36.2216 24.9111 36.2155 24.9224C36.1732 25.0041 36.1066 25.0873 36.0348 25.1704C35.9939 25.2166 35.9485 25.2627 35.8986 25.3081C35.8457 25.3573 35.7867 25.4057 35.7239 25.4533C35.6249 25.5282 35.5145 25.6015 35.3935 25.6719C35.3572 25.6931 35.3208 25.7143 35.283 25.7347C35.2066 25.7763 35.128 25.8163 35.0448 25.8557C34.6016 26.0614 34.0888 26.221 33.5337 26.3291C33.5315 26.3291 33.5299 26.3299 33.5276 26.3299C33.2592 26.3821 32.9808 26.4214 32.6957 26.4486C32.4 26.4758 32.0922 26.494 31.7662 26.494C31.5378 26.494 31.3117 26.4834 31.0885 26.4675C31.0273 26.463 30.9668 26.4577 30.9055 26.4516C30.7294 26.4358 30.5561 26.4153 30.3852 26.3896C30.3368 26.3821 30.2869 26.3768 30.2385 26.3684C30.0267 26.3336 29.8203 26.2921 29.6214 26.2429C29.5843 26.2338 29.5503 26.2233 29.5139 26.2134C29.3521 26.1711 29.1955 26.1242 29.0443 26.0727C29.0163 26.0629 28.9883 26.0531 28.9611 26.0433C29.1328 25.8254 29.2674 25.5955 29.3574 25.3535C29.3582 25.352 29.3589 25.3497 29.3596 25.3482C29.4013 25.2363 29.433 25.1221 29.455 25.0056C29.4572 24.9958 29.4603 24.9867 29.4625 24.9769C29.4829 24.8558 29.4958 24.7311 29.4958 24.604C29.4958 24.4762 29.4837 24.3506 29.4603 24.2258H36.1656C36.177 24.244 36.1966 24.2636 36.2065 24.2811C36.2163 24.3 36.2246 24.3181 36.2329 24.3363C36.2745 24.4278 36.3025 24.5178 36.3025 24.604C36.3025 24.6955 36.2738 24.7908 36.2292 24.8883ZM22.5945 26.4532C22.5295 26.4471 22.4652 26.4418 22.4009 26.4343C22.1302 26.4047 21.8655 26.3669 21.6121 26.3155C21.5826 26.3094 21.5546 26.3012 21.5251 26.2951C21.296 26.2459 21.0766 26.1869 20.8672 26.1212C20.815 26.1045 20.7613 26.0886 20.7106 26.0713C20.489 25.9956 20.2795 25.9116 20.0882 25.8179C20.0768 25.8125 20.0677 25.8065 20.0564 25.8004C20.0617 25.7929 20.0647 25.7846 20.0693 25.777C20.1154 25.7022 20.1577 25.6265 20.1955 25.5486C20.2122 25.5146 20.2258 25.4791 20.2409 25.445C20.2682 25.3814 20.2946 25.3172 20.315 25.2514C20.3332 25.1962 20.3445 25.1394 20.3582 25.0835C20.3695 25.0343 20.3839 24.9859 20.3915 24.936C20.4095 24.8263 20.4202 24.7159 20.4202 24.604C20.4202 24.4769 20.4081 24.3514 20.3839 24.2258H27.8372C27.8554 24.2538 27.8872 24.2841 27.9015 24.3113C27.9023 24.3128 27.903 24.3143 27.9038 24.3158C27.956 24.4164 27.9832 24.5133 27.9832 24.604C27.9832 24.6925 27.9545 24.7855 27.9121 24.8801C27.8939 24.9193 27.8652 24.9602 27.8395 25.0003C27.807 25.0517 27.7706 25.1032 27.7261 25.1553C27.6799 25.2091 27.6293 25.262 27.5717 25.3142C27.5347 25.3482 27.4916 25.3823 27.4493 25.4163C27.3714 25.4783 27.2927 25.5411 27.1996 25.6001C26.9955 25.7302 26.761 25.8458 26.5061 25.9502C26.4675 25.9661 26.4275 25.982 26.3874 25.9971C26.1454 26.0902 25.8852 26.1703 25.6106 26.2391C25.5842 26.2459 25.56 26.2535 25.5328 26.2595C25.4005 26.2905 25.2643 26.3178 25.1266 26.3427C24.9345 26.3775 24.7402 26.4101 24.5315 26.4335C24.4558 26.4418 24.3772 26.4463 24.3 26.4532C24.0255 26.4766 23.7449 26.4947 23.4454 26.4947C23.1565 26.4947 22.8736 26.4773 22.5945 26.4532ZM13.6921 26.4683C13.6308 26.4637 13.5704 26.4584 13.5091 26.4524C13.3328 26.4365 13.1596 26.4161 12.9887 26.3903C12.9404 26.3828 12.8905 26.3775 12.842 26.3692C12.6303 26.3344 12.4238 26.2928 12.2249 26.2436C12.1878 26.2346 12.1538 26.224 12.1175 26.2142C11.9556 26.1718 11.7991 26.1249 11.6478 26.0735C11.6198 26.0636 11.5918 26.0538 11.5646 26.044C11.7363 25.8262 11.8709 25.5963 11.9609 25.3543C11.9617 25.3527 11.9625 25.3504 11.9632 25.349C12.0048 25.237 12.0365 25.1228 12.0585 25.0063C12.0607 24.9965 12.0638 24.9874 12.0661 24.9776C12.088 24.8558 12.1008 24.7311 12.1008 24.604C12.1008 24.4762 12.0887 24.3506 12.0653 24.2258H18.7654C18.7805 24.2501 18.807 24.275 18.8198 24.2984C18.8244 24.3075 18.8282 24.3166 18.8327 24.3249C18.8795 24.4217 18.9075 24.5155 18.9075 24.604C18.9075 24.6917 18.8788 24.7847 18.8365 24.8785C18.8228 24.908 18.8062 24.936 18.7895 24.9647C18.751 25.0313 18.7011 25.0986 18.6428 25.1659C18.5967 25.2181 18.5506 25.265 18.5015 25.3096C18.4598 25.3482 18.4115 25.386 18.3638 25.4238C18.2791 25.4903 18.1921 25.5554 18.0938 25.6167C18.0695 25.6318 18.0401 25.6469 18.0144 25.6621C17.8064 25.7853 17.5719 25.8965 17.3163 25.9948C17.2762 26.0107 17.2392 26.0273 17.1975 26.0425C17.0713 26.0879 16.9374 26.1287 16.802 26.168C16.7249 26.1907 16.6439 26.2112 16.563 26.2315C16.4027 26.2716 16.2394 26.3087 16.0692 26.3404C15.8869 26.3737 15.7001 26.404 15.5027 26.4267C15.4082 26.438 15.3121 26.4456 15.2168 26.4539C14.9445 26.4766 14.667 26.4955 14.3697 26.4955C14.1414 26.4947 13.9152 26.4842 13.6921 26.4683ZM1.51261 24.604C1.51261 24.095 2.26588 23.4158 3.67639 23.0225C3.68849 23.0453 3.70361 23.0649 3.71647 23.0869C3.75428 23.1519 3.79135 23.2169 3.83521 23.2774C3.89647 23.3629 3.96303 23.4438 4.03487 23.5194C4.07495 23.5611 4.11806 23.5981 4.16117 23.6367C4.21563 23.6858 4.27235 23.7327 4.33135 23.7773C4.37294 23.8083 4.41378 23.8393 4.4584 23.8673C4.55899 23.9316 4.66336 23.9906 4.77378 24.0391C4.7995 24.0503 4.82672 24.0572 4.85319 24.0678C4.95151 24.1063 5.05285 24.1381 5.15723 24.1623C5.19428 24.1714 5.23135 24.1797 5.26992 24.1865C5.4 24.2092 5.53386 24.2258 5.67227 24.2258H10.4423C10.4605 24.2538 10.4922 24.2841 10.5065 24.3113C10.5073 24.3128 10.5081 24.3143 10.5088 24.3158C10.561 24.4164 10.5883 24.5133 10.5883 24.604C10.5883 24.6925 10.5595 24.7855 10.5172 24.8801C10.499 24.9193 10.4703 24.9602 10.4445 25.0003C10.412 25.0517 10.3757 25.1032 10.3311 25.1553C10.285 25.2091 10.2343 25.262 10.1768 25.3142C10.1397 25.3482 10.0966 25.3823 10.0543 25.4163C9.97642 25.4783 9.89771 25.5411 9.80468 25.6001C9.04615 26.0818 7.88748 26.3866 6.65395 26.466C6.59117 26.4698 6.5284 26.4728 6.46412 26.4751C6.26294 26.4842 6.06101 26.4894 5.85832 26.4857C5.76 26.4842 5.66849 26.4766 5.57244 26.4721C5.14285 26.4524 4.71479 26.4108 4.30185 26.3314L4.04697 26.2823C2.44664 25.9245 1.51261 25.1825 1.51261 24.604ZM39.693 27.9824C39.5116 30.5289 37.381 32.5452 34.7899 32.5452H9.83193C7.2295 32.5452 5.09218 30.5123 4.92655 27.9506C5.13681 27.9711 5.35235 27.9854 5.57093 27.9945C5.64277 27.9975 5.71462 27.9983 5.78723 28.0005C5.87495 28.0021 5.96117 28.0073 6.05042 28.0073C6.11925 28.0073 6.18505 28.0028 6.25311 28.0021C6.32345 28.0005 6.39378 27.9991 6.46412 27.9968C6.67135 27.9892 6.87554 27.9771 7.07521 27.9597H7.07748C8.2989 27.8508 9.3744 27.5521 10.2146 27.1126C10.2184 27.1149 10.2229 27.1157 10.2267 27.118C10.4748 27.2458 10.7455 27.3584 11.0284 27.4605C11.073 27.4764 11.1161 27.4938 11.1615 27.509C11.4414 27.6043 11.7355 27.6859 12.0418 27.7547C12.0955 27.7669 12.1493 27.7782 12.2029 27.7888C12.5145 27.8531 12.8352 27.906 13.1657 27.9415C13.2111 27.9469 13.2572 27.9491 13.3026 27.9536C13.652 27.9869 14.0067 28.0089 14.3683 28.0089C16.2182 28.0089 17.8185 27.5853 18.9098 26.8963C19.0535 26.9863 19.2071 27.0718 19.3674 27.152C19.4105 27.1739 19.4582 27.1921 19.5028 27.2133C19.6328 27.2745 19.7652 27.3343 19.9036 27.3887C19.9717 27.4152 20.0428 27.4393 20.1124 27.4643C20.2349 27.5082 20.3589 27.5513 20.4875 27.5906C20.5661 27.6148 20.6463 27.636 20.7272 27.658C20.8543 27.6927 20.9828 27.7253 21.1145 27.7547C21.1992 27.7736 21.2839 27.7918 21.3701 27.8092C21.5062 27.8364 21.6446 27.8591 21.7845 27.8811C21.8693 27.8939 21.9532 27.9075 22.0386 27.9189C22.1929 27.9385 22.3495 27.9529 22.5075 27.9665C22.5825 27.9725 22.6565 27.9816 22.7322 27.9862C22.9666 28.0013 23.2041 28.0096 23.4439 28.0096C25.0904 28.0096 26.5394 27.6731 27.6088 27.1134C27.6126 27.1157 27.6172 27.1164 27.6209 27.1187C27.869 27.2465 28.1397 27.3592 28.4226 27.4613C28.4672 27.4772 28.5104 27.4946 28.5557 27.5097C28.8355 27.605 29.1297 27.6867 29.4361 27.7555C29.4897 27.7676 29.5435 27.779 29.5972 27.7895C29.9087 27.8538 30.2294 27.9068 30.5599 27.9424C30.6053 27.9476 30.6515 27.9499 30.6968 27.9544C31.0462 27.9877 31.4009 28.0096 31.7625 28.0096C32.0771 28.0096 32.3818 27.9937 32.6814 27.9695C32.7101 27.9673 32.7381 27.965 32.7668 27.9627C33.7417 27.878 34.6243 27.6731 35.3693 27.3705C35.4441 27.4008 35.5311 27.4204 35.609 27.4484C35.786 27.5127 35.9645 27.5725 36.152 27.6262C36.2896 27.6655 36.4288 27.7003 36.5717 27.7336C36.7684 27.7797 36.9673 27.8191 37.1723 27.8531C37.322 27.878 37.471 27.9007 37.6245 27.9196C37.8287 27.9446 38.0337 27.9613 38.2425 27.9748C38.4058 27.9854 38.5669 27.9953 38.7317 27.9983C38.8044 27.9998 38.8747 28.0089 38.9481 28.0089C39.1984 28.0089 39.4435 27.9991 39.6847 27.9839C39.6885 27.9824 39.6907 27.9824 39.693 27.9824ZM40.1763 26.4115C40.0591 26.4267 39.9418 26.4411 39.8239 26.4516C39.5667 26.4743 39.3013 26.4887 39.0215 26.491C38.9473 26.4917 38.8739 26.488 38.7998 26.4872C38.5813 26.4842 38.3657 26.4721 38.1525 26.4547C38.0677 26.4471 37.9823 26.4425 37.8991 26.4335C37.651 26.4063 37.409 26.3669 37.1738 26.3208C37.136 26.3133 37.0996 26.3042 37.0618 26.2958L37.0634 26.2943C37.1775 26.1771 37.2812 26.0561 37.3705 25.9298C37.3908 25.9018 37.4052 25.8723 37.4241 25.8436C37.4854 25.7505 37.5406 25.6553 37.5875 25.5584C37.6102 25.5124 37.6291 25.4654 37.648 25.4185C37.6843 25.3301 37.713 25.2393 37.7372 25.1478C37.7485 25.1039 37.7622 25.0608 37.7713 25.0162C37.7977 24.8815 37.8151 24.7447 37.8151 24.604C37.8151 24.4769 37.803 24.3506 37.7795 24.2258H38.9495C39.0865 24.2258 39.2204 24.2092 39.3512 24.185C39.3958 24.1774 39.4389 24.1661 39.4828 24.1555C39.5675 24.1343 39.6499 24.1086 39.7308 24.0783C39.7793 24.061 39.8276 24.0451 39.8738 24.0239C39.9751 23.9778 40.0727 23.9256 40.1657 23.8651C40.23 23.8243 40.2883 23.7766 40.3472 23.7297C40.382 23.7025 40.4161 23.6753 40.4494 23.6458C40.5114 23.5905 40.5695 23.5338 40.6255 23.4725C40.6429 23.4536 40.6581 23.4333 40.6747 23.4136C40.7942 23.2722 40.8963 23.1186 40.9787 22.9514C40.9817 22.9462 40.9855 22.9409 40.9878 22.9356C42.5655 23.2979 43.4874 24.0277 43.4874 24.604C43.4874 25.2703 42.2485 26.1506 40.1763 26.4115Z" fill="#222222"/>
<path d="M9.0746 30.2743C9.49237 30.2743 9.83093 29.9357 9.83093 29.518C9.83093 29.1004 9.49237 28.7617 9.0746 28.7617C8.65692 28.7617 8.31836 29.1004 8.31836 29.518C8.31836 29.9357 8.65692 30.2743 9.0746 30.2743Z" fill="#222222"/>
<path d="M12.8579 31.788C13.2756 31.788 13.6142 31.4493 13.6142 31.0316C13.6142 30.614 13.2756 30.2754 12.8579 30.2754C12.4402 30.2754 12.1016 30.614 12.1016 31.0316C12.1016 31.4493 12.4402 31.788 12.8579 31.788Z" fill="#222222"/>
<path d="M15.8813 30.2743C16.299 30.2743 16.6376 29.9357 16.6376 29.518C16.6376 29.1004 16.299 28.7617 15.8813 28.7617C15.4636 28.7617 15.125 29.1004 15.125 29.518C15.125 29.9357 15.4636 30.2743 15.8813 30.2743Z" fill="#222222"/>
<path d="M18.1509 31.788C18.5685 31.788 18.9072 31.4493 18.9072 31.0316C18.9072 30.614 18.5685 30.2754 18.1509 30.2754C17.7332 30.2754 17.3945 30.614 17.3945 31.0316C17.3945 31.4493 17.7332 31.788 18.1509 31.788Z" fill="#222222"/>
<path d="M21.1762 30.2743C21.5939 30.2743 21.9325 29.9357 21.9325 29.518C21.9325 29.1004 21.5939 28.7617 21.1762 28.7617C20.7586 28.7617 20.4199 29.1004 20.4199 29.518C20.4199 29.9357 20.7586 30.2743 21.1762 30.2743Z" fill="#222222"/>
<path d="M24.2016 31.788C24.6193 31.788 24.9579 31.4493 24.9579 31.0316C24.9579 30.614 24.6193 30.2754 24.2016 30.2754C23.7839 30.2754 23.4453 30.614 23.4453 31.0316C23.4453 31.4493 23.7839 31.788 24.2016 31.788Z" fill="#222222"/>
<path d="M27.227 29.5185C27.6447 29.5185 27.9834 29.1799 27.9834 28.7622C27.9834 28.3445 27.6447 28.0059 27.227 28.0059C26.8093 28.0059 26.4707 28.3445 26.4707 28.7622C26.4707 29.1799 26.8093 29.5185 27.227 29.5185Z" fill="#222222"/>
<path d="M29.4965 31.788C29.9142 31.788 30.2528 31.4493 30.2528 31.0316C30.2528 30.614 29.9142 30.2754 29.4965 30.2754C29.0788 30.2754 28.7402 30.614 28.7402 31.0316C28.7402 31.4493 29.0788 31.788 29.4965 31.788Z" fill="#222222"/>
<path d="M33.2778 30.2743C33.6955 30.2743 34.0341 29.9357 34.0341 29.518C34.0341 29.1004 33.6955 28.7617 33.2778 28.7617C32.8601 28.7617 32.5215 29.1004 32.5215 29.518C32.5215 29.9357 32.8601 30.2743 33.2778 30.2743Z" fill="#222222"/>
<path d="M36.3032 31.0321C36.7209 31.0321 37.0595 30.6935 37.0595 30.2758C37.0595 29.8581 36.7209 29.5195 36.3032 29.5195C35.8855 29.5195 35.5469 29.8581 35.5469 30.2758C35.5469 30.6935 35.8855 31.0321 36.3032 31.0321Z" fill="#222222"/>
</g>
</g>
<defs>
<clipPath id="clip0_0_1080">
<rect width="45" height="45" fill="white" transform="translate(0 0.589844)"/>
</clipPath>
<clipPath id="clip1_0_1080">
<rect width="45" height="22.0909" fill="white" transform="translate(0 12.0449)"/>
</clipPath>
</defs>
</svg>
