<svg width="26" height="26" viewBox="0 0 26 26" fill="none" xmlns="http://www.w3.org/2000/svg">
<g clip-path="url(#clip0_0_6812)">
<g clip-path="url(#clip1_0_6812)">
<g clip-path="url(#clip2_0_6812)">
<path fill-rule="evenodd" clip-rule="evenodd" d="M4.99219 25.7129C4.91406 25.6299 4.87012 25.5225 4.87012 25.415V3.64258C4.87012 2.87109 5.17773 2.12891 5.72461 1.58691C6.27148 1.04004 7.00879 0.732422 7.78027 0.732422H13.3662C14.1377 0.732422 14.8799 1.04004 15.4268 1.58691C15.9688 2.12891 16.2764 2.87109 16.2764 3.64258V5.78125C17.5996 5.88867 18.8301 6.48926 19.7285 7.46094C20.627 8.43262 21.125 9.70703 21.1299 11.0303C21.1299 11.1426 21.0859 11.25 21.0029 11.3281C20.9248 11.4062 20.8174 11.4502 20.71 11.4502H11.0078C10.8955 11.4502 10.7881 11.4062 10.71 11.3281C10.6318 11.25 10.5879 11.1426 10.5879 11.0303C10.5879 9.70703 11.0859 8.43262 11.9844 7.46094C12.8828 6.48926 14.1182 5.88867 15.4365 5.78125V3.64258C15.4365 3.0957 15.2168 2.56836 14.8311 2.17773C14.4404 1.79199 13.918 1.57227 13.3662 1.57227H7.78027C7.2334 1.57227 6.70605 1.79199 6.32031 2.17773C5.92969 2.56836 5.71484 3.0957 5.70996 3.64258V25.415C5.71484 25.5225 5.66602 25.6299 5.58789 25.7129C5.50977 25.791 5.40234 25.835 5.29004 25.835C5.18262 25.835 5.0752 25.791 4.99219 25.7129ZM17.9512 7.12891C16.6426 6.42578 15.0703 6.42578 13.7666 7.12891C12.458 7.82715 11.5889 9.13574 11.4473 10.6104H20.2656C20.1289 9.13574 19.2549 7.82715 17.9512 7.12891Z" fill="black"/>
<path d="M12.8193 14.707C12.8193 14.9365 12.6289 15.127 12.3994 15.127C12.165 15.127 11.9795 14.9365 11.9795 14.707V12.8711C11.9795 12.6416 12.165 12.4512 12.3994 12.4512C12.6289 12.4512 12.8193 12.6416 12.8193 12.8711V14.707Z" fill="black"/>
<path d="M15.124 14.707C15.124 14.9365 14.9385 15.127 14.7041 15.127C14.4697 15.127 14.2842 14.9365 14.2842 14.707V12.8711C14.2842 12.6416 14.4697 12.4512 14.7041 12.4512C14.9385 12.4512 15.124 12.6416 15.124 12.8711V14.707Z" fill="black"/>
<path d="M17.4287 14.707C17.4287 14.9365 17.2432 15.127 17.0088 15.127C16.7793 15.127 16.5889 14.9365 16.5889 14.707V12.8711C16.5889 12.6416 16.7793 12.4512 17.0088 12.4512C17.2432 12.4512 17.4287 12.6416 17.4287 12.8711V14.707Z" fill="black"/>
<path d="M19.7383 14.707C19.7383 14.9365 19.5479 15.127 19.3184 15.127C19.084 15.127 18.8936 14.9365 18.8936 14.707V12.8711C18.8936 12.6416 19.084 12.4512 19.3184 12.4512C19.5479 12.4512 19.7383 12.6416 19.7383 12.8711V14.707Z" fill="black"/>
<path d="M12.8193 18.125C12.8193 18.3545 12.6289 18.5449 12.3994 18.5449C12.165 18.5449 11.9795 18.3545 11.9795 18.125V16.2891C11.9795 16.0596 12.165 15.8691 12.3994 15.8691C12.6289 15.8691 12.8193 16.0596 12.8193 16.2891V18.125Z" fill="black"/>
<path d="M15.124 18.125C15.124 18.3545 14.9385 18.5449 14.7041 18.5449C14.4697 18.5449 14.2842 18.3545 14.2842 18.125V16.2891C14.2842 16.0596 14.4697 15.8691 14.7041 15.8691C14.9385 15.8691 15.124 16.0596 15.124 16.2891V18.125Z" fill="black"/>
<path d="M17.4287 18.125C17.4287 18.3545 17.2432 18.5449 17.0088 18.5449C16.7793 18.5449 16.5889 18.3545 16.5889 18.125V16.2891C16.5889 16.0596 16.7793 15.8691 17.0088 15.8691C17.2432 15.8691 17.4287 16.0596 17.4287 16.2891V18.125Z" fill="black"/>
<path d="M19.7383 18.125C19.7383 18.3545 19.5479 18.5449 19.3184 18.5449C19.084 18.5449 18.8936 18.3545 18.8936 18.125V16.2891C18.8936 16.0596 19.084 15.8691 19.3184 15.8691C19.5479 15.8691 19.7383 16.0596 19.7383 16.2891V18.125Z" fill="black"/>
<path d="M12.6973 19.4092C12.7754 19.4873 12.8193 19.5947 12.8193 19.707V21.543C12.8193 21.7725 12.6289 21.9629 12.3994 21.9629C12.165 21.9629 11.9795 21.7725 11.9795 21.543V19.707C11.9795 19.5947 12.0234 19.4873 12.1016 19.4092C12.1797 19.3311 12.2871 19.2871 12.3994 19.2871C12.5117 19.2871 12.6191 19.3311 12.6973 19.4092Z" fill="black"/>
<path d="M15.002 19.4092C15.0801 19.4873 15.124 19.5947 15.124 19.707V21.543C15.124 21.7725 14.9385 21.9629 14.7041 21.9629C14.4746 21.9629 14.2842 21.7725 14.2842 21.543V19.707C14.2842 19.5947 14.3281 19.4873 14.4062 19.4092C14.4844 19.3311 14.5918 19.2871 14.7041 19.2871C14.8164 19.2871 14.9238 19.3311 15.002 19.4092Z" fill="black"/>
<path d="M17.3066 19.4092C17.3848 19.4873 17.4287 19.5947 17.4287 19.707V21.543C17.4287 21.7725 17.2432 21.9629 17.0088 21.9629C16.7793 21.9629 16.5889 21.7725 16.5889 21.543V19.707C16.5889 19.5947 16.6328 19.4873 16.7109 19.4092C16.7939 19.3311 16.8965 19.2871 17.0088 19.2871C17.1211 19.2871 17.2285 19.3311 17.3066 19.4092Z" fill="black"/>
<path d="M19.6113 19.4092C19.6943 19.4873 19.7383 19.5947 19.7383 19.707V21.543C19.7383 21.7725 19.5479 21.9629 19.3135 21.9629C19.084 21.9629 18.8936 21.7725 18.8936 21.543V19.707C18.8936 19.5947 18.9375 19.4873 19.0205 19.4092C19.0986 19.3311 19.2061 19.2871 19.3135 19.2871C19.4258 19.2871 19.5332 19.3311 19.6113 19.4092Z" fill="black"/>
</g>
</g>
</g>
<defs>
<clipPath id="clip0_0_6812">
<rect width="25" height="25" fill="white" transform="translate(0.5 0.800781)"/>
</clipPath>
<clipPath id="clip1_0_6812">
<rect width="25" height="25" fill="white" transform="translate(0.5 0.800781)"/>
</clipPath>
<clipPath id="clip2_0_6812">
<rect width="25" height="25" fill="white" transform="translate(0.5 0.800781)"/>
</clipPath>
</defs>
</svg>
