<svg width="26" height="26" viewBox="0 0 26 26" fill="none" xmlns="http://www.w3.org/2000/svg">
<g clip-path="url(#clip0_0_6771)">
<g clip-path="url(#clip1_0_6771)">
<g clip-path="url(#clip2_0_6771)">
<path fill-rule="evenodd" clip-rule="evenodd" d="M15.2558 0.839844C15.2753 0.839844 15.2949 0.844727 15.3144 0.854492L17.58 1.80664C17.6484 1.83594 17.6826 1.9043 17.6679 1.97266C16.9941 4.92188 17.7558 6.71875 18.8447 7.69043C18.874 7.71484 18.8935 7.75391 18.8935 7.79785L18.9423 16.5576C18.9423 16.6406 18.8789 16.7041 18.7959 16.7041H18.7128C19.1425 19.0088 19.5087 22.1143 19.8164 25.6006C19.8261 25.6836 19.7578 25.7617 19.6699 25.7617H6.33003C6.24214 25.7617 6.17378 25.6885 6.18355 25.6006C6.49116 22.1143 6.85738 19.0088 7.28706 16.7041H7.20406C7.12105 16.7041 7.05757 16.6406 7.05757 16.5576L7.1064 7.79785C7.1064 7.75391 7.12105 7.71484 7.15523 7.69043C8.24409 6.71875 9.00093 4.92188 8.33198 1.97266C8.31245 1.9043 8.35152 1.83594 8.41499 1.80664L10.6855 0.854492C10.7018 0.844727 10.7197 0.839844 10.7392 0.839844H15.2558ZM11.5156 3.58887C11.8476 4.33105 12.331 4.90723 13 5.22461C13.6689 4.90723 14.1474 4.33105 14.4794 3.58887C14.8066 2.86621 14.9873 2.00195 15.0898 1.1377H10.9101C11.0078 2.00195 11.1933 2.86621 11.5156 3.58887ZM8.63472 2.03613C9.25972 4.92676 8.5273 6.80664 7.39937 7.84668L7.35054 16.4111H18.6445L18.5957 7.84668C17.4726 6.80664 16.7402 4.92676 17.3652 2.03613L15.373 1.19629C15.2705 2.07031 15.0898 2.9541 14.748 3.70605C14.3867 4.5166 13.8447 5.19043 13.0585 5.53711C13.0195 5.55176 12.9755 5.55176 12.9414 5.53711C12.1503 5.19043 11.6132 4.52148 11.247 3.70605C10.9101 2.9541 10.7294 2.07031 10.6269 1.19629L8.63472 2.03613ZM6.49605 25.4688H12.7412L12.8535 20.9668V20.9619C12.8535 20.7666 13.1464 20.7666 13.1464 20.9619V20.9668L13.2587 25.4688H19.5087C19.2011 22.0312 18.8398 18.9648 18.415 16.709H7.58491C7.16011 18.9648 6.79878 22.0312 6.49605 25.4688Z" fill="black"/>
</g>
</g>
</g>
<defs>
<clipPath id="clip0_0_6771">
<rect width="25" height="25" fill="white" transform="translate(0.5 0.800781)"/>
</clipPath>
<clipPath id="clip1_0_6771">
<rect width="25" height="25" fill="white" transform="translate(0.5 0.800781)"/>
</clipPath>
<clipPath id="clip2_0_6771">
<rect width="25" height="25" fill="white" transform="translate(0.5 0.800781)"/>
</clipPath>
</defs>
</svg>
