<svg width="26" height="26" viewBox="0 0 26 26" fill="none" xmlns="http://www.w3.org/2000/svg">
<g clip-path="url(#clip0_0_6798)">
<g clip-path="url(#clip1_0_6798)">
<g clip-path="url(#clip2_0_6798)">
<path fill-rule="evenodd" clip-rule="evenodd" d="M13 22.4912C12.1064 22.4912 11.2227 22.3838 10.3633 22.1738C10.2998 22.1543 10.251 22.1006 10.251 22.0322L9.99219 14.3906H8.92773L8.68848 21.3828C8.68359 21.4316 8.65918 21.4805 8.61523 21.5049C8.57129 21.5342 8.52246 21.5391 8.47363 21.5147C4.57227 19.7422 2.05273 15.8311 2.05273 11.5488C2.05273 5.50879 6.96484 0.601562 13 0.601562C19.0352 0.601562 23.9473 5.50879 23.9473 11.5488C23.9473 16.0361 21.2568 20.0205 17.0967 21.7002C17.0527 21.7148 16.999 21.71 16.96 21.6855C16.916 21.6563 16.8916 21.6123 16.8867 21.5635L16.667 15.875C16.667 15.8115 16.7061 15.7529 16.7646 15.7285C17.8291 15.333 18.5762 13.9902 18.5762 12.4668C18.5762 10.6016 17.4775 9.08789 16.125 9.08789C14.7773 9.08789 13.6787 10.6016 13.6787 12.4668C13.6787 13.9902 14.4209 15.333 15.4902 15.7285C15.5488 15.7529 15.5879 15.8115 15.5879 15.875L15.3438 22.125C15.3438 22.1934 15.29 22.252 15.2217 22.2666C14.5039 22.418 13.7568 22.4912 13 22.4912ZM10.5488 21.9053C12.0137 22.252 13.5859 22.2813 15.0459 21.9932L15.2803 15.9727C14.1523 15.4893 13.376 14.0684 13.376 12.4668C13.376 10.4355 14.6113 8.78516 16.125 8.78516C17.6436 8.78516 18.8789 10.4355 18.8789 12.4668C18.8789 14.0635 18.0977 15.4844 16.9746 15.9727L17.1797 21.334C21.1152 19.6592 23.6445 15.8408 23.6445 11.5488C23.6445 5.67969 18.8691 0.904297 13 0.904297C7.13086 0.904297 2.35547 5.67969 2.35547 11.5488C2.35547 15.6357 4.71875 19.3809 8.39551 21.1436L8.62988 14.2344C8.63477 14.1563 8.70312 14.0928 8.78125 14.0928H10.1387C10.2217 14.0928 10.2852 14.1563 10.29 14.2344L10.5488 21.9053Z" fill="black"/>
<path fill-rule="evenodd" clip-rule="evenodd" d="M13 19.5908C12.0527 19.5908 11.125 19.4297 10.2461 19.1074C10.1875 19.0879 10.1484 19.0293 10.1484 18.9707L9.99219 14.3906H8.92773L8.80078 18.1357C8.7959 18.1895 8.7666 18.2383 8.71777 18.2627C8.66895 18.2871 8.61035 18.2871 8.56641 18.2578C6.30566 16.7588 4.95312 14.249 4.95312 11.5488C4.95312 7.11035 8.56152 3.50195 13 3.50195C17.4336 3.50195 21.0469 7.11035 21.0469 11.5488C21.0469 14.4199 19.4893 17.0957 16.9893 18.5313C16.9453 18.5557 16.8916 18.5557 16.8428 18.5313C16.7988 18.5068 16.7695 18.458 16.7646 18.4043L16.667 15.875C16.6621 15.8115 16.7061 15.7529 16.7646 15.7285C17.8291 15.333 18.5762 13.9902 18.5762 12.4668C18.5762 10.6016 17.4775 9.08789 16.125 9.08789C14.7773 9.08789 13.6787 10.6016 13.6787 12.4668C13.6787 13.9951 14.4209 15.333 15.4902 15.7285C15.5488 15.7529 15.5879 15.8115 15.5879 15.875L15.4609 19.1025C15.4609 19.166 15.417 19.2197 15.3535 19.2393C14.5967 19.4736 13.8057 19.5908 13 19.5908ZM10.4463 18.8584C11.9502 19.3857 13.6348 19.4297 15.1631 18.9805L15.2803 15.9727C14.1523 15.4893 13.376 14.0684 13.376 12.4668C13.376 10.4355 14.6113 8.78516 16.125 8.78516C17.6436 8.78516 18.8789 10.4355 18.8789 12.4668C18.8789 14.0635 18.0977 15.4893 16.9746 15.9727L17.0576 18.1406C19.3379 16.7295 20.7441 14.2295 20.7441 11.5488C20.7441 7.27637 17.2676 3.7998 13 3.7998C8.72754 3.7998 5.25586 7.27637 5.25586 11.5488C5.25586 14.0586 6.4668 16.3926 8.50781 17.8477L8.62988 14.2344C8.63477 14.1562 8.70313 14.0928 8.78125 14.0928H10.1387C10.2168 14.0928 10.2852 14.1562 10.29 14.2344L10.4463 18.8584Z" fill="black"/>
<path fill-rule="evenodd" clip-rule="evenodd" d="M16.125 26.002C15.7979 26.002 15.4951 25.8701 15.2705 25.6357C15.041 25.3965 14.9238 25.084 14.9385 24.7568L15.2803 15.9727C14.1523 15.4893 13.376 14.0684 13.376 12.4668C13.376 10.4355 14.6113 8.78516 16.125 8.78516C17.6436 8.78516 18.8789 10.4355 18.8789 12.4668C18.8789 14.0635 18.0977 15.4844 16.9746 15.9727L17.3164 24.7568C17.3311 25.084 17.2139 25.3965 16.9844 25.6357C16.7598 25.8701 16.4521 26.002 16.125 26.002ZM16.125 9.08789C14.7773 9.08789 13.6787 10.6016 13.6787 12.4668C13.6787 13.9902 14.4209 15.333 15.4902 15.7285C15.5488 15.7529 15.5879 15.8115 15.5879 15.875L15.2412 24.7666C15.2266 25.0156 15.3145 25.25 15.4854 25.4258C15.8271 25.7822 16.4326 25.7773 16.7695 25.4258C16.9355 25.25 17.0234 25.0156 17.0137 24.7715L16.667 15.875C16.6621 15.8115 16.7061 15.7529 16.7646 15.7285C17.8291 15.333 18.5762 13.9902 18.5762 12.4668C18.5762 10.6016 17.4775 9.08789 16.125 9.08789Z" fill="black"/>
<path fill-rule="evenodd" clip-rule="evenodd" d="M9.46011 26.0029C9.12808 26.0029 8.82535 25.8711 8.59585 25.6367C8.37124 25.3975 8.25406 25.085 8.27359 24.7578L8.63003 14.2354C8.63492 14.1572 8.70328 14.0938 8.7814 14.0938H10.1388C10.2169 14.0938 10.2853 14.1572 10.2902 14.2354L10.6466 24.7578C10.6613 25.085 10.5441 25.3975 10.3195 25.6367C10.0949 25.8711 9.78726 26.0029 9.46011 26.0029ZM8.92789 14.3916L8.57144 24.7676C8.56167 25.0166 8.64956 25.251 8.81558 25.4268C9.15249 25.7832 9.76285 25.7832 10.0998 25.4268C10.2707 25.251 10.3585 25.0166 10.3439 24.7725C10.3439 24.7692 10.3439 24.7676 10.3439 24.7676L9.99234 14.3916H8.92789Z" fill="black"/>
<path d="M8.78125 14.3916H8.33203C7.66309 14.3916 7.12109 13.8496 7.12109 13.1855V9.20605C7.12109 9.12305 7.18945 9.05469 7.27246 9.05469C7.35547 9.05469 7.42383 9.12305 7.42383 9.20605V13.1855C7.42383 13.6836 7.8291 14.0938 8.33203 14.0938H8.78125C8.86426 14.0938 8.93262 14.1572 8.93262 14.2451C8.93262 14.3281 8.86426 14.3916 8.78125 14.3916Z" fill="black"/>
<path d="M10.5879 14.3916H10.1387C10.0557 14.3916 9.9873 14.3281 9.9873 14.2451C9.9873 14.1572 10.0557 14.0938 10.1387 14.0938H10.5879C11.0859 14.0938 11.4912 13.6836 11.4912 13.1855V9.20605C11.4912 9.12305 11.5596 9.05469 11.6426 9.05469C11.7256 9.05469 11.7939 9.12305 11.7939 9.20605V13.1855C11.7939 13.8496 11.2568 14.3916 10.5879 14.3916Z" fill="black"/>
<path d="M9.45996 14.3916C9.37695 14.3916 9.30859 14.3281 9.30859 14.2451V9.20605C9.30859 9.12305 9.37695 9.05469 9.45996 9.05469C9.54297 9.05469 9.61133 9.12305 9.61133 9.20605V14.2451C9.61133 14.3281 9.54297 14.3916 9.45996 14.3916Z" fill="black"/>
</g>
</g>
</g>
<defs>
<clipPath id="clip0_0_6798">
<rect width="25" height="25" fill="white" transform="translate(0.5 0.800781)"/>
</clipPath>
<clipPath id="clip1_0_6798">
<rect width="25" height="25" fill="white" transform="translate(0.5 0.800781)"/>
</clipPath>
<clipPath id="clip2_0_6798">
<rect width="25" height="25" fill="white" transform="translate(0.5 0.800781)"/>
</clipPath>
</defs>
</svg>
