<svg width="25" height="26" viewBox="0 0 25 26" fill="none" xmlns="http://www.w3.org/2000/svg">
<g clip-path="url(#clip0_0_190)">
<g clip-path="url(#clip1_0_190)">
<g clip-path="url(#clip2_0_190)">
<path d="M19.5999 8.46414L16.8394 7.32115C15.3219 6.69177 13.7766 7.48751 13.4062 9.08803L10.3178 22.4251C10.1324 23.2258 10.6016 24.1366 11.3611 24.4514C12.1201 24.7657 13.0969 24.4528 13.5313 23.7564L20.7786 12.1416C21.6478 10.7475 21.1178 9.09292 19.5999 8.46414Z" stroke="#222222" stroke-width="0.925926" stroke-miterlimit="10" stroke-linecap="round" stroke-linejoin="round"/>
<path d="M18.2212 1.42578C19.1139 3.58219 19.0477 5.89548 18.2207 7.89321" stroke="#222222" stroke-width="0.925926" stroke-miterlimit="10" stroke-linecap="round" stroke-linejoin="round"/>
<path d="M24.0739 5.4685C21.7868 4.52073 19.1668 5.60717 18.2194 7.89386C18.8505 6.36897 18.1272 4.62123 16.6024 3.98985C15.8406 3.67456 15.0229 3.69699 14.3164 3.98985" stroke="#222222" stroke-width="0.925926" stroke-miterlimit="10" stroke-linecap="round" stroke-linejoin="round"/>
<path d="M13.0547 10.6035L16.5047 12.0325" stroke="#222222" stroke-width="0.925926" stroke-miterlimit="10" stroke-linecap="round" stroke-linejoin="round"/>
<path d="M18.3532 16.0312L15.3633 14.793" stroke="#222222" stroke-width="0.925926" stroke-miterlimit="10" stroke-linecap="round" stroke-linejoin="round"/>
<path d="M11.6895 16.5039L14.2194 17.5519" stroke="#222222" stroke-width="0.925926" stroke-miterlimit="10" stroke-linecap="round" stroke-linejoin="round"/>
<path d="M15.145 21.1696L13.0762 20.3125" stroke="#222222" stroke-width="0.925926" stroke-miterlimit="10" stroke-linecap="round" stroke-linejoin="round"/>
<path d="M9.12979 5.69119L6.97865 7.39889L4.77785 5.04297L4.88717 8.26583L2.1582 8.57898C3.00264 8.9291 3.67232 9.52028 4.12699 10.2382C5.09671 9.94635 6.10391 10.0172 6.9896 10.3831L6.98937 10.3819C7.35621 9.49521 8.01925 8.73339 8.91186 8.25531C8.71447 7.37914 8.80138 6.48525 9.12979 5.69119Z" stroke="#222222" stroke-width="0.925926" stroke-miterlimit="10" stroke-linecap="round" stroke-linejoin="round"/>
<path d="M13.4063 9.08862C13.4522 8.88838 13.5175 8.70053 13.598 8.52677C12.3767 7.68784 10.7704 7.46254 9.2993 8.07162C8.21047 8.52246 7.40782 9.37167 6.9899 10.382L6.99013 10.3832C5.98057 9.96597 4.81154 9.93115 3.72272 10.3826C1.4119 11.339 0.314663 13.9874 1.27157 16.2977C2.81578 20.0252 7.00085 21.8476 10.7601 20.5137L13.4063 9.08862Z" stroke="#222222" stroke-width="0.925926" stroke-miterlimit="10" stroke-linecap="round" stroke-linejoin="round"/>
</g>
</g>
</g>
<defs>
<clipPath id="clip0_0_190">
<rect width="25" height="25" fill="white" transform="translate(0 0.5)"/>
</clipPath>
<clipPath id="clip1_0_190">
<rect width="25" height="25" fill="white" transform="translate(0 0.5)"/>
</clipPath>
<clipPath id="clip2_0_190">
<rect width="25" height="25" fill="white" transform="translate(0 0.5)"/>
</clipPath>
</defs>
</svg>
