<svg width="14" height="14" viewBox="0 0 14 14" fill="none" xmlns="http://www.w3.org/2000/svg">
<path d="M5.59903 1.53809L6.24356 0.893555C6.53653 0.629883 6.97598 0.629883 7.23966 0.893555L12.9525 6.57715C13.2162 6.87012 13.2162 7.30957 12.9525 7.57324L7.23966 13.2861C6.97598 13.5498 6.53653 13.5498 6.24356 13.2861L5.59903 12.6416C5.33536 12.3486 5.33536 11.9092 5.59903 11.6162L9.14395 8.24707H0.73575C0.325593 8.24707 0.0326247 7.9541 0.0326247 7.54395V6.60645C0.0326247 6.22559 0.325593 5.90332 0.73575 5.90332H9.14395L5.59903 2.56348C5.33536 2.27051 5.30606 1.83105 5.59903 1.53809Z" fill="white"/>
</svg>
